<svg xmlns="http://www.w3.org/2000/svg" width="605" height="539" viewBox="0 0 605 539">
    <defs>
        <style>
            .prefix__cls-1{fill:#f2f2f2}.prefix__cls-3{opacity:.1}.prefix__cls-4{fill:#2f2e41}.prefix__cls-7{fill:#fbbebe}.prefix__cls-8{fill:#d0cde1}.prefix__cls-9{fill:#6c63ff}.prefix__cls-10{fill:#6861e5}.prefix__cls-12{fill:#2dbfb5}.prefix__cls-13{fill:#fff}
        </style>
    </defs>
    <g id="prefix__Group_32" data-name="Group 32" transform="translate(0 -11)">
        <path id="prefix__Path_10" d="M800.732 405.25a213.261 213.261 0 0 0-14.946-187.65l-340.712 47.173 326.511-68.047a212.528 212.528 0 0 0-168.72-83.065c-117.578 0-212.893 95.315-212.893 212.893a214.531 214.531 0 0 0 1.974 29z" class="prefix__cls-1" data-name="Path 10" transform="translate(-239.037 -78.727)"/>
        <path id="prefix__Path_11" d="M409.909 519.317c30.772 79.7 108.109 136.243 198.663 136.243a212.906 212.906 0 0 0 192.45-121.775z" class="prefix__cls-1" data-name="Path 11" transform="translate(-244.743 -194.841)"/>
        <path id="prefix__Path_12" d="M729.525 514.194c0 83.663-123.353 151.48-275.509 151.48-81.743 0-155.17-19.569-205.621-50.66-32.919-20.279-56.062-45.467-65.346-73.3a86.276 86.276 0 0 1-4.542-27.517c0-83.654 228.313-461.009 275.509-151.471s275.509 67.813 275.509 151.468z" data-name="Path 12" transform="translate(-178.508 -115.673)" style="fill:#32d5c9"/>
        <path id="prefix__Path_13" d="M592.757 677.588c0 30.89-97.555 55.937-217.9 55.937-46.352 0-89.323-3.715-124.638-10.052-32.919-20.279-56.062-45.467-65.346-73.3 37.361-17.023 108.442-28.519 189.984-28.519 120.343-.003 217.9 25.046 217.9 55.934z" class="prefix__cls-3" data-name="Path 13" transform="translate(-180.329 -224.133)"/>
        <path id="prefix__Path_14" d="M482.527 241.342c-17.269-29.179-51.434-30.539-51.434-30.539s-33.292-4.257-54.649 40.183c-19.906 41.422-47.379 81.416-4.423 91.113l7.759-24.15 4.805 25.948a168.078 168.078 0 0 0 18.379.314c46-1.485 89.814.435 88.4-16.073-1.872-21.945 7.779-58.72-8.837-86.796z" class="prefix__cls-4" data-name="Path 14" transform="translate(-227.387 -106.501)"/>
        <path id="prefix__Path_15" d="M374.908 605.5a68.117 68.117 0 0 1-2.2 9.483c-1.081 3.039-2.749 5.849-3.737 8.919-3.149 9.786 1.217 20.7 8.19 28.25a46.1 46.1 0 0 0 22.473 13.348c6.291 1.582 12.832 1.81 19.315 2.03 17.952.609 36.366 1.153 53.377-4.616a92.741 92.741 0 0 0 15.508-7.045 11.612 11.612 0 0 0 4.024-3.168c1.3-1.847 1.463-4.243 1.452-6.5-.038-7.61-1.581-15.182-1.215-22.784.2-4.211.991-8.418.6-12.615a23.273 23.273 0 0 0-17.786-20.047c-4.826-1.036-9.831-.472-14.743 0a375.9 375.9 0 0 1-38.37 1.716c-13.09-.084-26.1-2.082-39.123-2.29-3.852-.062-3.774 1.126-5 4.853a90.814 90.814 0 0 0-2.765 10.466z" class="prefix__cls-4" data-name="Path 15" transform="translate(-232.727 -215.121)"/>
        <path id="prefix__Path_16" d="M423.478 342.079c-.629 3.294-1.309 6.708-3.288 9.415-2.277 3.114-5.99 4.893-8.44 7.874-3.687 4.486-3.9 10.8-3.914 16.605-.014 5.35.095 11.055 3.078 15.5 1.936 2.882 4.882 4.9 7.761 6.843 11.188 7.539 23.277 15.214 36.766 15.463 5.589.1 11.581-1.34 15.259-5.55a22.911 22.911 0 0 0 3.694-6.591 87.524 87.524 0 0 0 6.2-26.645c.307-4.305.278-8.737-1.179-12.8-1.639-4.569-4.952-8.328-7.142-12.659a28.183 28.183 0 0 1-2.713-16.677 1.8 1.8 0 0 0-.1-1.209 1.761 1.761 0 0 0-1.451-.588l-26.746-1.925a58.192 58.192 0 0 1-7.426-.849c-1.442-.293-5.25-2.341-6.625-1.8-2.545 1.006-3.212 12.861-3.734 15.593z" data-name="Path 16" transform="translate(-244.149 -139.619)" style="fill:#a0616a"/>
        <path id="prefix__Path_17" d="M423.478 343.248c-.629 3.294-1.309 6.708-3.288 9.415-2.277 3.114-5.99 4.894-8.44 7.874-3.687 4.486-3.9 10.8-3.914 16.605-.014 5.35.095 11.055 3.078 15.5 1.936 2.882 4.882 4.9 7.761 6.843 11.188 7.539 23.277 15.214 36.766 15.463 5.589.1 11.581-1.34 15.259-5.55a22.91 22.91 0 0 0 3.694-6.591 87.524 87.524 0 0 0 6.2-26.645c.307-4.306.278-8.737-1.179-12.8-1.639-4.569-4.952-8.328-7.142-12.659a28.183 28.183 0 0 1-2.713-16.677 1.8 1.8 0 0 0-.1-1.209 1.76 1.76 0 0 0-1.451-.588l-26.746-1.929a58.209 58.209 0 0 1-7.426-.849c-1.442-.293-5.25-2.341-6.625-1.8-2.545 1.011-3.212 12.866-3.734 15.597z" data-name="Path 17" transform="translate(-244.149 -139.954)" style="fill:#e2abab"/>
        <circle id="prefix__Ellipse_8" cx="39.239" cy="39.239" r="39.239" class="prefix__cls-7" data-name="Ellipse 8" transform="translate(165.667 127.568)"/>
        <path id="prefix__Path_18" d="M431.776 411.045a24.066 24.066 0 0 0 6.892 5.507 21.656 21.656 0 0 0 8.61 1.639c7.073.2 14.741-1.1 19.661-6.182 6.343-6.555 6.134-17.128 11.105-24.775a5.52 5.52 0 0 1 1.6-1.752 5.193 5.193 0 0 1 2.725-.626c6.279-.059 11.749 4.014 16.685 7.895 2.211 1.739 4.478 3.54 5.873 5.982a20.275 20.275 0 0 1 1.98 6.065c2.45 11.958 3.243 24.185 4.03 36.366.435 6.728.87 13.463.838 20.2-.107 22.212-5.269 44.053-10.4 65.664-.662 2.785-1.567 5.9-4.1 7.231a10.105 10.105 0 0 1-3.577.873c-14.705 1.727-29.44 3.456-44.245 3.684q-8.666.133-17.324-.42a9.332 9.332 0 0 1-2.918-.509 8.23 8.23 0 0 1-3.182-2.7c-8.008-10.091-8.48-24.042-8.429-36.924q.188-47.244 3.376-94.412c.175-2.6.214-5.748-1.656-7.789 3.367 5.393 8.051 10.379 12.456 14.983z" class="prefix__cls-8" data-name="Path 18" transform="translate(-246.944 -156.352)"/>
        <path id="prefix__Path_19" d="M401.529 356.666c-1.325 2.4-11.1 8.356-12.982 10.344-10.539 11.109-29.775 10.692-39.414 22.591-3.391 4.186-5.153 9.446-6.449 14.676-1.833 7.4-2.811 15.462.259 22.436 2.954 6.71 9.173 11.35 13.4 17.344 4.636 6.581 6.72 14.573 8.718 22.371 1.475 5.758 2.962 11.659 2.388 17.575-.653 6.727-3.908 12.886-5.83 19.365s-2.254 14.2 2.19 19.288c3.265 3.741 8.385 5.224 13.28 6.058a152.573 152.573 0 0 0 18.928 1.648c5.6.247 11.763.3 16.064-3.292 3.394-2.83 4.869-7.423 5.06-11.838s-.728-8.791-1.3-13.172c-.6-4.542-.826-9.124-1.017-13.7q-1.291-30.805-.352-61.65c.13-4.279.288-8.61-.624-12.793-1.2-5.5-4.173-10.417-6.653-15.471-4.924-10.032-7.252-19.777-6.491-30.927.741-11.005 5.541-19.39.825-10.853z" class="prefix__cls-9" data-name="Path 19" transform="translate(-225.009 -147.281)"/>
        <path id="prefix__Path_20" d="M497.577 355.966c2.019 2.075 8.878 2.759 11.446 4.095a40.1 40.1 0 0 0 7.524 2.605 97.681 97.681 0 0 1 26.432 12.134 16.042 16.042 0 0 1 4.42 3.818c1.437 2 1.958 4.492 2.445 6.9 1.257 6.228 2.521 12.532 2.238 18.879-.3 6.738-2.329 13.264-4.343 19.7l-7.523 24.052c-5.616 17.953-11.267 36.083-12.847 54.828a128.976 128.976 0 0 0 1.157 31.14 3.692 3.692 0 0 1-.379 3.016 2.97 2.97 0 0 1-1.842.848c-3.631.568-7.145-1.284-10.435-2.922a115.557 115.557 0 0 0-31.855-10.423 74.056 74.056 0 0 0 9.894-20.4 123.419 123.419 0 0 0 2.989-14.027l3.5-20.242a198.873 198.873 0 0 0 3-22.384 28.02 28.02 0 0 0-.487-8.432 40.9 40.9 0 0 0-3.2-7.6c-5.768-12-8.474-25.689-6.2-38.806.993-5.74 2.923-11.489 2.118-17.258-.774-5.547.03-9.859-1.393-15.349-5.843-22.538-.457-8.075 3.341-4.172z" class="prefix__cls-9" data-name="Path 20" transform="translate(-265.955 -145.745)"/>
        <path id="prefix__Path_21" d="M348.546 424.37c-2.63 5.457-7.026 10.105-8.522 15.974a34.9 34.9 0 0 0-.743 8.349c-.035 4.224-.059 8.534 1.239 12.554.835 2.588 2.194 4.975 3.172 7.513a27.239 27.239 0 0 1 1.784 11.13c-.264 5.256-2.05 10.358-2.189 15.619-.219 8.273 3.607 16.05 7.341 23.436a17.229 17.229 0 0 1 25.043-8.2c.985-.91 1.09-2.4 1.129-3.744q.414-14.4.8-28.795c.4-14.845.789-29.888-2.626-44.34-1.542-6.525-3.941-13.025-8.339-18.086-2.316-2.665-10.177-9.685-13.979-6.7-1.71 1.343-1.31 5-1.581 6.848a29.054 29.054 0 0 1-2.529 8.442z" class="prefix__cls-10" data-name="Path 21" transform="translate(-224.522 -163.08)"/>
        <path id="prefix__Path_22" d="M562.134 403.162c1.244 3.873 1.318 8.011 1.343 12.078q.076 12.446-.33 24.888c-.138 4.246-.329 8.552-1.617 12.6-.849 2.67-2.16 5.174-3.036 7.835-2.628 7.976-1.192 16.626-.967 25.02a28.431 28.431 0 0 1-.688 8.094c-1.387 5.2-5.114 9.409-7.716 14.124-2.471 4.478-3.962 9.5-6.913 13.676s-8.059 7.488-13.011 6.206c-3.752-.972-6.417-4.292-8.261-7.7a37.773 37.773 0 0 1-3.905-24.5c1.851-10.188 7.836-19.227 9.994-29.355 2.964-13.908-1.541-28.259-1.407-42.479a20.534 20.534 0 0 1 .9-6.585c1.132-3.248 3.563-5.842 5.81-8.447a106.638 106.638 0 0 0 7.808-10.247c1.608-2.4 3.792-8.566 6.643-9.079 6.36-1.147 13.773 8.953 15.353 13.871z" class="prefix__cls-10" data-name="Path 22" transform="translate(-275.238 -157.597)"/>
        <path id="prefix__Path_23" d="M291.486 602.513a38.726 38.726 0 0 0-10.774-1.145 26.89 26.89 0 0 0-24.965 31.7 45.166 45.166 0 0 0 4.269 11.666c2.857 5.8 6.284 11.584 11.574 15.3a45.078 45.078 0 0 0 10.214 4.862l27.859 10.495c4.1 1.544 8.2 3.088 12.336 4.52a241.3 241.3 0 0 0 64.433 12.809c6.689.4 13.48.509 20.006-1.014 1.549-.361 3.2-.9 4.1-2.214a7.016 7.016 0 0 0 .915-3.024l1.714-12a10.052 10.052 0 0 0-.146-5.059c-.785-2.017-2.754-3.286-4.631-4.364-18.315-10.519-39.7-16.323-55.116-30.76-3.629-3.4-6.666-8.786-11.076-11.1-5-2.618-10.889-4.112-16.057-6.525-11.3-5.271-22.409-11.332-34.655-14.147z" class="prefix__cls-4" data-name="Path 23" transform="translate(-200.49 -218.32)"/>
        <path id="prefix__Path_24" d="M339.959 624.543c9.847 3.086 51.42 24.462 58.546 31.925-.955.344-33.363-17.817-34.335-18.109-8.839-2.653-17.728-5.323-26.122-9.206-1.689-.781-10.971-4.452-10.55-6.583.475-2.403 10.713 1.425 12.461 1.973z" class="prefix__cls-3" data-name="Path 24" transform="translate(-221.15 -224.171)"/>
        <path id="prefix__Path_25" d="M500.88 727.865a2.313 2.313 0 0 0 1.561-.459 2.411 2.411 0 0 0 .488-1.8l-.046-16.35c-4.7-2.24-9.961-2.958-15.123-3.648l-24.085-3.219c.553.074-3.766 10.374-3.1 11.749 1.167 2.424 10.088 4.571 12.605 5.716 8.749 3.981 17.843 8.354 27.7 8.011z" class="prefix__cls-7" data-name="Path 25" transform="translate(-259.225 -247.244)"/>
        <path id="prefix__Path_26" d="M405.249 707.226c-4.547.724-9.623 1.365-12.568 4.9-3.735 4.489-2.145 11.181-.363 16.742a7.209 7.209 0 0 0 1.549 3.046c1.216 1.2 3.079 1.375 4.783 1.483 4.147.263 8.561.468 12.184-1.566a53.421 53.421 0 0 0 4.733-3.518 30.346 30.346 0 0 1 8.7-3.979 88 88 0 0 1 17.468-3.6 27.169 27.169 0 0 0 6.881-1.213 7.625 7.625 0 0 0 4.846-4.705c.839-2.971-.888-6-2.544-8.606-2.063-3.246-4.249-6.664-7.325-9.053-4.488-3.486-6.708-.81-11.228 1.421a95.264 95.264 0 0 1-27.12 8.643z" class="prefix__cls-7" data-name="Path 26" transform="translate(-239.161 -245.266)"/>
        <path id="prefix__Path_27" d="M372.5 713.416l-28.875-8.534c-3.512-1.038-7.083-2.085-10.745-2.082s-7.493 1.2-9.868 3.991c-2.239 2.628-2.88 6.219-3.438 9.626l-1.194 7.288c-.607 3.7-1.215 7.479-.669 11.192s2.442 7.423 5.736 9.22c4 2.18 8.893 1.115 13.352.2a145.366 145.366 0 0 1 27.363-2.934c3.456-.041 7.081 0 10.135-1.617 3.63-1.924 5.8-5.992 6.176-10.084.564-6.223-1.511-14.355-7.973-16.266z" class="prefix__cls-4" data-name="Path 27" transform="translate(-218.291 -247.36)"/>
        <path id="prefix__Path_28" d="M528.066 704.932c3.743-.656 7.047-2.783 10.633-4.039 5.049-1.767 10.52-1.767 15.869-1.748 1.964.007 4.055.051 5.689 1.139 2.356 1.569 2.96 4.708 3.361 7.51l2.417 16.906c.455 3.18.907 6.445.2 9.578s-2.845 6.153-5.953 6.961c-3.776.982-7.477-1.43-11.042-3.015-8.911-3.96-19.268-2.948-28.559-5.908-1.724-.549-3.571-1.389-4.274-3.056a6.955 6.955 0 0 1-.333-2.921c.159-5.434-.987-12.854.649-18.048 1.468-4.671 7.165-3.359 11.343-3.359z" class="prefix__cls-4" data-name="Path 28" transform="translate(-275.061 -246.313)"/>
        <path id="prefix__Path_29" d="M570.319 592.844a50.143 50.143 0 0 1 17.663-1.207c4.722.52 9.587 1.834 13.035 5.1 4.2 3.978 5.545 10.13 5.657 15.912a49.711 49.711 0 0 1-10.8 31.748 28.806 28.806 0 0 1-6.177 5.947 40.652 40.652 0 0 1-8.037 3.873l-62.388 24.608c-16.413 6.474-32.884 12.966-50 17.234a3.9 3.9 0 0 1-5.244-1.9 129.256 129.256 0 0 1-13.674-25.013 1.686 1.686 0 0 1 .745-2.658l44.128-25.354a44.616 44.616 0 0 0 8.982-6.189 22.3 22.3 0 0 0 4.611-6.42c.915-1.911 1-6.419 2.168-7.831 1.144-1.383 5.057-1.493 6.864-2.037a62.285 62.285 0 0 0 7.473-2.825c9.871-4.416 18.661-10.832 28.124-16a72.16 72.16 0 0 1 16.87-6.988z" class="prefix__cls-4" data-name="Path 29" transform="translate(-256.209 -215.456)"/>
        <path id="prefix__Path_30" d="M555.13 618.038c-7.581 5.694-17.4 10.928-24.912 16.772-2.564 1.995-45.314 26.029-45.918 29.221 7.01 1.181 51.665-30.058 58.053-33.175s12.052-7.513 17.665-11.876c1.43-1.112 7.491-4.455 3.386-5.7-2.312-.698-6.566 3.62-8.274 4.758z" class="prefix__cls-3" data-name="Path 30" transform="translate(-266.037 -221.716)"/>
        <path id="prefix__Path_31" d="M479.384 360.015h-66.55a10.2 10.2 0 0 0-10.194 10.195v3.733h-.723v8.349h.723v5.844h-.723v5.009h.723v61.6a10.2 10.2 0 0 0 10.194 10.195h66.55a10.2 10.2 0 0 0 10.195-10.195v-84.536a10.2 10.2 0 0 0-10.195-10.194z" data-name="Path 31" transform="translate(-242.456 -149.243)" style="fill:#3f3d56"/>
        <path id="prefix__Path_32" d="M310.665 177.884L276.911 160.2l-46.611 7.236-9.644 42.594 24.007-.924 6.707-15.649v15.391l11.077-.426 6.43-24.913 4.018 26.521 39.38-.8z" class="prefix__cls-4" data-name="Path 32" transform="translate(-63.16 -45.856)"/>
        <path id="prefix__Path_33" d="M361.955 542.159c1.668 2.49 3.622 4.925 6.3 6.268a12.322 12.322 0 0 0 10.831-.29 19.064 19.064 0 0 0 7.814-7.837c3.668-6.478 4.428-14.229 3.97-21.659s-2.044-14.747-2.746-22.158c-.51-5.387-.552-10.807-.593-16.218a5.393 5.393 0 0 1 .682-3.28c.813-1.11 2.3-1.415 3.618-1.807 7.4-2.2 12.318-9.139 15.841-16.012 2.353-4.589 4.4-9.606 3.945-14.743s-4.146-10.312-9.277-10.837c-4.23-.432-8.135 2.254-11.186 5.216a47.968 47.968 0 0 0-14.045 28.069c-.67 5.223-.478 10.589-1.9 15.66-3.034 10.827-12.525 17.466-17.255 27.208-5.208 10.734-2.331 22.922 4.001 32.42z" class="prefix__cls-7" data-name="Path 33" transform="translate(-229.1 -170.289)"/>
        <path id="prefix__Path_34" d="M542.6 487.846a20.462 20.462 0 0 1-11.475 11.026 15.848 15.848 0 0 1-9.975.611 11.061 11.061 0 0 1-7.307-6.536 17.605 17.605 0 0 1-.823-4.91c-.475-7.3-.291-14.825 2.361-21.645 1.023-2.63 2.4-5.125 3.209-7.829a39.261 39.261 0 0 0 1.209-9.554l.872-19.922a12.965 12.965 0 0 0-.3-4.32c-.87-2.883-3.564-4.756-6.036-6.475-5.97-4.152-11.869-9-14.762-15.667a10.989 10.989 0 0 1-1.02-6.49c.816-3.956 4.808-6.517 8.754-7.38a19.581 19.581 0 0 1 23.475 15.779c.39 2.248.385 4.545.613 6.815.485 4.816 2.014 9.459 2.97 14.2 2.356 11.688 1.135 23.77 3.465 35.456 1.947 9.775 9.293 16.151 4.77 26.841z" class="prefix__cls-7" data-name="Path 34" transform="translate(-270.072 -157.34)"/>
        <circle id="prefix__Ellipse_9" cx="8.349" cy="8.349" r="8.349" class="prefix__cls-8" data-name="Ellipse 9" transform="translate(196.196 238.892)"/>
        <circle id="prefix__Ellipse_11" cx="35" cy="35" r="35" class="prefix__cls-12" data-name="Ellipse 11" transform="translate(308 11)"/>
        <circle id="prefix__Ellipse_12" cx="35" cy="35" r="35" class="prefix__cls-12" data-name="Ellipse 12" transform="translate(470 94)"/>
        <circle id="prefix__Ellipse_13" cx="35" cy="35" r="35" class="prefix__cls-12" data-name="Ellipse 13" transform="translate(535 249)"/>
        <path id="prefix__Icon_material-location-on" d="M17.5 3a9.993 9.993 0 0 0-10 10c0 7.5 10 18.571 10 18.571S27.5 20.5 27.5 13a9.993 9.993 0 0 0-10-10zm0 13.571A3.571 3.571 0 1 1 21.071 13a3.573 3.573 0 0 1-3.571 3.571z" class="prefix__cls-13" data-name="Icon material-location-on" transform="translate(325.5 29)"/>
        <path id="prefix__Icon_awesome-money-bill-wave" d="M23.293 3.092a11.1 11.1 0 0 0-4.365-.842c-4.619 0-9.237 2.338-13.856 2.338A11.378 11.378 0 0 1 1.6 4.073a1.282 1.282 0 0 0-.388-.061A1.193 1.193 0 0 0 0 5.205V17.1a1.193 1.193 0 0 0 .706 1.1 11.1 11.1 0 0 0 4.365.843c4.619 0 9.238-2.338 13.856-2.338a11.377 11.377 0 0 1 3.474.514 1.282 1.282 0 0 0 .388.061A1.193 1.193 0 0 0 24 16.094V4.2a1.194 1.194 0 0 0-.707-1.108zM1.8 6.008a13.05 13.05 0 0 0 2.352.335A2.4 2.4 0 0 1 1.8 8.276zm0 10.692v-1.8a2.4 2.4 0 0 1 2.389 2.3 9.059 9.059 0 0 1-2.389-.5zM12 14.25c-1.657 0-3-1.612-3-3.6s1.343-3.6 3-3.6 3 1.612 3 3.6-1.344 3.6-3 3.6zm10.2 1.042a12.893 12.893 0 0 0-2.037-.316 2.4 2.4 0 0 1 2.037-1.849zm0-8.854a2.4 2.4 0 0 1-2.093-2.308 9.014 9.014 0 0 1 2.093.47z" class="prefix__cls-13" data-name="Icon awesome-money-bill-wave" transform="translate(558 273.75)"/>
        <g id="prefix__Icon_ionic-ios-chatbubbles" data-name="Icon ionic-ios-chatbubbles" transform="translate(489.45 114)">
            <path id="prefix__Path_6" d="M26.333 19.1a1.4 1.4 0 0 1 .19-.7 1.944 1.944 0 0 1 .121-.179 9.348 9.348 0 0 0 1.592-5.21 9.814 9.814 0 0 0-10.02-9.636 9.952 9.952 0 0 0-9.825 7.667 9.271 9.271 0 0 0-.213 1.973 9.786 9.786 0 0 0 9.865 9.756 11.881 11.881 0 0 0 2.723-.444c.652-.179 1.3-.415 1.465-.479a1.525 1.525 0 0 1 .537-.1 1.5 1.5 0 0 1 .583.115l3.271 1.16a.78.78 0 0 0 .225.058.459.459 0 0 0 .462-.462.741.741 0 0 0-.029-.156z" class="prefix__cls-13" data-name="Path 6" transform="translate(-.862)"/>
            <path id="prefix__Path_7" d="M18.981 24.96c-.208.058-.473.121-.762.185a10.648 10.648 0 0 1-1.962.26 9.786 9.786 0 0 1-9.865-9.756 10.908 10.908 0 0 1 .087-1.235c.035-.248.075-.5.133-.738.058-.26.127-.519.2-.773l-.462.41a8.586 8.586 0 0 0-2.977 6.456A8.49 8.49 0 0 0 4.806 24.5c.133.2.208.358.185.462S4.3 28.537 4.3 28.537a.463.463 0 0 0 .156.444.47.47 0 0 0 .294.1.414.414 0 0 0 .167-.035l3.237-1.275a.9.9 0 0 1 .329-.063.91.91 0 0 1 .363.075 9.71 9.71 0 0 0 3.5.692 9.061 9.061 0 0 0 6.935-3.175s.185-.254.4-.554c-.216.076-.458.154-.7.214z" class="prefix__cls-13" data-name="Path 7" transform="translate(0 -1.71)"/>
        </g>
    </g>
</svg>
