<svg xmlns="http://www.w3.org/2000/svg" id="prefix__Group_39" width="965.613" height="606.407" data-name="Group 39" viewBox="0 0 965.613 606.407">
    <defs>
        <style>
            .prefix__cls-1{fill:#6c63ff}.prefix__cls-1,.prefix__cls-3{opacity:.1}.prefix__cls-2{fill:#be6f72}.prefix__cls-4{fill:#3f3d56}.prefix__cls-5{fill:#fbbebe}.prefix__cls-6{fill:#e3e8f4}.prefix__cls-7{fill:#f86d70}.prefix__cls-8{fill:#32d5c9}
        </style>
    </defs>
    <path id="prefix__Path_104" d="M992.5 539.423c-9.689 23.3-29.96 44.344-51.719 64.275q-28.692 26.285-61.382 50.8-9.059 6.805-18.408 13.44l-4.33 3.054q-5.759 4.074-11.713 8.073l-.476.323q-5.776 3.93-11.654 7.783c-12.819 8.421-26.37 16.783-41.35 23.707-5.1 2.365-10.369 4.568-15.822 6.541q-4.423 1.608-9.034 3.011c-5.036 1.531-10.208 2.867-15.609 3.964-.9.187-1.812.366-2.722.536-5.529 1.038-11.126 1.795-16.783 2.314-20.73 1.9-42.141.51-62.905-2.739-10.378-1.625-20.594-3.717-30.479-6.1-1.216-.289-2.424-.587-3.641-.851-33.66-8.421-65.261-19.854-99.159-27.893q-17.523-4.16-35.727-7.06-8.881-1.412-17.863-2.552c-14.1-1.752-28.369-2.926-42.7-3.522-19.327-.851-39.283-.485-57.674 2.892q-3.675.672-7.256 1.514-4.542 1.063-8.915 2.424a158.71 158.71 0 0 0-22.874 9.417c-1.455.715-2.892 1.438-4.33 2.169-4.508 2.3-8.957 4.645-13.474 6.924a170.068 170.068 0 0 1-25.3 10.735 133.941 133.941 0 0 1-14.529 3.709 214.082 214.082 0 0 1-40.695 3.7c-6.695 0-13.4-.145-20.024-.493h-.2c-2.263-.119-4.534-.255-6.805-.425-10.344-.706-20.654-1.795-30.81-3.283-34.8-5.1-67.8-14.75-94.353-29.466-36.059-19.973-58.958-49.754-55.521-79.51 2.463-21.434 17.783-41.334 32.321-60.827 27.042-36.288 52.374-73.4 65.7-112.523 10.812-31.754 14.036-65.329 38.917-93.868a130.436 130.436 0 0 1 30.028-24.779 191.738 191.738 0 0 1 27.8-14.053 240.282 240.282 0 0 1 33.507-10.931 266.671 266.671 0 0 1 30.045-5.648c5.5-.715 11.058-1.267 16.656-1.642q6.465-.451 12.989-.57h.672q3.99-.077 7.979 0a371.787 371.787 0 0 1 57.844 5.436c11.96 2 23.818 4.449 35.429 7.145q10.395 2.407 20.6 5.044c2.076.536 4.151 1.08 6.2 1.633 48.419 12.972 91.019 30.887 137.668 45.586.238.077.468.153.706.213a287.386 287.386 0 0 0 29.126 7.316q10.833 2.169 22.117 3.794c11.5 1.7 23.248 3.045 35.081 4.2l2.612.255c17.362 1.7 34.876 2.969 51.889 4.449 6.04.527 12.028 1.072 17.932 1.7q5.614.561 11.126 1.191c2.637.306 5.283.612 7.928.936s5.444.663 8.166 1.012c1.769.221 3.53.451 5.3.7 10.718 1.421 21.411 3.011 31.984 4.832 6.431 1.106 12.828 2.3 19.148 3.581q6.865 1.4 13.61 2.943 5 1.131 9.918 2.382c26.634 6.695 51.557 15.473 73.036 27.323 55.782 30.7 80.74 81.203 62.202 125.759z" class="prefix__cls-1" data-name="Path 104" transform="translate(-32.943 -121.698)"/>
    <circle id="prefix__Ellipse_42" cx="18.399" cy="18.399" r="18.399" class="prefix__cls-1" data-name="Ellipse 42" transform="translate(193.402 40.099)"/>
    <circle id="prefix__Ellipse_43" cx="18.399" cy="18.399" r="18.399" class="prefix__cls-1" data-name="Ellipse 43" transform="translate(569.48)"/>
    <circle id="prefix__Ellipse_44" cx="18.399" cy="18.399" r="18.399" class="prefix__cls-1" data-name="Ellipse 44" transform="translate(792.476 41.205)"/>
    <circle id="prefix__Ellipse_45" cx="30.836" cy="30.836" r="30.836" class="prefix__cls-1" data-name="Ellipse 45" transform="translate(0 72.177)"/>
    <circle id="prefix__Ellipse_46" cx="30.836" cy="30.836" r="30.836" class="prefix__cls-1" data-name="Ellipse 46" transform="translate(29.56 224.442)"/>
    <circle id="prefix__Ellipse_47" cx="30.836" cy="30.836" r="30.836" class="prefix__cls-1" data-name="Ellipse 47" transform="translate(857.168 168.393)"/>
    <path id="prefix__Path_105" d="M380.087 328.57a33.177 33.177 0 0 1-.451 7.741c-1.7 7.9-8.9 13.33-15.864 17.447s-14.623 8.013-18.765 14.963c-4.993 8.4-3.4 19.684 2.458 27.527s15.15 12.513 24.711 14.461c17.438 3.6 36.535-1.455 49.609-13.534s19.633-30.955 16.426-48.487c-7.094 1-13.415-5.266-15.711-12.054s-1.82-14.146-2.714-21.266a7.3 7.3 0 0 0-1.055-3.4c-1-1.378-2.756-1.939-4.4-2.39-8.2-2.254-22-7.188-30.5-5.3-7.648 1.75-3.871 17.861-3.744 24.292z" class="prefix__cls-2" data-name="Path 105" transform="translate(-78.662 -124.969)"/>
    <path id="prefix__Path_106" d="M380.087 328.57a33.177 33.177 0 0 1-.451 7.741c-1.7 7.9-8.9 13.33-15.864 17.447s-14.623 8.013-18.765 14.963c-4.993 8.4-3.4 19.684 2.458 27.527s15.15 12.513 24.711 14.461c17.438 3.6 36.535-1.455 49.609-13.534s19.633-30.955 16.426-48.487c-7.094 1-13.415-5.266-15.711-12.054s-1.82-14.146-2.714-21.266a7.3 7.3 0 0 0-1.055-3.4c-1-1.378-2.756-1.939-4.4-2.39-8.2-2.254-22-7.188-30.5-5.3-7.648 1.75-3.871 17.861-3.744 24.292z" class="prefix__cls-3" data-name="Path 106" transform="translate(-78.662 -124.969)"/>
    <path id="prefix__Path_107" d="M368.057 769.5a170.078 170.078 0 0 1-25.3 10.735 133.941 133.941 0 0 1-14.529 3.709 91.444 91.444 0 0 1 1.063-19.565c.663-3.717 1.642-7.4 1.9-11.169a29.3 29.3 0 0 0-3.36-15.686c9.476-1.293 18.476-3.4 27.995-2.782l.6.043a10.614 10.614 0 0 1 3.318.621 8.957 8.957 0 0 1 3.6 3.164 21.786 21.786 0 0 1 1.353 2.084c2.688 4.645 3.709 10 3.921 15.524a103.259 103.259 0 0 1-.561 13.321z" class="prefix__cls-2" data-name="Path 107" transform="translate(-76.541 -189.308)"/>
    <path id="prefix__Path_108" d="M427.726 750.621q-4.542 1.063-8.915 2.424a158.715 158.715 0 0 0-22.874 9.417 33.761 33.761 0 0 1-.7-7.043 39.334 39.334 0 0 1 30.07-6.184 3.971 3.971 0 0 1 1.905.766 2.551 2.551 0 0 1 .51.621z" class="prefix__cls-2" data-name="Path 108" transform="translate(-86.61 -191.375)"/>
    <path id="prefix__Path_109" d="M429.033 682.7a65.316 65.316 0 0 1-3.4 16.375c-2.135 5.614-5.606 11.058-5.163 17.055.2 2.6 1.08 5.427 1.208 8q-3.675.672-7.256 1.514-4.542 1.063-8.915 2.424a158.716 158.716 0 0 0-22.874 9.417c-1.455.715-2.892 1.438-4.33 2.169-.6-.077-1.182-.17-1.778-.281-4.253-.774-8.728-2.68-11.135-6.082a9.767 9.767 0 0 1-1.285-2.552c-1.387-4.143.06-9.306-2.824-12.59l-.136.119-.1.068a28.574 28.574 0 0 1-5.172 3.726 34.664 34.664 0 0 1-28.071 2.705 30.761 30.761 0 0 1-5.265-2.365c-3.9-2.22-7.656-5.955-7.35-10.412.17-2.484 1.591-4.866 1.208-7.324-.281-1.761-1.438-3.224-2.305-4.781-5.691-10.208 1.1-23.333-2.475-34.426-.085-.264-.179-.527-.272-.783-.264-.723-.561-1.421-.851-2.118-.732-1.625-1.548-3.224-2.195-4.891a28.479 28.479 0 0 1-1.276-4.313 53.984 53.984 0 0 1-.851-12.947c0-11.424 2.042-23.12 4.951-34.128.519-1.956 1.1-4.721 1.863-7.732a59.2 59.2 0 0 1 3.011-9.289c1.7-3.913 4.015-7.035 7.179-7.775 4.764-1.114 12.045 1.242 16.877 1.82l19.1 2.28 38.185 4.568c6.592.791 13.517 1.7 18.952 5.41.357.247.706.5 1.055.774a21.558 21.558 0 0 1 3.828 3.9c.391.5.766 1.029 1.123 1.565a35.406 35.406 0 0 1 3.147 6.006c4.738 11.382 4.849 24.082 4.883 36.408-.007 12.862.036 25.716-1.291 38.486z" class="prefix__cls-4" data-name="Path 109" transform="translate(-73.294 -166.391)"/>
    <path id="prefix__Path_110" d="M363.2 735.292c-1.148-4.423-3.573-10.829-3.93-12.573a159.536 159.536 0 0 1-2.6-17.71c-.944-10.6-2.646-25.519 1.1-35.6 3.513 1.871 6.6 7.171 8.226 10.786 5.886 13.108-.74 29.2 4.789 42.464a6.993 6.993 0 0 1 .757 2.552 6.175 6.175 0 0 1-1.174 3.13l-1.863 3.1z" class="prefix__cls-3" data-name="Path 110" transform="translate(-80.667 -179.567)"/>
    <path id="prefix__Path_111" d="M503.957 256.7c6.261-10.208 14.835-20.245 14.3-32.18-.2-4.253-1.591-8.413-2.654-12.581a80.267 80.267 0 0 1-.587-36.824 41.588 41.588 0 0 1 30.079 6.737c2.782 1.922 5.419 4.313 6.644 7.469 1.131 2.909.944 6.15.74 9.264-.468 7.154-1.106 14.784-5.512 20.415-1.37 1.761-3.054 3.249-4.389 5.027a32.553 32.553 0 0 0-4.2 8.7l-14.461 39.342c-7.3 19.828-15.21 40.567-31.287 54.288-.391.332-11.909-16.026-12.862-17.668-3.853-6.729-2.169-9.57 2.492-15.2 9.193-11.131 14.186-24.563 21.697-36.789z" class="prefix__cls-2" data-name="Path 111" transform="translate(-98.915 -105.663)"/>
    <path id="prefix__Path_112" d="M304.032 665.33a65.341 65.341 0 0 1-.74 8.77c-.153 1.072-.332 2.135-.544 3.2-2.9 15.141-10.123 29.543-15.175 44.293-6.661 19.471-9.587 36.365-11.909 55.7-6.695 0-13.4-.145-20.024-.493h-.2c-2.263-.119-4.534-.255-6.805-.425 2.05-18.034-1.7-36.952 1.965-55 1.48-7.265 4.007-14.316 5.529-21.547a61.006 61.006 0 0 0 1.063-6.448 17.294 17.294 0 0 1 1.25-6.048 4.453 4.453 0 0 1 .289-.519 14.571 14.571 0 0 1 2.994-3.4 74.712 74.712 0 0 1 36.629-17.464c1.927-.27 3.807-.491 5.678-.619z" class="prefix__cls-5" data-name="Path 112" transform="translate(-64.712 -178.958)"/>
    <path id="prefix__Path_113" d="M304.032 665.33a65.341 65.341 0 0 1-.74 8.77c-.153 1.072-.332 2.135-.544 3.2-2.9 15.141-10.123 29.543-15.175 44.293-6.661 19.471-9.587 36.365-11.909 55.7-6.695 0-13.4-.145-20.024-.493h-.2c-2.263-.119-4.534-.255-6.805-.425 2.05-18.034-1.7-36.952 1.965-55 1.48-7.265 4.007-14.316 5.529-21.547a61.006 61.006 0 0 0 1.063-6.448 17.294 17.294 0 0 1 1.25-6.048 4.453 4.453 0 0 1 .289-.519 14.571 14.571 0 0 1 2.994-3.4 74.712 74.712 0 0 1 36.629-17.464c1.927-.27 3.807-.491 5.678-.619z" class="prefix__cls-3" data-name="Path 113" transform="translate(-64.712 -178.958)"/>
    <path id="prefix__Path_114" d="M252.76 705.68a133.3 133.3 0 0 1-1.165 14.129c-2.271 19.148-2.7 39.13-4.253 58.567-2.263-.119-4.534-.255-6.805-.425-10.344-.706-20.654-1.795-30.81-3.284q1.174-6.567 2.365-13.134c.97-5.368 1.939-10.786 1.659-16.23-.264-5.146-1.642-10.157-2.739-15.2-2.339-10.8-3.649-22.457-7.5-32.648a42.532 42.532 0 0 0-9.408-15.312c15.941-6.261 31.261-6.618 48.385-5.954a6.133 6.133 0 0 1 3.471.851 5.869 5.869 0 0 1 1.744 2.637 65.985 65.985 0 0 1 4.789 19.412 63.679 63.679 0 0 1 .267 6.591z" class="prefix__cls-5" data-name="Path 114" transform="translate(-56.568 -180.544)"/>
    <circle id="prefix__Ellipse_48" cx="33.175" cy="33.175" r="33.175" class="prefix__cls-2" data-name="Ellipse 48" transform="translate(291.422 132.862)"/>
    <path id="prefix__Path_115" d="M406.027 376.612c4.253-7.256 7.979-16.315 16.162-18.331 4.619-1.148 9.425.417 13.925 1.956a6.805 6.805 0 0 1 3.4 1.973 6.686 6.686 0 0 1 1.029 3.522 230.574 230.574 0 0 1-.145 45.084c-1.08 10.608-2.9 21.164-3.224 31.823-.451 14.776 1.982 29.551 1.182 44.31-.6 11.186-3.054 22.176-5.487 33.107l-10.204 45.764a7.8 7.8 0 0 1-1.642 3.87 7.656 7.656 0 0 1-3.011 1.7 112.081 112.081 0 0 1-90.7-7.1c-3.683-2.025-7.358-4.364-9.757-7.817-3.4-4.9-3.717-11.382-2.612-17.251s3.5-11.407 5.1-17.166c2.484-8.932 3.071-18.255 3.632-27.51.749-12.181 1.5-24.439.2-36.578-.893-8.362-2.756-16.6-4.16-24.89a274.537 274.537 0 0 1-3.59-37.794c-.213-7.562.136-15.958 5.368-21.411 2.552-2.654 5.955-4.253 9.417-5.546 5.81-2.144 12.3-3.4 18.17-1.446s10.6 8.115 9.213 14.146c-.638 2.8-2.45 5.249-2.892 8.09-.587 3.76 1.4 7.545 4.253 10.089 15.324 13.847 38.725-9.46 46.373-22.594z" class="prefix__cls-6" data-name="Path 115" transform="translate(-74.531 -133.039)"/>
    <path id="prefix__Path_116" d="M418.97 334.561a25.086 25.086 0 0 1 14.538-.851c3.071.732 6.388 2.025 9.221.655 1.029-.493 1.88-1.3 2.918-1.761 2.807-1.233 6.448.281 8.932-1.514 1.565-1.131 2.076-3.19 2.6-5.061a45.382 45.382 0 0 1 15-22.729c-.893 6.524-1.54 13.951 2.773 18.935a18.906 18.906 0 0 0 7.511 4.789c4.007 1.591 8.4 2.645 12.632 1.778s8.183-4.066 8.855-8.328c-.145 6.405-6.244 10.88-7.954 17.064-.646 2.314-.587 4.772-1.038 7.137-1.148 6.04-5.461 10.888-9.229 15.754a112.081 112.081 0 0 0-22.287 53.778 25.945 25.945 0 0 1-1.442 6.805 42.8 42.8 0 0 1-2.824 4.866c-6.235 10.531-4.313 23.818-2.195 35.846 3.309 18.842 6.609 37.3 11.969 55.666.919 3.139 1.956 6.414 4.3 8.7-.74 7.426-8.234 10.812-14.971 14.019a73.444 73.444 0 0 0-18.2 12.326c-1.939 1.786-3.853 3.794-4.559 6.337-.664 2.39-.187 5.019-1.038 7.341s-4.253 3.99-5.75 2.033c-1.871-7 1.327-14.325 1.182-21.572-.1-4.891-1.7-9.646-1.931-14.537-.221-5.538 1.412-10.973 3.147-16.23 4.832-14.64 10.667-29.143 12.343-44.463s-1.455-32.052-12.326-42.983c-12.9-13.032-20.067-30.7-33.9-42.668-2.195-1.9-4.679-4.253-4.313-7.128a7.937 7.937 0 0 1 1.625-3.454c4.747-6.7 11.058-12.173 16.162-18.587s9.179-13.797 8.249-21.963z" class="prefix__cls-4" data-name="Path 116" transform="translate(-86.258 -124.886)"/>
    <path id="prefix__Path_117" d="M360.253 355.852a24.868 24.868 0 0 1-2.424 2.756 8 8 0 0 1-3.819 1.182 123.5 123.5 0 0 1-15.116 1.353c-4.253 0-8.668-.374-12.76.791-5.708 1.616-10.267 6.125-13.125 11.314s-4.211 11.058-5.308 16.9a226.045 226.045 0 0 0-3.87 39.036 102.665 102.665 0 0 0 18.587-19.293c4.083-5.538 7.783-11.662 13.61-15.363 2.68-1.7 5.691-2.824 8.387-4.483 5.623-3.462 9.519-9.059 13.262-14.461 2.756-4.007 10.727-11.832 11.356-16.63.535-4.582-5.803-6.82-8.78-3.102z" class="prefix__cls-4" data-name="Path 117" transform="translate(-72.957 -132.456)"/>
    <path id="prefix__Path_118" d="M398.2 257.057a26.9 26.9 0 0 1 3.011 2.1c5.776 4.032 13.508 3.283 20.492 2.365a15.381 15.381 0 0 0 6.184-1.7c2.952-1.82 4.338-5.563 4.049-9.025a17.967 17.967 0 0 0-4.16-9.357 33.66 33.66 0 0 0-23.265-12.692 14.971 14.971 0 0 0-6.967.74c-2.748 1.131-4.815 3.462-7.35 5.019-7.477 4.593-18.995 2.552-23.818 9.884-3.53 5.41-1.012 12.76-2.68 18.978-1.242 4.645-4.823 8.872-4.134 13.61.383 2.552 1.982 4.781 3.258 7.06a31.2 31.2 0 0 1 3.9 17.209c3.275 2.314 7.843-1.284 8.753-5.18s-.136-8.047.638-11.977c1.37-6.9 7.46-11.96 10.208-18.289 1.981-4.534 5.196-12.19 11.881-8.745z" class="prefix__cls-4" data-name="Path 118" transform="translate(-81.268 -113.732)"/>
    <path id="prefix__Path_119" d="M304.019 346.081c-.255 1.548-.417 3.258.442 4.568 1.7 2.552 5.6 1.633 8.66 2.016 4.772.587 8.294 5.1 9.221 9.85s-.179 9.578-1.387 14.24q-4.1 15.845-9.765 31.245c-10.157-1.2-20.849-5.1-26.242-13.772-4.9-7.885-4.4-17.932-7.511-26.676-2.186-6.159-6.108-11.518-9.987-16.775 6.235.783 10.693-6.346 11.058-12.624s-1.608-12.649-.264-18.782c.315-1.455 24.89 3.13 27.28 4.789 6.908 4.789-.416 15.269-1.505 21.921z" class="prefix__cls-5" data-name="Path 119" transform="translate(-67.523 -127.244)"/>
    <path id="prefix__Path_120" d="M304.019 346.081c-.255 1.548-.417 3.258.442 4.568 1.7 2.552 5.6 1.633 8.66 2.016 4.772.587 8.294 5.1 9.221 9.85s-.179 9.578-1.387 14.24q-4.1 15.845-9.765 31.245c-10.157-1.2-20.849-5.1-26.242-13.772-4.9-7.885-4.4-17.932-7.511-26.676-2.186-6.159-6.108-11.518-9.987-16.775 6.235.783 10.693-6.346 11.058-12.624s-1.608-12.649-.264-18.782c.315-1.455 24.89 3.13 27.28 4.789 6.908 4.789-.416 15.269-1.505 21.921z" class="prefix__cls-3" data-name="Path 120" transform="translate(-67.523 -127.244)"/>
    <circle id="prefix__Ellipse_49" cx="33.175" cy="33.175" r="33.175" class="prefix__cls-5" data-name="Ellipse 49" transform="translate(197.851 142.219)"/>
    <path id="prefix__Path_121" d="M277.658 330.3c1.208-1.888-.851-4.525.094-6.558.561-1.225 1.982-1.752 3.079-2.552a11.475 11.475 0 0 0 3.207-4.16 48.35 48.35 0 0 0 4.423-32.282c-.783-3.675-1.48-8.557 1.88-10.208a6.1 6.1 0 0 1 2.969-.51c6.057.2 11.909 4.253 17.787 2.816a10.208 10.208 0 0 0 7.486-8.906c.383-5.5-3.734-10.208-7.783-13.908-7.29-6.7-18.4-8.192-28.3-8.353l-18.416-.306c-5.895-.1-12.5.085-16.6 4.313-5.9 6.082-2.935 16.035-3.785 24.464a25.519 25.519 0 0 1-9.357 17.14c-3.819 3.045-9.076 5.954-9.008 10.82a17.594 17.594 0 0 0 1.2 4.857c1.88 6.363.085 13.4-3.522 18.969s-8.881 9.859-14.35 13.61c-2.926 2-5.954 3.921-8.268 6.635a19.565 19.565 0 0 0-4.313 11 14.461 14.461 0 0 0 1.8 8.872c3.6 5.75 12.232 6.592 18.144 3.258s9.519-9.646 11.909-15.992c1.429-3.768 2.884-8.081 6.541-9.774 4.628-2.152 10.038 1.25 13.049 5.376s4.866 9.161 8.719 12.513c6.04 5.257 16.315 4.406 21.419-1.769 3.649-4.432 4.457-10.565 4.253-16.307a23.758 23.758 0 0 0-4.253-13.057z" class="prefix__cls-4" data-name="Path 121" transform="translate(-56.848 -116.232)"/>
    <path id="prefix__Path_122" d="M281.141 387.583c-3.785.808-7.741-.978-10.556-3.649s-4.713-6.116-6.686-9.451a166.387 166.387 0 0 0-17.14-23.767c-5.58-6.439-13.347-12.981-21.632-10.99a20.526 20.526 0 0 0-7.554 4.041 55.071 55.071 0 0 0-20.56 49.15c.646 5.419 2.118 10.718 2.731 16.162a103.6 103.6 0 0 1 .357 13.5c-.23 13.712-.7 28.216-8.09 39.768-11.458 17.864-17.591 39.2-26 58.694-4.542 10.539-7.264 21.759-9.936 32.92q-2.373 9.935-4.738 19.862l-10.293 43.3c-1.063 4.466-2.127 9.144-1 13.61 1.7 6.669 7.971 11.331 14.58 13.227s13.61 1.574 20.475 1.633c13.134.128 26.37 1.761 38.7 6.32 3.522 1.3 7.035 2.858 10.786 3.164a25.1 25.1 0 0 0 11-2.033c9.587-3.709 17.8-10.208 26.634-15.456a105.248 105.248 0 0 1 17.353-8.4c3.028-1.131 6.278-2.2 8.362-4.678a15.112 15.112 0 0 0 2.8-6.678c2.875-13.406.944-27.3 0-40.975s-9.119-28.131-2.356-40.057c1.361-2.407 2.986-4.721 3.683-7.392.919-3.488.145-7.239.919-10.761.57-2.6 1.939-4.942 2.875-7.435 1.633-4.389 1.854-9.17 1.837-13.857a152.054 152.054 0 0 0-3.232-30.623c-2.68-12.76 6.184-25.375 11.262-37.428 1.82-4.313 4.4-8.387 5.155-13.006.681-4.168-.2-8.413-.851-12.59a110.159 110.159 0 0 1-1.191-19.565c.162-5.869.783-11.849-.621-17.557s-5.41-11.246-11.169-12.419a4.56 4.56 0 0 0-3.845.6 4.976 4.976 0 0 0-1.353 2.382c-1.871 5.733-1.506 11.909-2.552 17.863s-2.285 11.312-8.154 12.571z" class="prefix__cls-7" data-name="Path 122" transform="translate(-48.422 -130.272)"/>
    <path id="prefix__Path_123" d="M208.693 438.051c.349-2.356-.749-5.487-3.13-5.4-2.195.085-3.173 2.833-3.164 5.036s.306 4.73-1.25 6.278c-1.378 1.37-3.658 1.327-5.257 2.441a4.321 4.321 0 0 0-1.812 3.547c0 1.182.536 2.314.57 3.5s-.757 2.552-1.931 2.475a5.334 5.334 0 0 0 .774 6.465c.612.6 1.412 1.106 1.616 1.939a4.678 4.678 0 0 1-.136 1.744c-.357 2.339 1.259 4.959 3.615 5.214-1.318.944-1.055 3.156.153 4.253a6.653 6.653 0 0 0 4.568 1.31 27.765 27.765 0 0 0 10.727-2.22 6.4 6.4 0 0 0 2.96-2.042 2.552 2.552 0 0 0-.247-3.3c1.65.272 3.632.425 4.713-.851 1.506-1.786-.111-4.432-1.7-6.159a3.4 3.4 0 0 0 1.582-6.057c-.544-.4-1.284-.749-1.361-1.421s.493-1.106.732-1.7c.544-1.336-.7-2.7-1.9-3.5-2.841-1.888-7.026-1.854-9.553-3.76s-.935-5.243-.569-7.792z" class="prefix__cls-2" data-name="Path 123" transform="translate(-56.249 -144.205)"/>
    <path id="prefix__Path_124" d="M414.914 287.259a40.265 40.265 0 0 1-6.2.145 1.353 1.353 0 0 0-1.489 1.174l-3.955 29.67a12.045 12.045 0 0 1-2.552 5.878 12.811 12.811 0 0 0-2.884 9.791v50.4s-.255 6.72 4.908 6.72a74.644 74.644 0 0 0 18.612 0s4.134-.783 4.134-6.984v-49.625a12.139 12.139 0 0 0-2.552-9.867 12.351 12.351 0 0 1-2.475-5.844l-4.109-30.291a1.352 1.352 0 0 0-1.438-1.165z" class="prefix__cls-4" data-name="Path 124" transform="translate(-86.982 -122.49)"/>
    <path id="prefix__Path_125" d="M414.914 287.259a40.265 40.265 0 0 1-6.2.145 1.353 1.353 0 0 0-1.489 1.174l-3.955 29.67a12.045 12.045 0 0 1-2.552 5.878 12.811 12.811 0 0 0-2.884 9.791v50.4s-.255 6.72 4.908 6.72a74.644 74.644 0 0 0 18.612 0s4.134-.783 4.134-6.984v-49.625a12.139 12.139 0 0 0-2.552-9.867 12.351 12.351 0 0 1-2.475-5.844l-4.109-30.291a1.352 1.352 0 0 0-1.438-1.165z" class="prefix__cls-3" data-name="Path 125" transform="translate(-86.982 -122.49)"/>
    <rect id="prefix__Rectangle_57" width="25.068" height="42.388" class="prefix__cls-8" data-name="Rectangle 57" rx="11.05" transform="translate(312.288 212.329)"/>
    <path id="prefix__Path_126" d="M515.835 136.513a39.193 39.193 0 0 1-5.665 2.552 1.361 1.361 0 0 0-.927 1.65l7.775 28.922a12.011 12.011 0 0 1-.068 6.4 12.76 12.76 0 0 0 1.106 10.148l19.412 46.513s2.348 6.295 7.12 4.3a74.119 74.119 0 0 0 17.183-7.2s3.513-2.314 1.131-8.03l-19.114-45.8a12.173 12.173 0 0 0-6.15-8.132 12.377 12.377 0 0 1-4.534-4.432l-15.456-26.37a1.361 1.361 0 0 0-1.813-.521z" class="prefix__cls-4" data-name="Path 126" transform="translate(-103.63 -99.952)"/>
    <rect id="prefix__Rectangle_58" width="25.068" height="42.388" class="prefix__cls-8" data-name="Rectangle 58" rx="11.05" transform="rotate(-22.65 423.965 -995.577)"/>
    <path id="prefix__Path_127" d="M234.4 345.466c-9.144 3.768-12.76 15.49-10.616 25.137s8.6 17.685 14.895 25.332l17.642 21.521c4.874 5.954 10.208 12.224 17.642 14.3 10.871 3.037 21.742-3.887 31.142-10.148a469.133 469.133 0 0 1 89.454-46.581c3.071-1.191 6.218-2.4 8.745-4.525 5.24-4.406 6.712-12.53 3.794-18.714a18.736 18.736 0 0 0-16.562-10.259 22.379 22.379 0 0 0-17.625 9.051c-1.965 2.611-3.4 5.6-5.3 8.251-4.8 6.669-12.283 10.795-19.607 14.521a500.738 500.738 0 0 1-54.441 23.818c-3.4 1.242-7.239 2.424-10.446.783-1.965-1.012-3.292-2.926-4.483-4.8a119.14 119.14 0 0 1-12.845-27.374c-2.322-7.23-4.2-15.107-9.782-20.245-7.911-7.281-22.236-5.538-28.165 3.4 0 0-6.95 10.165-2.7 14.418s9.258-17.886 9.258-17.886z" class="prefix__cls-5" data-name="Path 127" transform="translate(-60.912 -130.517)"/>
    <path id="prefix__Path_128" d="M794.61 302.678c1.242 3.309 1.276 6.933 1.1 10.463-.221 4.3-1.3 9.357-5.3 11-2.6 1.046-5.818.255-8.132 1.837-2.807 1.905-2.671 6.006-2.237 9.357 1.2 9.212 2.552 18.765 7.571 26.557 2.7 4.177 6.346 7.656 10.046 10.982 7.375 6.652 15.465 13.151 25.154 15.371a10.523 10.523 0 0 0 4.849.2 10.038 10.038 0 0 0 4.194-2.552c5.614-5.155 8.506-12.513 12.249-19.182 2.646-4.772 5.8-9.357 7.29-14.614a25.519 25.519 0 0 0-7.809-25.749c-1.659-1.421-3.5-2.611-5.1-4.083-4.2-3.811-6.652-9.281-7.656-14.861a65.03 65.03 0 0 1-.366-17.013 92.569 92.569 0 0 0-25.256 2.033c-3.692.74-8.889 1.08-12.232 2.841-3.767 2.003.605 4.564 1.635 7.413z" class="prefix__cls-5" data-name="Path 128" transform="translate(-144.046 -122.929)"/>
    <path id="prefix__Path_129" d="M794.61 302.678c1.242 3.309 1.276 6.933 1.1 10.463-.221 4.3-1.3 9.357-5.3 11-2.6 1.046-5.818.255-8.132 1.837-2.807 1.905-2.671 6.006-2.237 9.357 1.2 9.212 2.552 18.765 7.571 26.557 2.7 4.177 6.346 7.656 10.046 10.982 7.375 6.652 15.465 13.151 25.154 15.371a10.523 10.523 0 0 0 4.849.2 10.038 10.038 0 0 0 4.194-2.552c5.614-5.155 8.506-12.513 12.249-19.182 2.646-4.772 5.8-9.357 7.29-14.614a25.519 25.519 0 0 0-7.809-25.749c-1.659-1.421-3.5-2.611-5.1-4.083-4.2-3.811-6.652-9.281-7.656-14.861a65.03 65.03 0 0 1-.366-17.013 92.569 92.569 0 0 0-25.256 2.033c-3.692.74-8.889 1.08-12.232 2.841-3.767 2.003.605 4.564 1.635 7.413z" class="prefix__cls-3" data-name="Path 129" transform="translate(-144.046 -122.929)"/>
    <path id="prefix__Path_130" d="M715.322 305.661c-13.814-4.738-20.415-23.248-34.876-25.324-2.28-.332-4.619-.2-6.856-.732-8.328-1.974-11.909-11.6-14.316-19.811-8.115-27.365-18.714-54.143-33.771-78.4-6.354-10.208-16.4-18.6-20.985-29.773-1.055-2.552-1.591-5.461-3.488-7.477s-5.955-2.305-6.984.264a5.954 5.954 0 0 0-.187 2.816l1 10.59-17.3-1.557a10.106 10.106 0 0 0-4.789.34 8.124 8.124 0 0 0-3.768 3.921c-5.852 11 .383 25.409 10.71 32.367 12.062 8.124 29.288 9.357 37.3 21.479 4.764 7.213 4.857 16.494 8 24.55 1.5 3.853 3.683 7.392 5.427 11.126 3.326 7.12 5.027 14.861 7.6 22.278 3.692 10.608 9.161 20.492 14.614 30.317 4.2 7.588 8.506 15.312 14.971 21.113 4.253 3.811 9.255 6.635 14.257 9.357 12.3 6.72 26.8 13.185 39.836 8.03.742-11.622-2.176-24.577-6.395-35.474z" class="prefix__cls-5" data-name="Path 130" transform="translate(-112.224 -100.878)"/>
    <path id="prefix__Path_131" d="M783.086 758.219c-1.046 11.1-7.783 21.156-9.357 31.84-10.378-1.625-20.594-3.717-30.479-6.1-1.216-.289-2.424-.587-3.641-.851 5.6-15.312.723-32.461 2.2-48.767.145-1.565.349-3.13.621-4.679 12.819-4.372 24.4-10.208 37.837-8.506.264 2.722.536 5.453.8 8.175q.808 8.158 1.6 16.3a66.082 66.082 0 0 1 .419 12.588z" class="prefix__cls-5" data-name="Path 131" transform="translate(-138.044 -187.251)"/>
    <path id="prefix__Path_132" d="M887.05 785.933c-5.036 1.531-10.208 2.867-15.609 3.964-.9.187-1.812.366-2.722.536-5.529 1.038-11.126 1.795-16.783 2.314-.578-11.824-8.506-22.7-9.663-34.834a51.16 51.16 0 0 1 .094-9.059c.1-1.191.221-2.382.332-3.573l2.4-24.473a37.739 37.739 0 0 1 5.759-.281c11.058.264 21.122 5.053 32.078 8.787a76.472 76.472 0 0 1 .851 15.618c-.417 13.287-2.552 26.736 2.382 38.926.277.689.584 1.378.881 2.075z" class="prefix__cls-5" data-name="Path 132" transform="translate(-153.354 -187.2)"/>
    <path id="prefix__Path_133" d="M724.28 577.961c1.489 11.6-4.44 22.712-7.009 34.119-1.7 7.545-1.931 15.312-2.161 23.052l-1.344 46.368c-.136 4.636-.255 9.357 1.157 13.806 2.841 8.915 11.594 14.937 20.7 17.081s18.638 1.055 27.918-.17c4.551-.6 9.3-1.31 13.066-3.938 5.18-3.615 7.443-10.055 9.4-16.06l5.521-16.953c6.354 14.308 3.666 29.951 7.477 45.135a8.744 8.744 0 0 0 1.7 3.853c1.608 1.786 4.253 2.067 6.661 2.237 16.673 1.174 33.575 2.339 49.975-.851 4.508-.851 9.212-2.229 12.326-5.614 3.624-3.938 4.253-9.731 4.211-15.082-.23-18.382-6.873-36.118-8.353-54.441-.638-7.851-.323-15.745-.6-23.622a158.16 158.16 0 0 0-1.659-17.693 23.766 23.766 0 0 0-2.178-7.741c-2.552-4.764-7.851-7.35-12.87-9.357-38.992-15.839-81.882-15.69-123.938-14.129z" class="prefix__cls-7" data-name="Path 133" transform="translate(-134.172 -165.808)"/>
    <circle id="prefix__Ellipse_50" cx="36.578" cy="36.578" r="36.578" class="prefix__cls-5" data-name="Ellipse 50" transform="translate(625.725 110.745)"/>
    <path id="prefix__Path_134" d="M828.4 339c-2.714 5.955-6.984 11.909-13.338 13.423-5.844 1.4-12.037-1.412-16.341-5.606s-7.12-9.638-10.106-14.852c-2.178-3.811-4.6-7.656-8.285-10.055-5.036-3.266-11.535-3.181-17.472-2.22s-11.832 2.68-17.864 2.288c-7.511-.5-15.167-4.253-22.253-1.752 2.3 10.276 1.472 21.572 1.208 32.1a14.46 14.46 0 0 1-.681 4.8 15.5 15.5 0 0 1-2.475 3.981l-6.805 8.77c7.3 5.461 13.61 12.59 16.162 21.343 1.438 4.985 1 10.276.944 15.465-.162 15.235 3.147 30.41 2.1 45.611-1.225 17.8-8.336 34.63-12 52.093a136.38 136.38 0 0 0-1.752 45.594c38.126 13.193 77.409 19.948 117.712 22.159 7.12.391 14.81.451 20.654-3.641 4.857-3.4 7.579-9.229 8.506-15.1s.289-11.841-.357-17.744q-2.628-23.946-5.248-47.891c-1-9.085-1.991-18.221-1.344-27.331a152.172 152.172 0 0 1 3.266-20.143l8.506-40.882c1.216-5.81 2.441-11.662 4.849-17.081 1.974-4.423 4.7-8.506 6.882-12.811a56.578 56.578 0 0 0 5.308-16.392 10.863 10.863 0 0 0-.068-5.019c-.91-2.79-3.692-4.466-6.286-5.835a182.624 182.624 0 0 0-50.322-17.65c-1.193 5.01-.963 9.705-3.1 14.378z" class="prefix__cls-6" data-name="Path 134" transform="translate(-134.217 -127.247)"/>
    <path id="prefix__Path_135" d="M835.049 297.594c4.253-8.149 12.207-13.865 16.826-21.828a32.265 32.265 0 0 0 1.038-29.773c-1.625-3.317-3.828-6.363-5.1-9.833-1.421-3.947-1.557-8.294-3.2-12.156-2.254-5.291-7.137-9.1-12.453-11.3s-11.058-2.986-16.783-3.751l-19.327-2.6c-2.8-.374-5.7-.749-8.421 0s-5.257 2.969-5.478 5.793c-.264 3.343 2.671 6.456 1.991 9.74-.247 1.157-.927 2.331-.536 3.454a3.505 3.505 0 0 0 1.7 1.7c4.585 2.552 10.063 2.782 15.031 4.449s9.953 5.852 9.451 11.058c-.272 2.8-2.076 5.708-.851 8.217 1.174 2.322 4.253 2.748 6.712 3.471a17.987 17.987 0 0 1 12.377 19.139c-.357 2.552-1.276 4.993-1.463 7.554-.621 8.966.791 11.526 8.115 16.741z" class="prefix__cls-4" data-name="Path 135" transform="translate(-144.394 -110.342)"/>
    <path id="prefix__Path_136" d="M898.1 354.566a12.409 12.409 0 0 1-.91 4.959c-2.654 5.657-10.778 5.3-16.162 8.506-6.7 4-8.183 12.921-8.8 20.7-.7 8.8-1.174 17.736.629 26.37s6.142 17.055 13.389 22.117c8.821 6.133 20.815 6.346 30.887 2.611s18.484-10.956 25.783-18.85c6.924-7.486 13.125-15.83 16.843-25.332.655-1.7 1.233-3.5.706-5.206-.791-2.552-3.573-3.709-5.835-5.1-5.283-3.19-8.8-8.753-10.633-14.631s-2.135-12.13-2.195-18.3c-.068-6.405-.085-13.406-4.168-18.348s-11.16-6.329-17.608-6.278c-5.274 0-19.871.5-23.469 5.1-2.95 3.827 1.754 16.204 1.543 21.682z" class="prefix__cls-2" data-name="Path 136" transform="translate(-157.758 -128.542)"/>
    <path id="prefix__Path_137" d="M898.1 354.566a12.409 12.409 0 0 1-.91 4.959c-2.654 5.657-10.778 5.3-16.162 8.506-6.7 4-8.183 12.921-8.8 20.7-.7 8.8-1.174 17.736.629 26.37s6.142 17.055 13.389 22.117c8.821 6.133 20.815 6.346 30.887 2.611s18.484-10.956 25.783-18.85c6.924-7.486 13.125-15.83 16.843-25.332.655-1.7 1.233-3.5.706-5.206-.791-2.552-3.573-3.709-5.835-5.1-5.283-3.19-8.8-8.753-10.633-14.631s-2.135-12.13-2.195-18.3c-.068-6.405-.085-13.406-4.168-18.348s-11.16-6.329-17.608-6.278c-5.274 0-19.871.5-23.469 5.1-2.95 3.827 1.754 16.204 1.543 21.682z" class="prefix__cls-3" data-name="Path 137" transform="translate(-157.758 -128.542)"/>
    <path id="prefix__Path_138" d="M848.6 616.581a7.274 7.274 0 0 0 1.769 3.471 7.026 7.026 0 0 0 2.867 1.352c27.918 8.192 57.742 4.925 86.646 1.582-3.955-12.045-7.936-24.226-9.034-36.858-.91-10.42.111-21.266-3.581-31.04-1.089-2.892-64.547 10.42-70.807 11.5-3.207.553-6.9.366-9.17 2.909-2.739 3.079-2.969 10.412-3.258 14.248-.818 11.085 1.468 22.245 4.568 32.836z" class="prefix__cls-2" data-name="Path 138" transform="translate(-153.615 -162.431)"/>
    <path id="prefix__Path_139" d="M913.439 771.81c-5.1 2.365-10.369 4.568-15.822 6.541q-4.423 1.608-9.034 3.011c-5.036 1.531-10.208 2.867-15.609 3.964q-4.619-11.713-9.246-23.435c-2.271-5.75-4.542-11.526-6.439-17.4a108.988 108.988 0 0 1-3.249-12.241 87.32 87.32 0 0 1 2.11-42.337c11.79 2.22 23.316 3.666 34.927 5.35 6.2.851 12.419 1.854 18.714 3.037q.74 6.15 1.344 12.3.919 9.493 1.506 18.986 1.3 21.094.798 42.224z" class="prefix__cls-2" data-name="Path 139" transform="translate(-154.886 -182.629)"/>
    <path id="prefix__Path_140" d="M913.439 771.81c-5.1 2.365-10.369 4.568-15.822 6.541q-4.423 1.608-9.034 3.011c-5.036 1.531-10.208 2.867-15.609 3.964q-4.619-11.713-9.246-23.435c-2.271-5.75-4.542-11.526-6.439-17.4a108.988 108.988 0 0 1-3.249-12.241 87.32 87.32 0 0 1 2.11-42.337c11.79 2.22 23.316 3.666 34.927 5.35 6.2.851 12.419 1.854 18.714 3.037q.74 6.15 1.344 12.3.919 9.493 1.506 18.986 1.3 21.094.798 42.224z" class="prefix__cls-3" data-name="Path 140" transform="translate(-154.886 -182.629)"/>
    <path id="prefix__Path_141" d="M985.676 738.434c.068 4.9-1.327 9.9-2.62 14.708-.094.34-.179.672-.264 1.012a14.019 14.019 0 0 1-7.511-5.631 16.086 16.086 0 0 1-2.016-4.721q-5.776 3.93-11.654 7.784c-12.819 8.421-26.37 16.783-41.35 23.707-5.1 2.365-10.369 4.568-15.822 6.541q-1.7-5.954-3.232-11.986a111 111 0 0 1-2.62-12.581 63.9 63.9 0 0 1 2.824-28.624l.383-1.106a62.567 62.567 0 0 1 5.572-11.73c2.118-3.4 6.312-2.833 10.591-1.7 1.94.5 3.9 1.106 5.691 1.48 11.118 2.331 22.661-.077 34.026.561a40.67 40.67 0 0 1 15.609 3.973c5.47 2.748 9.876 6.95 11.6 12.76a19.027 19.027 0 0 1 .561 2.552 22.576 22.576 0 0 1 .23 3z" class="prefix__cls-2" data-name="Path 141" transform="translate(-161.709 -186.112)"/>
    <path id="prefix__Path_142" d="M739.707 269.244c-17.566-17.013-37.53-31.431-57.954-44.914a159.179 159.179 0 0 1-15.312-10.914c-5.1-4.253-9.553-9.247-14.971-13.074s-12.122-6.456-18.629-5.2-12.292 7.486-11.339 14c.851 5.733 6.005 9.663 10.769 12.955 9.017 6.235 18.076 12.487 27.884 17.379a87.39 87.39 0 0 1 9.893 5.274c6.108 4.117 10.556 10.208 15.175 15.933a221.534 221.534 0 0 0 62.948 53.591c.289.17 10.352-21.547 9.927-24.362-.936-6.471-13.763-16.177-18.391-20.668z" class="prefix__cls-2" data-name="Path 142" transform="translate(-120.388 -108.685)"/>
    <path id="prefix__Path_143" d="M923.087 605.461c-13.559.851-26.566 5.427-39.827 8.345s-27.671 4.049-39.98-1.7l7.486 51.115c.417 2.841.851 5.75.23 8.549-.57 2.671-2.05 5.189-1.922 7.919.2 4.321 4.253 7.358 8.073 9.357a72.177 72.177 0 0 0 36.067 8.311c-.927 3.743-2.084 7.443-3.02 11.186 6.252 6.712 16.477 7.162 25.4 9.289 6.805 1.608 13.185 4.4 19.854 6.363a84.748 84.748 0 0 0 24.847 3.462c5.674-.06 11.688-.851 16.094-4.389 5.419-4.364 7.1-11.781 8.277-18.638a42.394 42.394 0 0 0 .851-11.569c-.442-4.44-2.161-8.643-3.862-12.76L970 652.016c-2.118-5.1-4.253-10.284-6.805-15.209-8.336-15.933-22.168-32.461-40.108-31.346z" class="prefix__cls-4" data-name="Path 143" transform="translate(-153.527 -170.008)"/>
    <path id="prefix__Path_144" d="M919.261 383.151a12.76 12.76 0 0 1 13.355-8.141c3.4.476 6.439 2.339 9.357 4.16l16.247 10.14a70.817 70.817 0 0 1 7.732 5.325c11.2 9.289 15.524 24.558 16.758 39.061s0 29.254 2.884 43.519c-6.856 5.682-14.461 10.488-21.317 16.162-3.59 2.969-7.222 5.955-9.944 9.774-2.161 3-3.7 6.439-5.954 9.357a22.508 22.508 0 0 1-14.912 8.285c3.717 2.161 5.8 6.354 6.805 10.531s1.276 8.506 2.39 12.683c1.531 5.674 4.7 10.854 5.75 16.639.732 3.99.408 8.081.672 12.13 1.327 20.951 17.77 39.266 16.707 60.226a91.326 91.326 0 0 1-21.827-11.475c-3.028-2.169-5.955-4.517-8.821-6.856L913.477 597.1c-10.539-8.506-21.181-17.2-29.56-27.884-5.257-6.7-9.544-14.121-14.818-20.807s-11.764-12.76-19.82-15.567c-1.182 1.778-3.283 3.011-4.466 4.789a3.557 3.557 0 0 0-.493.919 4.023 4.023 0 0 0 .281 2.348 48.881 48.881 0 0 1 1.7 10.54l.536 6.4a21.792 21.792 0 0 1 0 5.1c-.808 5.47-5.878 9.714-11.348 10.565a4.934 4.934 0 0 1-2.39-.077c-1.523-.51-2.365-2.118-2.824-3.649-2.152-7.264 1.148-14.929 1.412-22.491a54.058 54.058 0 0 0-.2-5.75l-.51-7.545c-4.942-1.029-7.783-6.337-9.093-11.211-3.539-13.159-7.1-26.778-5.053-40.252.544-3.607 1.5-7.264.851-10.871-.851-4.823-4.321-8.736-6.15-13.279-5.954-14.81 6.695-30.887 5.521-46.785-.493-6.678-4.73-12.479-7.281-18.672a52.739 52.739 0 0 0-5.1-10.3c-2.6-3.717-6.116-6.695-9.527-9.689a363.85 363.85 0 0 1-29.926-29.483 22.117 22.117 0 0 1-12.887-5.9c-2.246-2.127-4.092-4.934-4.151-8.022s2.22-6.329 5.308-6.49c1.8-.094 3.488.8 5.248 1.191 5.512 1.208 11.058-2.85 13.517-7.945s2.458-10.956 2.416-16.6a15.924 15.924 0 0 1 14.742 5.163c3.8 4.134 6.278 9.289 9.272 14.036a21.752 21.752 0 0 0 4.628 5.589c4.092 3.249 9.987 3.862 13.559 7.656 1.812 1.939 2.816 4.508 4.474 6.584 4.661 5.844 13.193 6.558 19.565 10.4s10.8 10.871 17.864 13.151c2.552.851 5.334.961 7.86 1.905 5.835 2.169 9.4 8.37 10.208 14.538s-.57 12.4-1.965 18.476l-3.277 14.211c-.723 3.147-1.276 6.933 1.046 9.178a9.459 9.459 0 0 0 3.768 1.9c5.954 1.939 12.589 3.845 18.187 1.1a21.511 21.511 0 0 0 6.618-5.784c8.302-9.786 13.823-22.599 18.042-34.635z" class="prefix__cls-8" data-name="Path 144" transform="translate(-139.323 -124.308)"/>
    <path id="prefix__Path_145" d="M1021.839 724.14c-1.174 7.783-5.461 15.439-12.479 19a17.863 17.863 0 0 1-13.517.936 14.019 14.019 0 0 1-7.511-5.631 16.088 16.088 0 0 1-2.016-4.721 1.474 1.474 0 0 0-.059-.264 37.426 37.426 0 0 1-.791-9.161 119.491 119.491 0 0 1 .851-14.282 77.323 77.323 0 0 1 2.348-11.807c1.582-5.521 3.862-10.837 5.955-16.162 1.089-2.807 2.135-5.623 2.994-8.506.519-1.7.961-3.454 1.318-5.223l.128-.638c.068-.357.128-.715.187-1.072.851-4.849 1.1-9.867 3.283-14.248 5.1-10.284 15.039-7.656 16.554 1.829a16.7 16.7 0 0 1 .2 2.22c.23 12-4.534 23.733-2.356 35.778a83.322 83.322 0 0 0 2.314 8.694c.766 2.629 1.455 5.291 1.982 7.988a45.4 45.4 0 0 1 .615 15.27z" class="prefix__cls-2" data-name="Path 145" transform="translate(-174.76 -176.036)"/>
    <path id="prefix__Path_146" d="M1025.27 568.433c.23 4.917 0 9.893.987 14.716 2.305 11.4 11.058 21.487 10.089 33.073-.238 2.824-1.284 5.861-3.751 7.256s-6.55 1.284-7.358 4.092c-.23.783-.111 1.633-.366 2.407-.536 1.65-2.552 2.356-4.253 2.314s-3.4-.6-5.163-.459c-6.167.519-8.43 8.77-13.925 11.6-3.7 1.905-8.506.851-11.56-1.965a14.4 14.4 0 0 1-4.151-11.365c.179-3.139 1.174-6.167 1.7-9.264.961-5.521.459-11.177-.042-16.758-.74-8.175-1.506-16.451-4.194-24.2-1.267-3.658-2.952-7.154-4.049-10.863-1.565-5.248-1.922-10.769-2.084-16.239-.332-11.509.459-23.818 7.333-33.073 5.163-6.941 12.564-12.581 18.408-19 3.658-4.024 4.713-5.283 8.753-1.871 3.326 2.8 6.805 6.661 7.179 10.454 1.021 9.723 0 19.284 1.82 29.186s4.151 19.794 4.627 29.959z" data-name="Path 146" transform="translate(-173.512 -153.796)" style="fill:#2dbfb5"/>
    <circle id="prefix__Ellipse_51" cx="43.383" cy="43.383" r="43.383" class="prefix__cls-2" data-name="Ellipse 51" transform="translate(720.146 140.518)"/>
    <path id="prefix__Path_147" d="M962.926 381.556c.953-1.336 2.084-2.773 3.7-3.054a6.456 6.456 0 0 1 3.522.74l11.424 4.772a37.293 37.293 0 0 0 5.308-16.809c.238-3.649-.051-7.35.647-10.939 1.038-5.325 4.194-10.1 4.925-15.473.578-4.338-.468-8.7-1.1-13.032-1.94-13.372.145-27.016-.97-40.482s-6.516-27.893-18.527-34.077c-3.4-1.7-7.069-2.722-10.608-4.066-7.885-3-14.954-7.809-22.746-11.058s-16.945-4.738-24.5-1-11.952 14.24-7.043 21.1c1.616 2.254 3.981 3.853 6.244 5.478 4.6 3.292 9.3 7.358 10.361 12.921 1.905 10.012-8.506 17.863-11.441 27.654a23.511 23.511 0 0 0-.281 11.73c1.268 5.8 4.364 11.28 4.253 17.217-.085 6.507-3.981 12.4-4.713 18.876-.264 2.373-.1 4.781-.4 7.145a36.872 36.872 0 0 1-2.748 9.042c-6.805 17.013-13.7 34.2-23.818 49.5a65.559 65.559 0 0 0 31.159-7.281 51.5 51.5 0 0 1-7.8 18.323 59.035 59.035 0 0 0 24.38-8.506 79.209 79.209 0 0 1-7.741 18.382c.289-.493 5.64-1.7 6.627-2.263a11.544 11.544 0 0 0 4.679-4.993c2.892-5.172 4.7-11.407 7.375-16.783a244.428 244.428 0 0 1 19.829-33.056z" class="prefix__cls-4" data-name="Path 147" transform="translate(-159.672 -114.666)"/>
    <path id="prefix__Path_148" d="M586.914 101.259a40.271 40.271 0 0 1-6.2.145 1.352 1.352 0 0 0-1.489 1.174l-3.956 29.67a12.045 12.045 0 0 1-2.552 5.878 12.81 12.81 0 0 0-2.884 9.791v50.4s-.255 6.72 4.908 6.72a74.645 74.645 0 0 0 18.612 0s4.134-.783 4.134-6.984v-49.625a12.139 12.139 0 0 0-2.552-9.867 12.351 12.351 0 0 1-2.475-5.844l-4.109-30.291a1.353 1.353 0 0 0-1.437-1.167z" class="prefix__cls-4" data-name="Path 148" transform="translate(-112.672 -94.709)"/>
    <rect id="prefix__Rectangle_59" width="25.068" height="42.388" class="prefix__cls-8" data-name="Rectangle 59" rx="11.05" transform="translate(458.599 54.109)"/>
    <path id="prefix__Path_149" d="M655.914 152.259a40.272 40.272 0 0 1-6.2.145 1.352 1.352 0 0 0-1.489 1.174l-3.956 29.67a12.045 12.045 0 0 1-2.552 5.878 12.81 12.81 0 0 0-2.884 9.791v50.4s-.255 6.72 4.908 6.72a74.642 74.642 0 0 0 18.612 0s4.134-.783 4.134-6.984v-49.625a12.139 12.139 0 0 0-2.552-9.867 12.352 12.352 0 0 1-2.475-5.844l-4.109-30.291a1.353 1.353 0 0 0-1.438-1.165z" class="prefix__cls-4" data-name="Path 149" transform="translate(-122.977 -102.327)"/>
    <rect id="prefix__Rectangle_60" width="25.068" height="42.388" class="prefix__cls-8" data-name="Rectangle 60" rx="11.05" transform="translate(517.293 97.492)"/>
    <g id="prefix__Group_38" data-name="Group 38" transform="translate(416.833 329.358)" style="opacity:.2">
        <path id="prefix__Path_150" d="M578.178 747.651a16.154 16.154 0 0 1-.315 2.731q-8.881-1.412-17.863-2.552v-.73a14.359 14.359 0 0 1 2.127-7.213c1.752-2.773 4.415-4.508 7.35-4.415s5.478 1.991 7.052 4.857a14.35 14.35 0 0 1 1.65 7.324z" class="prefix__cls-4" data-name="Path 150" transform="translate(-528.05 -518.791)"/>
        <ellipse id="prefix__Ellipse_52" cx="11.918" cy="9.102" class="prefix__cls-4" data-name="Ellipse 52" rx="11.918" ry="9.102" transform="rotate(-88.19 132.477 96.305)"/>
        <ellipse id="prefix__Ellipse_53" cx="11.918" cy="9.102" class="prefix__cls-4" data-name="Ellipse 53" rx="11.918" ry="9.102" transform="rotate(-88.19 125.193 88.783)"/>
        <ellipse id="prefix__Ellipse_54" cx="11.918" cy="9.102" class="prefix__cls-4" data-name="Ellipse 54" rx="11.918" ry="9.102" transform="rotate(-88.19 117.906 81.267)"/>
        <ellipse id="prefix__Ellipse_55" cx="11.918" cy="9.102" class="prefix__cls-4" data-name="Ellipse 55" rx="11.918" ry="9.102" transform="rotate(-88.19 110.622 73.745)"/>
        <path id="prefix__Path_151" d="M534.375 550.332a42.235 42.235 0 0 1-3.232-5.1l24.039-3.173-25.877-.621a43.706 43.706 0 0 1 .264-34.57l34.128 19.1-31.261-24.533a43.621 43.621 0 1 1 70.464 51.032 43.216 43.216 0 0 1 4.721 8.107l-31.55 15.141 33.456-10.063a43.672 43.672 0 0 1-8.353 40.754 43.621 43.621 0 1 1-68.528-2.161 43.621 43.621 0 0 1 1.7-53.914z" class="prefix__cls-8" data-name="Path 151" transform="translate(-522.44 -480.747)"/>
        <path id="prefix__Path_152" d="M611.383 597.006a43.383 43.383 0 0 1-10.208 26.659 43.621 43.621 0 1 1-68.528-2.161c-5.588-7.596 78.889-29.389 78.736-24.498z" class="prefix__cls-3" data-name="Path 152" transform="translate(-522.44 -498.005)"/>
    </g>
</svg>
