<svg xmlns="http://www.w3.org/2000/svg" width="563.429" height="470.384" viewBox="0 0 563.429 470.384">
    <defs>
        <linearGradient id="prefix__linear-gradient" x1=".5" x2=".5" y1="1" gradientUnits="objectBoundingBox">
            <stop offset="0" stop-color="gray" stop-opacity=".251"/>
            <stop offset=".54" stop-color="gray" stop-opacity=".122"/>
            <stop offset="1" stop-color="gray" stop-opacity=".102"/>
        </linearGradient>
        <style>
            .prefix__cls-2,.prefix__cls-5,.prefix__cls-6{fill:#32d5c9}.prefix__cls-10,.prefix__cls-2,.prefix__cls-7{opacity:.1}.prefix__cls-3{fill:none;stroke:#535461;stroke-miterlimit:10;stroke-width:2px}.prefix__cls-4,.prefix__cls-7{fill:#6c63ff}.prefix__cls-5{opacity:.25}.prefix__cls-8{fill:#b77b7f}.prefix__cls-9{fill:#dda2a6}.prefix__cls-13{fill:#67647e}.prefix__cls-15{fill:#efb7b9}.prefix__cls-16{fill:#a36468}.prefix__cls-19{fill:#ffd037}.prefix__cls-21{fill:#9d9cb5}
        </style>
    </defs>
    <g id="prefix__Group_48" data-name="Group 48" transform="translate(0 .003)" style="opacity:.5">
        <path id="prefix__Path_153" d="M308.451 49.737c16.475-14.665 42.335-17.671 65.878-16.5 73.938 3.675 140.678 39.363 198.411 79.744 20.9 14.614 41.478 30.367 55.043 50.5 27.637 40.976 19.425 97.739-18.974 131.5-13.068 11.483-28.906 20.3-45.167 28.094-28.912 13.875-60.108 25.014-92.922 28.2-23.4 2.256-47.084.423-70.35-2.73-64.992-8.833-128.777-28.325-182.263-61.67-23.452-14.625-45.556-32.809-55.223-56.458s-3.48-53.655 20.468-67.683c9.9-5.793 21.749-8.41 33.339-10.869 17.067-3.615 34.405-7.18 49.8-14.529 15.911-7.592 34.744-22.273 31.585-39.081C294.718 80.24 292 64.4 308.451 49.737z" class="prefix__cls-2" data-name="Path 153" transform="translate(-125.805 -33.01)"/>
        <path id="prefix__Path_154" d="M785.47 655.163s14.134-25.037 35.415-32.251a43.565 43.565 0 0 0 22.064-16.5 73.048 73.048 0 0 0 6.509-11.709" class="prefix__cls-3" data-name="Path 154" transform="translate(-399.144 -277.897)"/>
        <path id="prefix__Path_155" d="M912.053 578.365c-2.425 2.358-13.723 4.789-13.723 4.789s2.769-11.218 5.195-13.57a6.121 6.121 0 0 1 8.528 8.782z" class="prefix__cls-4" data-name="Path 155" transform="translate(-448.348 -266.192)"/>
        <path id="prefix__Path_156" d="M900.431 613.106c-3.317.66-14.1-3.435-14.1-3.435s8.427-7.9 11.737-8.573a6.121 6.121 0 1 1 2.386 12.008z" class="prefix__cls-4" data-name="Path 156" transform="translate(-443.117 -280.634)"/>
        <path id="prefix__Path_157" d="M862 652.269c-3.2-1.128-10.457-10.1-10.457-10.1S862.82 639.6 866 640.707a6.12 6.12 0 1 1-4 11.562z" class="prefix__cls-4" data-name="Path 157" transform="translate(-427.949 -297.834)"/>
        <path id="prefix__Path_158" d="M822.948 674.489c-3.333-.564-12.008-8.184-12.008-8.184s10.666-4.444 14-3.892a6.119 6.119 0 1 1-1.991 12.076z" class="prefix__cls-4" data-name="Path 158" transform="translate(-410.248 -307.397)"/>
        <path id="prefix__Path_159" d="M869.59 596.124c0 3.384 6.114 13.181 6.114 13.181s6.125-9.8 6.125-13.176a6.12 6.12 0 0 0-12.239 0z" class="prefix__cls-4" data-name="Path 159" transform="translate(-435.818 -275.852)"/>
        <path id="prefix__Path_160" d="M825.442 621.5c1.015 3.226 9.78 10.75 9.78 10.75s2.91-11.185 1.9-14.411a6.121 6.121 0 0 0-11.681 3.661z" class="prefix__cls-4" data-name="Path 160" transform="translate(-416.448 -286.115)"/>
        <path id="prefix__Path_161" d="M786.5 654.188c.451 3.35 7.823 12.25 7.823 12.25s4.76-10.53 4.309-13.881a6.121 6.121 0 1 0-12.132 1.63z" class="prefix__cls-4" data-name="Path 161" transform="translate(-399.568 -300.808)"/>
        <path id="prefix__Path_162" d="M912.053 578.365c-2.425 2.358-13.723 4.789-13.723 4.789s2.769-11.218 5.195-13.57a6.121 6.121 0 0 1 8.528 8.782z" class="prefix__cls-5" data-name="Path 162" transform="translate(-448.348 -266.192)"/>
        <path id="prefix__Path_163" d="M900.431 613.106c-3.317.66-14.1-3.435-14.1-3.435s8.427-7.9 11.737-8.573a6.121 6.121 0 1 1 2.386 12.008z" class="prefix__cls-5" data-name="Path 163" transform="translate(-443.117 -280.634)"/>
        <path id="prefix__Path_164" d="M862 652.269c-3.2-1.128-10.457-10.1-10.457-10.1S862.82 639.6 866 640.707a6.12 6.12 0 1 1-4 11.562z" class="prefix__cls-5" data-name="Path 164" transform="translate(-427.949 -297.834)"/>
        <path id="prefix__Path_165" d="M822.948 674.489c-3.333-.564-12.008-8.184-12.008-8.184s10.666-4.444 14-3.892a6.119 6.119 0 1 1-1.991 12.076z" class="prefix__cls-5" data-name="Path 165" transform="translate(-410.248 -307.397)"/>
        <path id="prefix__Path_166" d="M869.59 596.124c0 3.384 6.114 13.181 6.114 13.181s6.125-9.8 6.125-13.176a6.12 6.12 0 0 0-12.239 0z" class="prefix__cls-5" data-name="Path 166" transform="translate(-435.818 -275.852)"/>
        <path id="prefix__Path_167" d="M825.442 621.5c1.015 3.226 9.78 10.75 9.78 10.75s2.91-11.185 1.9-14.411a6.121 6.121 0 0 0-11.681 3.661z" class="prefix__cls-5" data-name="Path 167" transform="translate(-416.448 -286.115)"/>
        <path id="prefix__Path_168" d="M786.5 654.188c.451 3.35 7.823 12.25 7.823 12.25s4.76-10.53 4.309-13.881a6.121 6.121 0 1 0-12.132 1.63z" class="prefix__cls-5" data-name="Path 168" transform="translate(-399.568 -300.808)"/>
        <path id="prefix__Path_169" d="M786.91 638.219s2.775-28.618 19.312-43.836A43.565 43.565 0 0 0 819.7 570.35a72.83 72.83 0 0 0 1.209-13.35" class="prefix__cls-3" data-name="Path 169" transform="translate(-399.772 -261.46)"/>
        <path id="prefix__Path_170" d="M856.466 533.31c-1.263 3.136-10.6 9.938-10.6 9.938s-2.008-11.382-.745-14.512a6.12 6.12 0 1 1 11.348 4.574z" class="prefix__cls-6" data-name="Path 170" transform="translate(-424.967 -247.404)"/>
        <path id="prefix__Path_171" d="M858.734 568.809c-2.764 1.946-14.3 2.578-14.3 2.578s4.512-10.643 7.259-12.589a6.121 6.121 0 0 1 7.045 10.011z" class="prefix__cls-6" data-name="Path 171" transform="translate(-424.849 -261.758)"/>
        <path id="prefix__Path_172" d="M837.309 620.283c-3.384.282-13.649-5-13.649-5s9.256-6.915 12.6-7.2a6.121 6.121 0 1 1 1.027 12.2z" class="prefix__cls-6" data-name="Path 172" transform="translate(-415.794 -283.722)"/>
        <path id="prefix__Path_173" d="M811.3 656.267c-3.271.846-14.292-2.617-14.292-2.617s7.947-8.387 11.218-9.233a6.119 6.119 0 1 1 3.074 11.846z" class="prefix__cls-6" data-name="Path 173" transform="translate(-404.175 -299.486)"/>
        <path id="prefix__Path_174" d="M822.463 567.9c1.365 3.091 10.931 9.588 10.931 9.588s1.63-11.438.259-14.529a6.119 6.119 0 1 0-11.191 4.953z" class="prefix__cls-6" data-name="Path 174" transform="translate(-415.043 -262.47)"/>
        <path id="prefix__Path_175" d="M792.393 609c2.228 2.538 13.294 5.866 13.294 5.866s-1.867-11.4-4.1-13.943a6.119 6.119 0 1 0-9.195 8.077z" class="prefix__cls-6" data-name="Path 175" transform="translate(-401.498 -279.702)"/>
        <path id="prefix__Path_176" d="M770.025 654.662c1.771 2.882 12.115 8.026 12.115 8.026s.085-11.551-1.692-14.433a6.12 6.12 0 1 0-10.429 6.407z" class="prefix__cls-6" data-name="Path 176" transform="translate(-392.013 -299.974)"/>
        <ellipse id="prefix__Ellipse_58" cx="67.051" cy="11.241" class="prefix__cls-7" data-name="Ellipse 58" rx="67.051" ry="11.241" transform="translate(143.989 447.899)"/>
        <ellipse id="prefix__Ellipse_59" cx="67.051" cy="11.241" class="prefix__cls-7" data-name="Ellipse 59" rx="67.051" ry="11.241" transform="translate(275.964 361.609)"/>
        <path id="prefix__Path_177" d="M608.1 397.768l-.062 2.194-3.813 134.53h-6.405l3.142-134.53.062-2.532z" class="prefix__cls-8" data-name="Path 177" transform="translate(-260.637 -173.273)"/>
        <path id="prefix__Path_178" d="M620.046 595.137l-4.8-.011-71.315-.152-3.8-.006 2.025-6.238h77.384z" class="prefix__cls-9" data-name="Path 178" transform="translate(-235.485 -256.675)"/>
        <path id="prefix__Path_179" d="M610.531 397.768l-.062 2.194h-7.079l.062-2.532z" class="prefix__cls-10" data-name="Path 179" transform="translate(-263.065 -173.273)"/>
        <path id="prefix__Rectangle_63" d="M0 0H11.884V4.473H0z" class="prefix__cls-8" data-name="Rectangle 63" transform="translate(338.283 221.207)"/>
        <path id="prefix__Path_180" d="M544.563 588.73l-.632 6.244-3.8-.006 2.025-6.238z" class="prefix__cls-10" data-name="Path 180" transform="translate(-235.485 -256.675)"/>
        <path id="prefix__Path_181" d="M548.156 392.05l-.2 1.94-15.818 156.031-7.248-.344 16.673-155.687.186-1.771z" class="prefix__cls-9" data-name="Path 181" transform="translate(-228.841 -170.927)"/>
        <path id="prefix__Path_182" d="M677.608 595.137l-4.8-.011-.649-6.4h4.941z" class="prefix__cls-10" data-name="Path 182" transform="translate(-293.048 -256.675)"/>
        <path id="prefix__Path_183" d="M677.286 549.677l-7.253.344-15.816-156.031-.2-1.94 6.4.169.186 1.771z" class="prefix__cls-9" data-name="Path 183" transform="translate(-285.139 -170.927)"/>
        <path id="prefix__Rectangle_64" d="M0 0H159.821V153.244H0z" data-name="Rectangle 64" transform="translate(263.172 67.286)" style="fill:#fff"/>
        <path id="prefix__Path_184" d="M709.51 58.927v37.005h-6.232V58.927a3.119 3.119 0 1 1 6.232 0z" class="prefix__cls-9" data-name="Path 184" transform="translate(-363.309 -42.893)"/>
        <path id="prefix__Rectangle_65" d="M0 0H6.238V3.367H0z" class="prefix__cls-10" data-name="Rectangle 65" transform="translate(339.964 49.672)"/>
        <path id="prefix__Path_185" d="M710.094 124.387V136.6H699v-12.213a1.512 1.512 0 0 1 1.517-1.517h8.071a1.517 1.517 0 0 1 1.506 1.517z" class="prefix__cls-9" data-name="Path 185" transform="translate(-361.445 -72.189)"/>
        <circle id="prefix__Ellipse_60" cx="2.358" cy="2.358" r="2.358" class="prefix__cls-10" data-name="Ellipse 60" transform="translate(340.725 56.079)"/>
        <circle id="prefix__Ellipse_61" cx="2.358" cy="2.358" r="2.358" class="prefix__cls-8" data-name="Ellipse 61" transform="translate(340.725 55.571)"/>
        <path id="prefix__Rectangle_66" d="M0 0H11.128V1.517H0z" class="prefix__cls-10" data-name="Rectangle 66" transform="translate(337.521 62.904)"/>
        <path id="prefix__Rectangle_67" d="M0 0H20.231V3.373H0z" class="prefix__cls-10" data-name="Rectangle 67" transform="translate(332.97 64.929)"/>
        <path id="prefix__Rectangle_68" d="M0 0H20.231V3.373H0z" class="prefix__cls-9" data-name="Rectangle 68" transform="translate(332.97 63.913)"/>
        <path id="prefix__Path_186" d="M532.886 384h84.97a3.666 3.666 0 0 1 3.666 3.666v.8h-92.3v-.8a3.666 3.666 0 0 1 3.664-3.666z" class="prefix__cls-10" data-name="Path 186" transform="translate(-230.729 -167.417)"/>
        <path id="prefix__Path_187" d="M554.636 392.219l6.407-.169-.2 1.94h-6.4z" class="prefix__cls-10" data-name="Path 187" transform="translate(-241.729 -170.927)"/>
        <path id="prefix__Rectangle_69" d="M0 0H11.884V1.856H0z" class="prefix__cls-10" data-name="Rectangle 69" transform="translate(338.283 221.207)"/>
        <path id="prefix__Path_188" d="M660.608 393.99h-6.39l-.2-1.94 6.4.169z" class="prefix__cls-10" data-name="Path 188" transform="translate(-285.139 -170.927)"/>
        <path id="prefix__Path_189" d="M532.886 385.77h84.97a3.666 3.666 0 0 1 3.666 3.666v.8h-92.3v-.8a3.666 3.666 0 0 1 3.664-3.666z" class="prefix__cls-9" data-name="Path 189" transform="translate(-230.729 -168.189)"/>
        <path id="prefix__Path_190" d="M508.229 239.791c-1.28-.677-15.229-11.213-15.229-11.213L470.49 214.3s-.118-.338-.333-.919c6.176-7.011 4.828-17.186-1.455-24.338-7.614-8.675-42.02-27.349-52.386-11.376-1.45 2.256-1.5 4.817-1.878 7.3a30.313 30.313 0 0 1-8.218 16.133c-3.452 3.649-7.981 7.011-9.966 11.139a.667.667 0 0 0-.056-.158 10.357 10.357 0 0 0-1.032 2.82c-.987 5.037 2.4 9.865 4.2 14.766a26.79 26.79 0 0 1 1.309 5.121c.045-.35.085-.694.124-1.043a32.75 32.75 0 0 1 .446 7.535c-12.493 2.544-12.5 23.914-12.5 23.914s-1.54 8.494-1.28 11.557.254 9.684.254 11.28-1.54 11.551-1.692 12.747a.288.288 0 0 1 0 .051c-.226 1.309-2.566 7.614 3.091 9.024.395.1.812.186 1.246.265.243 5.1.682 15.793.293 18.173 0 0 2.059 14.36 3.768 18.009a41.423 41.423 0 0 0 3.779 6.1 6.723 6.723 0 0 1-.869 2.476c-.874 1.258-.423 2.29 1.038 2.736-.051.434-.107.925-.169 1.478-.626 5.539-1.562 16.548.028 22.127 2.183 7.648 2.313 10.2 2.313 10.2a7.436 7.436 0 0 0 .9 3.565c.9 1.275 2.566 13.13 2.566 15.042s4.366 19.115 3.08 23.193-.254 9.814-.254 9.814-.773 10.068-1.692 12.234-1.286 37.084.124 46.131 2.313 16.565 2.313 16.565-.9 8.285-.13 9.43 2.183 8.032 1.156 8.409-1.54 3.187-1.54 3.187a28.425 28.425 0 0 0 1.754 2.386 9.6 9.6 0 0 1-1.156-.491c.406.564 1.015 1.365 1.765 2.256l-.705 9.165a1.534 1.534 0 0 0 1.128 1.607 12.9 12.9 0 0 0 12.758-3.587c6.419-6.5 8.6-5.606 9.758-9.555.124-.423.231-.84.322-1.235a4.163 4.163 0 0 0-5.905-4.636 29.87 29.87 0 0 0 .423-7.738c-.643-3.694-.513-13.379-.513-13.379l-.9-46.391s1.664-9.177 3.593-12.741 1.692-16.058 1.692-16.058l2.183-41.038 2.053-20.006s2.053-6.881 4.619.767c0 0-1.41 15.415-.767 19.115s1.54 21.664.9 25.612-3.463 25.618-1.692 31.094 3.745 12.115 3.35 14.287-1.692 49.188-1.692 49.188 3.469 9.024.9 11.98-.13 14.665-.13 14.665.31.22.84.525l-.073.976-.807 10.542a1.545 1.545 0 0 0 1.128 1.613 12.894 12.894 0 0 0 12.758-3.587c6.419-6.5 8.6-5.606 9.758-9.56.124-.423.231-.835.327-1.235a4.172 4.172 0 0 0-6.723-4.117l-.152.13a5.3 5.3 0 0 1-.5.378 2.432 2.432 0 0 1-.254.164c.643-2.91 1.579-7.9 1.128-10.231-.643-3.441.637-13.886.637-13.886s3.723-12.493 3.852-17.485l1.026-39.758s-.124-16.187.389-20.136 4.619-38.105 8.725-48.3c3.153-7.806 4.563-27.727 3.728-37.829-.045-.5-.09-.976-.147-1.421a14.9 14.9 0 0 0 5.539-9.9s-4.625-8.833-9.075-12.572-5.409-10.169-5.251-12.9a6.7 6.7 0 0 0-1.54-4.585s-2.053-6.627-3.424-7.3a1.071 1.071 0 0 1-.3-.226c-.931-1-.214-3.852-.214-3.852v-.09c.164-.66 1.128-4.935.84-6.029-.344-1.184.169-6.8.169-6.8s3.254-9.684 2.741-17.332 6.678-6.966 6.678-6.966l22.206-.231h2.527a17.787 17.787 0 0 0 2.431-2.516c4.23-.5 12.786-2.1 13.745-6.768 1.304-6.207-4.003-12.496-5.289-13.179zM405.351 310.5l.152-3.886c.525.451.874.739.874.739a6.08 6.08 0 0 1 .039 3.113 3.322 3.322 0 0 1-1.923 2.155 2.338 2.338 0 0 0-.31.164l-.214-2.194zm80.542-68.247c-.942-.423-4.112-.338-5.742-.338a12.773 12.773 0 0 1-4.275-1.359c-.564-1.1-3.683-1.754-6.458-2.126-2.109-5.2-5.076-10.271-5.477-15.691a4.165 4.165 0 0 0-.028-.592l.321.564s12.927 8.246 14.383 10.716c1.128 1.884 6.56 6.091 9.075 7.975a2.589 2.589 0 0 1-1.382.925.761.761 0 0 1-.417-.077z" data-name="Path 190" transform="translate(-224.701 -93.356)"/>
        <path id="prefix__Path_191" d="M507.514 827.342c-.1.395-.2.807-.322 1.224-1.128 3.948-3.288 3.034-9.588 9.481a12.623 12.623 0 0 1-12.561 3.565 1.523 1.523 0 0 1-1.128-1.6l.8-10.457.378-5.031s10.062 2.82 15.183-.761a6.06 6.06 0 0 0 .5-.378 1.566 1.566 0 0 0 .113-.113 4.112 4.112 0 0 1 6.633 4.072z" class="prefix__cls-13" data-name="Path 191" transform="translate(-267.67 -377.136)"/>
        <path id="prefix__Path_192" d="M451.514 820.342c-.1.395-.2.807-.322 1.224-1.128 3.948-3.288 3.034-9.588 9.481a12.623 12.623 0 0 1-12.561 3.565 1.523 1.523 0 0 1-1.128-1.6l.8-10.457.378-5.031s10.062 2.82 15.183-.761a6.094 6.094 0 0 0 .5-.378 1.56 1.56 0 0 0 .113-.113 4.112 4.112 0 0 1 6.633 4.072z" class="prefix__cls-13" data-name="Path 192" transform="translate(-243.255 -374.085)"/>
        <path id="prefix__Path_193" d="M440.308 826.843l.406 5.437c-5.776 5.77-12.651-2.82-14.665-5.64 5.297 2.73 14.259.203 14.259.203z" class="prefix__cls-10" data-name="Path 193" transform="translate(-242.444 -379.018)"/>
        <path id="prefix__Path_194" d="M500.084 828.282l.756-.5c-5.274 8.02-13.108 4.32-15.55 2.882l.378-5.031s10.062 2.82 15.183-.761c-.4 1.961-.767 3.41-.767 3.41z" class="prefix__cls-10" data-name="Path 194" transform="translate(-268.272 -378.246)"/>
        <path id="prefix__Path_195" d="M482.489 527.861c-4.05 10.113-8.094 43.994-8.6 47.942s-.378 19.978-.378 19.978l-1.017 39.419c-.13 4.935-3.8 17.327-3.8 17.327s-1.263 10.367-.632 13.779-1.641 12.408-1.641 12.408l.756-.508c-6.323 9.588-16.311 2.4-16.311 2.4s-2.4-11.63.13-14.541-.885-11.884-.885-11.884 1.263-46.656 1.641-48.8-1.517-8.725-3.288-14.163 1.015-26.932 1.647-30.852-.254-21.749-.886-25.415.756-18.968.756-18.968c-2.527-7.586-4.552-.756-4.552-.756l-2.025 19.848-2.149 40.717s.254 12.408-1.641 15.934-3.542 12.64-3.542 12.64l.886 46.03s-.124 9.588.508 13.271-1.393 13.153-1.393 13.153c-7.078 16.678-18.449-1.4-18.449-1.4s.508-2.781 1.517-3.159-.378-7.208-1.128-8.348.124-9.357.124-9.357-.886-7.456-2.256-16.436-1.01-43.621-.124-45.77 1.641-12.138 1.641-12.138-1.01-5.691.254-9.741-3.034-21.111-3.034-23.012-1.641-13.655-2.527-14.918a7.46 7.46 0 0 1-.885-3.542s-.124-2.527-2.256-10.113c-1.568-5.539-.643-16.458-.028-21.957.22-2.036.412-3.333.412-3.333s72.516-11.76 75.41-9.1c.677.626 1.128 2.775 1.393 5.838.863 10.009-.557 29.806-3.648 37.527z" data-name="Path 195" transform="translate(-234.613 -229.676)" style="fill:#444053"/>
        <path id="prefix__Path_196" d="M491.34 662.333c.338 0 8.348.677 11.28.085s-11.28-.085-11.28-.085z" class="prefix__cls-10" data-name="Path 196" transform="translate(-270.909 -307.295)"/>
        <path id="prefix__Path_197" d="M492.39 670.859s11.06 1.94 11.624.931-11.624-.931-11.624-.931z" class="prefix__cls-10" data-name="Path 197" transform="translate(-271.367 -311.1)"/>
        <path id="prefix__Path_198" d="M432.46 667.27s5.73.254 8.849 1.692-8.849-1.692-8.849-1.692z" class="prefix__cls-10" data-name="Path 198" transform="translate(-245.239 -309.536)"/>
        <path id="prefix__Path_199" d="M395.54 415.769s.925 17.614.423 20.733c0 0 2.019 14.247 3.706 17.868a51.642 51.642 0 0 0 5.313 8.178l4.975-34.969-1.184-11.98z" class="prefix__cls-15" data-name="Path 199" transform="translate(-229.143 -199.813)"/>
        <circle id="prefix__Ellipse_62" cx="19.47" cy="19.47" r="19.47" class="prefix__cls-15" data-name="Ellipse 62" transform="translate(199.19 96.768)"/>
        <path id="prefix__Path_200" d="M460.429 254.708s-6.069 11.89-12.138 17.451 36.413 11.884 37.423 11.884-7.586-25.285-6.069-28.336-19.216-.999-19.216-.999z" class="prefix__cls-15" data-name="Path 200" transform="translate(-251.883 -129.372)"/>
        <path id="prefix__Path_201" d="M486.73 490.326a12.651 12.651 0 0 1-3.125 1.748c-7.75 3.034-16.182 7.248-21.912 5.567s-17.868 0-17.868 0-24.45-2.025-29.329-.846a9.559 9.559 0 0 1-5.076.13c.22-2.036.412-3.333.412-3.333s72.6-11.76 75.494-9.1c.688.622 1.128 2.771 1.404 5.834z" class="prefix__cls-10" data-name="Path 201" transform="translate(-235.194 -229.676)"/>
        <path id="prefix__Path_202" d="M484.879 389.995s-.671 8.432-8.432 11.467-16.182 7.248-21.912 5.567-17.868 0-17.868 0-24.45-2.025-29.329-.846-7.423-.333-5.905-2.527 1.354-9.442 1.354-12.476-1.692-15.341-.175-17.535 2.865-10.62 5.9-11.974a3.305 3.305 0 0 0 1.9-2.138 6.114 6.114 0 0 0-.039-3.085s-.513-.423-1.218-1.049c-1.788-1.6-4.811-4.557-3.841-5.527 1.348-1.354 0-10.119 0-10.119s-3.2-6.74-2.019-9.267S393 314.636 393 314.636s0-22.922 13.824-23.937c0 0 9.78.338 10.959-4.044s8.934-6.915 8.934-6.915l17.7 3.88s15.683 3.38 18.55 1.348 5.076 2.7 5.076 2.7 9.775.508 10.784 2.532-3.2 21.743-3.2 21.743-7.084-.671-6.577 6.915-2.73 17.2-2.73 17.2-.508 5.561-.169 6.74c.316 1.089-.666 5.33-.823 5.984v.085s-.705 2.82.209 3.824a1.128 1.128 0 0 0 .293.226c1.354.671 3.384 7.248 3.384 7.248a6.672 6.672 0 0 1 1.517 4.552c-.164 2.7.846 9.1 5.229 12.815s8.919 12.463 8.919 12.463z" class="prefix__cls-16" data-name="Path 202" transform="translate(-228.035 -140.581)"/>
        <path id="prefix__Path_203" d="M407.088 376.89v.716l-.3 7.9s-10.372.84-16.018-.564-3.271-7.671-3.046-8.968a.207.207 0 0 0 0-.051c.164-1.185 1.692-11.044 1.692-12.645s0-8.178-.254-11.213 1.241-11.489 1.241-11.489l1.094-1.342 11.878 4.552z" class="prefix__cls-16" data-name="Path 203" transform="translate(-225.434 -166.517)"/>
        <path id="prefix__Path_204" d="M407.038 406.036l-.3 7.9s-10.372.84-16.018-.564-3.271-7.671-3.046-8.968z" class="prefix__cls-10" data-name="Path 204" transform="translate(-225.412 -194.93)"/>
        <path id="prefix__Path_205" d="M422.888 412.9a6.114 6.114 0 0 0-.04-3.085s-.513-.423-1.218-1.049c8.928-1.247 44.287-6.1 56.193-6.627v.085s-.705 2.82.209 3.824z" class="prefix__cls-10" data-name="Path 205" transform="translate(-240.517 -193.944)"/>
        <path id="prefix__Path_206" d="M518.994 432s2.194 12.408-5.984 16.774c-.01.026 4.636-6.131 5.984-16.774z" class="prefix__cls-10" data-name="Path 206" transform="translate(-280.357 -206.963)"/>
        <path id="prefix__Path_207" d="M428.72 461.013s19.741-3.384 23.6-.756-23.6.756-23.6.756z" class="prefix__cls-10" data-name="Path 207" transform="translate(-243.608 -218.846)"/>
        <path id="prefix__Path_208" d="M510.279 326.22s-3.034 12.476-.761 15.341.761-15.341.761-15.341z" class="prefix__cls-10" data-name="Path 208" transform="translate(-278.466 -160.845)"/>
        <path id="prefix__Path_209" d="M410.112 308.14s2.781 4.636 1.094 9.442-1.094-9.442-1.094-9.442z" class="prefix__cls-10" data-name="Path 209" transform="translate(-235.452 -152.962)"/>
        <path id="prefix__Path_210" d="M400 380.18s3.542 2.1 2.363 5.392S400 380.18 400 380.18z" class="prefix__cls-10" data-name="Path 210" transform="translate(-231.087 -184.37)"/>
        <path id="prefix__Path_211" d="M399.43 363.14s3.283 1.771 3.706 4.382-3.706-4.382-3.706-4.382z" class="prefix__cls-10" data-name="Path 211" transform="translate(-230.839 -176.941)"/>
        <path id="prefix__Path_212" d="M485.81 539.731s20.654 2.109 24.783-2.781c0 .028-18.629 3.711-24.783 2.781z" class="prefix__cls-10" data-name="Path 212" transform="translate(-268.498 -252.719)"/>
        <path id="prefix__Path_213" d="M422.59 539.79s22.172 5.229 26.554 1.094c0 0-19.053 1.433-26.554-1.094z" class="prefix__cls-10" data-name="Path 213" transform="translate(-240.936 -253.957)"/>
        <path id="prefix__Path_214" d="M488.65 554s9.273 0 13.57.254-13.57-.254-13.57-.254z" class="prefix__cls-10" data-name="Path 214" transform="translate(-269.737 -260.152)"/>
        <path id="prefix__Path_215" d="M425.28 561s4.552 5.144 9.7 4.219-9.7-4.219-9.7-4.219z" class="prefix__cls-10" data-name="Path 215" transform="translate(-242.109 -263.204)"/>
        <path id="prefix__Path_216" d="M425.087 182.86c-1.427 2.217-1.478 4.783-1.85 7.242a30.179 30.179 0 0 1-8.088 16.007c-4.044 4.3-9.588 8.2-10.637 13.446-.993 4.986 2.375 9.786 4.14 14.665 4.653 12.8-1.844 26.221-3.739 39.431-.525 3.649.107 8.314 4.6 9.526 1.4.384 3.012.333 4.275.942 1.692.812 2.211 2.5 2.521 4.016a61.375 61.375 0 0 1 1.162 16.515c-.2 3.1-.429 6.672 2.5 8.8a14.809 14.809 0 0 0 4.856 1.94c4.619 1.246 10.592 2.256 13.706-.671 1.309-1.224 1.8-2.95 3.429-3.92 2.442-1.45 5.905-.468 8.979-.316a16.306 16.306 0 0 0 14.6-7.846c2.487-4.461 2.256-9.588 1.354-14.4s-2.516-9.588-2.628-14.473a8.4 8.4 0 0 1 1.083-4.913c1.878-2.9 6.249-4.224 9.239-6.509 5.6-4.287 5.584-11.309 3.548-17.186s-5.689-11.506-6.137-17.58a6.7 6.7 0 0 1 .829-4.247 17.237 17.237 0 0 1 3.384-3.181c8.173-6.9 7.208-18.24.451-26-7.482-8.603-41.364-27.131-51.577-11.288z" data-name="Path 216" transform="translate(-232.976 -95.641)" style="fill:#e3787d"/>
        <g id="prefix__Group_47" data-name="Group 47" transform="translate(171.102 107.151)" style="opacity:.1">
            <path id="prefix__Path_217" d="M409.493 270.713a32.115 32.115 0 0 0-1.292-15.2c-.891-2.448-2.183-4.879-3.125-7.332a10.583 10.583 0 0 0-1.015 2.82c-.993 4.986 2.375 9.786 4.14 14.665a26.665 26.665 0 0 1 1.292 5.047z" data-name="Path 217" transform="translate(-403.882 -233.972)"/>
            <path id="prefix__Path_218" d="M417.338 366.937a61.6 61.6 0 0 0-1.156-16.515c-.316-1.517-.835-3.2-2.527-4.01-1.263-.609-2.871-.564-4.275-.942a5.826 5.826 0 0 1-3.948-3.26c-.259 1.286-.485 2.566-.671 3.852-.525 3.649.107 8.314 4.6 9.526 1.4.378 3.012.327 4.275.936 1.692.812 2.211 2.5 2.527 4.016a62.5 62.5 0 0 1 1.083 7.626c.041-.417.063-.823.092-1.229z" data-name="Path 218" transform="translate(-404.197 -274.967)"/>
            <path id="prefix__Path_219" d="M475.174 379.6a16.287 16.287 0 0 1-14.6 7.846c-3.074-.158-6.537-1.128-8.974.316-1.63.964-2.126 2.7-3.435 3.92-3.113 2.9-9.086 1.918-13.706.671a14.983 14.983 0 0 1-4.856-1.94 6.091 6.091 0 0 1-2.4-3.892c.034 1.732 0 3.469-.107 5.2-.2 3.1-.429 6.672 2.5 8.81a14.976 14.976 0 0 0 4.856 1.935c4.619 1.246 10.592 2.256 13.706-.671 1.309-1.224 1.8-2.95 3.435-3.948 2.437-1.45 5.9-.468 8.974-.316a16.322 16.322 0 0 0 14.6-7.846c2.391-4.309 2.284-9.182 1.45-13.835a15.154 15.154 0 0 1-1.45 3.751z" data-name="Path 219" transform="translate(-413.957 -289.634)"/>
            <path id="prefix__Path_220" d="M528.055 230.486a15.917 15.917 0 0 0-3.384 3.181 6.7 6.7 0 0 0-.829 4.247 22.6 22.6 0 0 0 1.158 5.415 22.523 22.523 0 0 1 3.074-2.73c5.527-4.664 6.87-11.359 5.076-17.609a16.1 16.1 0 0 1-5.1 7.5z" data-name="Path 220" transform="translate(-456.155 -222.99)"/>
            <path id="prefix__Path_221" d="M520.467 306.79c-2.984 2.284-7.36 3.61-9.233 6.514a8.376 8.376 0 0 0-1.089 4.907 33.886 33.886 0 0 0 .722 5.866 5.426 5.426 0 0 1 .367-.66c1.873-2.9 6.249-4.224 9.233-6.509 5.116-3.914 5.544-10.107 4.033-15.629a11.709 11.709 0 0 1-4.033 5.51z" data-name="Path 221" transform="translate(-450.208 -257.123)"/>
        </g>
        <path id="prefix__Path_222" d="M551.94 280.776s14.586-.756 15.849-6.909-3.948-12.408-5.223-13.068-15.026-11.128-15.026-11.128l-22.166-14.157s-10.62-30.457-12.972-18.8 6.83 27.141 6.83 27.141 12.724 8.178 14.157 10.62 10.2 8.85 10.2 8.85z" class="prefix__cls-15" data-name="Path 222" transform="translate(-279.924 -111.944)"/>
        <path id="prefix__Path_223" d="M569.8 307.477c-3.452 8.771-7.924 12.228-7.924 12.228h-2.487l-21.867.226-2.522-6.887 3.542-14.924 2.188.09a12.624 12.624 0 0 0 4.213 1.348c1.6 0 4.726-.085 5.64.333a.694.694 0 0 0 .412.062c.829-.085 1.692-1.326 1.692-1.326s20.571.085 17.113 8.85z" class="prefix__cls-16" data-name="Path 223" transform="translate(-289.944 -148.594)"/>
        <path id="prefix__Path_224" d="M582.143 307.852c-3.452 8.771-7.924 12.228-7.924 12.228h-2.487c1.3-3.474 4.033-10.6 5.076-12.251 1.021-1.557-8.139-5.432-13.5-7.524.829-.085 1.692-1.325 1.692-1.325s20.6.107 17.143 8.872z" class="prefix__cls-10" data-name="Path 224" transform="translate(-302.287 -148.969)"/>
        <ellipse id="prefix__Ellipse_63" cx="24.918" cy="4.873" class="prefix__cls-7" data-name="Ellipse 63" rx="24.918" ry="4.873" transform="translate(26.306 425.552)"/>
        <ellipse id="prefix__Ellipse_64" cx="18.15" cy="3.548" class="prefix__cls-7" data-name="Ellipse 64" rx="18.15" ry="3.548" transform="translate(448.453 394.734)"/>
        <ellipse id="prefix__Ellipse_65" cx="18.15" cy="3.548" class="prefix__cls-7" data-name="Ellipse 65" rx="18.15" ry="3.548" transform="translate(527.128 409.111)"/>
        <ellipse id="prefix__Ellipse_66" cx="18.15" cy="3.548" class="prefix__cls-7" data-name="Ellipse 66" rx="18.15" ry="3.548" transform="translate(405.305 438.722)"/>
        <path id="prefix__Path_225" d="M224.418 556.31s4.083 5.341-1.884 13.4-10.88 14.856-8.883 19.882c0 0 9-14.963 16.323-15.172s2.503-9.108-5.556-18.11z" class="prefix__cls-6" data-name="Path 225" transform="translate(-149.645 -261.159)"/>
        <path id="prefix__Path_226" d="M224.593 556.31a6.65 6.65 0 0 1 .835 1.692c7.146 8.4 10.953 16.233 4.084 16.43-6.4.181-14.072 11.625-15.911 14.512a5.326 5.326 0 0 0 .22.66s9-14.963 16.323-15.172 2.509-9.12-5.551-18.122z" class="prefix__cls-10" data-name="Path 226" transform="translate(-149.821 -261.159)"/>
        <path id="prefix__Path_227" d="M245.812 567.435c0 1.878-.209 3.384-.468 3.384s-.474-1.523-.474-3.384.265-.993.525-.993.417-.908.417.993z" class="prefix__cls-19" data-name="Path 227" transform="translate(-163.454 -265.482)"/>
        <path id="prefix__Path_228" d="M248.673 571.349c-1.647.9-3.085 1.444-3.209 1.213s1.128-1.128 2.758-2.042 1-.243 1.128 0 .97-.073-.677.829z" class="prefix__cls-19" data-name="Path 228" transform="translate(-163.709 -267.152)"/>
        <path id="prefix__Path_229" d="M187.783 556.31s-4.084 5.341 1.884 13.4 10.88 14.856 8.9 19.882c0 0-9.024-14.963-16.357-15.172s-2.487-9.108 5.573-18.11z" class="prefix__cls-6" data-name="Path 229" transform="translate(-134.562 -261.159)"/>
        <path id="prefix__Path_230" d="M187.78 556.31a6.651 6.651 0 0 0-.835 1.692c-7.146 8.4-10.953 16.233-4.083 16.43 6.4.181 14.1 11.625 15.911 14.512a6.425 6.425 0 0 1-.214.66s-9.024-14.963-16.357-15.172-2.482-9.12 5.578-18.122z" class="prefix__cls-10" data-name="Path 230" transform="translate(-134.559 -261.159)"/>
        <path id="prefix__Path_231" d="M181.43 567.435c0 1.878.209 3.384.468 3.384s.474-1.523.474-3.384-.265-.993-.525-.993-.417-.908-.417.993z" class="prefix__cls-19" data-name="Path 231" transform="translate(-135.795 -265.482)"/>
        <path id="prefix__Path_232" d="M176.032 571.349c1.653.9 3.085 1.444 3.215 1.213s-1.128-1.128-2.764-2.042-1-.243-1.128 0-.97-.073.677.829z" class="prefix__cls-19" data-name="Path 232" transform="translate(-133.003 -267.152)"/>
        <ellipse id="prefix__Ellipse_67" cx="42.668" cy="6.548" class="prefix__cls-7" data-name="Ellipse 67" rx="42.668" ry="6.548" transform="translate(21.326 356.155)"/>
        <path id="prefix__Path_233" d="M218.985 600.629l-.2 1.692-.288 2.352-.118.981-.288 2.358-.124.981-.288 2.352-3.26 26.757c-.293 2.391-4.2 4.253-8.912 4.253h-16.934c-4.715 0-8.613-1.861-8.906-4.253l-3.267-26.763-.288-2.352-.118-.981-.293-2.358-.118-.981-.288-2.352-.2-1.692c-.164-1.354 1.946-2.493 4.614-2.493h34.7c2.63.006 4.745 1.145 4.576 2.499z" data-name="Path 233" transform="translate(-133.028 -279.392)" style="fill:#65617d"/>
        <path id="prefix__Path_234" d="M118.4 572.5l-.282 2.358H75.172l-.282-2.358z" class="prefix__cls-21" data-name="Path 234" transform="translate(-32.65 -249.6)"/>
        <path id="prefix__Path_235" d="M118.306 578.42l-.282 2.352H75.9l-.288-2.352z" class="prefix__cls-21" data-name="Path 235" transform="translate(-32.964 -252.181)"/>
        <path id="prefix__Path_236" d="M118.214 584.33l-.288 2.352H76.618l-.288-2.352z" class="prefix__cls-21" data-name="Path 236" transform="translate(-33.278 -254.757)"/>
        <circle id="prefix__Ellipse_68" cx="17.767" cy="17.767" r="17.767" class="prefix__cls-2" data-name="Ellipse 68" transform="translate(83.751 52.464)"/>
        <circle id="prefix__Ellipse_69" cx="10.998" cy="10.998" r="10.998" class="prefix__cls-2" data-name="Ellipse 69" transform="translate(53.294 16.93)"/>
        <circle id="prefix__Ellipse_70" cx="6.768" cy="6.768" r="6.768" class="prefix__cls-2" data-name="Ellipse 70" transform="translate(0 45.695)"/>
    </g>
</svg>
