<svg xmlns="http://www.w3.org/2000/svg" width="822" height="227" viewBox="0 0 822 227">
    <defs>
        <style>
            .prefix__cls-2,.prefix__cls-9{fill:none}.prefix__cls-2{stroke:#f2f2f1;stroke-width:10px}.prefix__cls-4{fill:#fff;stroke:#32d5c9;stroke-width:4px}.prefix__cls-5{fill:#32d5c9;font-size:16px;font-family:Ubuntu-Medium,Ubuntu;font-weight:500}.prefix__cls-7,.prefix__cls-8{stroke:none}.prefix__cls-8{fill:#f2f2f1}
        </style>
    </defs>
    <g id="prefix__Group_31" data-name="Group 31" transform="translate(-489 -1101)">
        <g id="prefix__Group_23" data-name="Group 23">
            <g id="prefix__Path_8" data-name="Path 8" style="stroke-dasharray:157 200;stroke-linecap:square;fill:none">
                <path d="M50 0A50 50 0 1 1 0 50 50 50 0 0 1 50 0z" class="prefix__cls-7" transform="translate(983 1106)"/>
                <path d="M50 0c27.614 0 50 22.386 50 50V50.303l-.001.012v.129l-.001.01V50.545l-.001.02v.067l-.001.014v.063l-.001.018v.044l-.001.016v.047l-.001.013V50.894l-.001.014v.046l-.001.014V50.993l-.001.016v.04l-.001.01v.04l-.001.01v.04l-.001.008v.032l-.001.011V51.229l-.001.012V51.269l-.001.01v.031l-.001.01v.03l-.001.008v.02l-.001.012V51.418l-.001.013V51.46l-.001.01v.02l-.001.01v.019l-.001.012v.019l-.001.013V51.59l-.001.01v.02l-.001.01v.02l-.001.012V51.681l-.001.01v.02l-.001.01v.02l-.001.01V51.772l-.001.012v.019l-.001.008v.02l-.001.01v.01l-.001.01v.02l-.001.01v.02l-.001.01v.01l-.001.01v.02l-.001.01v.02l-.001.011v.01l-.001.01v.02l-.001.01v.01l-.001.01v.01l-.001.01v.02l-.001.01v.01l-.001.01v.02l-.001.01v.01l-.001.01v.01l-.001.01v.02l-.001.01v.01l-.001.01v.01l-.001.01v.01l-.001.01v.01l-.001.01v.02l-.001.01v.01l-.001.01v.01l-.001.01v.01l-.001.01v.013l-.001.006v.014l-.001.006v.012l-.001.008v.012l-.001.008v.013l-.001.007v.012l-.001.008v.011l-.001.01v.01l-.001.01v.012l-.001.007v.014l-.001.006v.014l-.001.006v.014l-.001.006v.014l-.001.006v.013l-.001.007v.013l-.001.007v.012l-.001.008-.001.012v.008l-.001.012v.008l-.001.012v.008l-.001.012v.007l-.001.013v.007l-.001.013v.007l-.002.013v.019l-.001.008v.013l-.001.007-.001.012v.008l-.001.013v.007l-.001.013v.007l-.001.012v.008l-.002.011V53.021l-.001.009-.001.011v.009l-.001.012v.007l-.001.013v.007l-.002.013v.019l-.001.008-.001.012v.008l-.001.011v.01l-.002.01v.02l-.001.009-.001.012v.008l-.001.012v.008l-.002.012v.019l-.001.009-.001.01v.01l-.001.011-.001.008v.013l-.001.007-.001.012v.008l-.001.012-.001.008v.011l-.001.009-.001.011v.009l-.001.012-.001.007v.013l-.001.007-.001.012v.008l-.001.011-.001.01v.01l-.001.009-.001.012v.008l-.002.011v.009l-.001.01v.01l-.001.01-.001.01v.01l-.002.01v.02l-.002.01v.009l-.001.011v.009l-.002.011v.009l-.001.01v.01l-.002.01v.01l-.001.01v.01l-.002.01v.009l-.001.012v.008l-.002.012v.008l-.001.01v.01l-.002.011v.008l-.001.012v.008l-.001.01-.001.01-.001.01v.01l-.002.01v.01l-.001.01v.01l-.002.01v.01l-.001.01v.01l-.002.01v.01l-.001.01-.001.009v.01l-.002.01v.01l-.001.01-.001.01v.009l-.002.01v.01l-.001.01-.001.01-.001.01v.01l-.002.01v.01l-.001.01-.001.009v.011l-.002.009v.01l-.001.01-.001.01v.01l-.002.01v.01l-.002.01v.009l-.001.01-.001.01-.001.011v.008l-.002.012v.008l-.001.012-.001.008-.001.012v.008l-.002.011v.008l-.002.012v.008l-.001.012-.001.008-.001.01v.01l-.002.011v.009l-.002.01v.01l-.001.01-.001.01-.001.01v.009l-.002.011v.009l-.002.01v.01l-.001.01-.001.01-.001.01-.001.009-.001.011v.008l-.002.012v.008l-.002.012v.008l-.002.01v.01l-.001.011-.001.008-.001.012-.001.008-.001.012v.008l-.002.01v.01l-.002.012v.007l-.002.012v.008l-.002.012v.007l-.002.013v.007l-.002.012v.008l-.001.011-.001.009-.001.011-.001.009-.001.01-.001.009-.001.012-.001.008-.001.011v.008l-.002.012v.009l-.002.01v.009l-.002.012v.007l-.002.012v.008l-.002.012v.008l-.002.012v.008l-.002.012v.007l-.002.012v.008l-.002.011v.01l-.002.01v.008l-.002.012v.008l-.002.011v.009l-.002.01-.001.01-.001.01-.001.01-.001.01-.001.009-.001.01-.001.01-.001.01-.001.01-.001.01-.001.009-.002.011v.009l-.002.01v.01l-.002.01v.008l-.002.012v.008l-.002.013v.007l-.002.012-.001.008-.001.012-.001.007-.001.012-.001.008-.002.012v.007l-.002.012v.008l-.002.013v.006l-.002.013v.007l-.002.014-.001.005-.002.014v.006l-.002.014v.006l-.002.013v.006l-.002.014v.006l-.002.013-.001.007-.002.013v.006l-.002.013v.007l-.002.014v.005l-.002.014-.001.006-.002.014v.005l-.002.014v.006l-.002.014v.005l-.002.015-.001.005-.002.015v.005l-.002.014v.005l-.002.015v.005l-.003.014v.006l-.002.014v.005l-.002.014v.006l-.003.014v.005l-.002.014v.006l-.002.014-.001.006-.002.013v.006l-.002.014v.006l-.002.012-.001.008-.002.013v.006l-.002.013v.007l-.002.013-.001.006-.002.013v.007l-.002.012-.001.008-.002.012v.007l-.002.013v.007l-.002.012-.001.007-.002.012v.008l-.002.011-.001.008-.002.013v.007l-.002.012-.001.007-.002.013v.007l-.002.012-.001.007-.002.014v.005l-.002.014-.001.006-.002.014v.005l-.002.014-.001.006-.002.014v.006l-.002.013-.001.006-.002.013v.007l-.002.012-.001.008-.002.013v.006l-.002.013-.001.007-.002.012v.007l-.002.012-.001.008-.002.013-.001.006-.002.013v.006l-.002.014-.001.006-.002.013v.007l-.002.013-.001.006-.002.012-.001.008-.002.012v.007l-.002.012-.001.008-.002.012v.007l-.003.013v.007l-.002.012-.001.007-.002.013v.006l-.003.014v.005l-.002.014-.001.006-.002.014v.006l-.003.013v.006l-.002.014-.001.005-.002.014v.006l-.003.013v.007l-.002.012-.001.007-.002.013-.001.007-.002.012v.007l-.003.013v.007l-.002.012-.001.007-.002.013-.001.007-.002.012v.007l-.003.013v.006l-.002.013-.001.007-.002.014-.001.004-.002.015v.005l-.003.014v.006l-.003.013v.007l-.002.012-.001.007-.002.012-.001.008-.002.011-.001.008-.002.012v.007l-.003.013v.006l-.003.014v.006l-.002.013-.001.006-.002.013-.001.007-.002.013-.001.006-.002.013-.001.007-.002.013v.006l-.003.013v.006l-.003.014v.006l-.003.013v.006l-.003.014v.006l-.002.012-.001.007-.003.014v.005l-.002.014-.001.006-.002.013-.001.006-.002.013-.001.006-.002.014-.001.005-.002.015-.001.005-.002.014-.001.005-.002.014-.001.006-.002.014-.001.005-.002.014-.001.005-.002.015-.001.005-.002.014-.001.005-.002.015-.001.004-.002.015-.001.004-.002.015-.001.005-.002.014-.001.006-.002.014-.001.004-.002.015-.001.005-.003.014v.006l-.003.013v.006l-.003.014v.005l-.003.014v.006l-.003.014v.005l-.003.014v.005l-.003.014v.005l-.003.015-.001.005-.002.015-.001.004-.002.015-.001.004-.003.015v.004l-.003.015v.005l-.003.015v.004l-.003.015v.005c-.002.004-.002.01-.003.014l-.001.005-.002.014-.001.005-.003.014v.006l-.003.013v.006l-.003.014v.005l-.003.014-.001.006-.002.014-.001.005-.003.014v.005l-.003.015v.004l-.003.015v.004l-.003.015-.001.005-.003.014v.005l-.003.015v.004l-.003.015v.005l-.003.014-.001.005-.003.014v.005l-.003.015v.004l-.003.015-.001.005c0 .005-.002.01-.003.014v.005l-.003.015v.004l-.003.016v.003l-.004.015v.004l-.003.016v.004l-.003.015v.004l-.004.015v.004l-.003.015v.005l-.003.015v.004l-.004.015v.004l-.003.016v.003l-.003.016-.001.003-.003.016v.003l-.003.016v.004l-.004.015v.004l-.003.015v.005l-.003.014-.001.005-.003.015v.004l-.003.016v.002l-.004.016v.004l-.003.016v.003l-.004.016v.003l-.003.016v.003l-.004.016v.003l-.003.017v.003l-.003.016-.001.003-.003.017v.002l-.004.016v.003l-.003.016v.004l-.004.016v.003l-.003.016v.002l-.004.017v.003l-.003.016v.003l-.004.016v.004l-.003.016v.002l-.004.017v.003l-.003.016v.003l-.004.016v.003l-.004.016v.003l-.003.017v.002l-.004.017v.002l-.003.016v.004l-.004.016v.003l-.003.016-.001.003-.003.016v.004l-.004.015v.004l-.003.016v.002l-.004.017v.003l-.004.016v.003l-.003.016v.003l-.004.016v.003l-.004.016v.003l-.003.017v.002l-.004.016v.003l-.004.017v.002l-.003.017v.002l-.004.017v.002l-.004.017v.003l-.004.017v.001l-.003.018v.001l-.004.018v.002l-.004.017v.002l-.004.017v.002l-.003.017v.003l-.004.016v.002l-.004.017v.002l-.004.018v.001l-.003.017v.002l-.004.018v.001l-.004.018v.002l-.004.017-.004.019v.002l-.004.017v.002l-.003.017v.002l-.004.017v.001l-.004.018v.002l-.004.018-.004.018v.002l-.004.018-.004.019c0 .001 0 0 0 0l-.003.019c0 .001 0 0 0 0l-.004.018v.002l-.008.037-.008.038c0 .002 0 0 0 0l-.004.02-.004.018-.004.02-.004.018v.001l-.004.018-.004.02-.008.037c0 .002 0 0 0 0l-.012.058c0 .001 0-.002 0 0l-.004.018v.001l-.008.037v.001l-.024.113v.001l-.008.038-.004.019-.004.018v.001l-.004.019-.004.018v.002l-.004.017v.002l-.005.017v.002l-.008.036-.008.038-.009.038-.008.038v.001l-.008.037-.009.038c-3.306 14.87-13.233 27.244-26.528 33.873l-.27.134h-.002l-.016.008-.085.042-.017.008-.016.008-.002.001-.016.008-.017.008-.017.008-.016.008-.002.001-.016.008-.016.008h-.002l-.015.008-.003.001-.014.007-.003.001-.015.008h-.001l-.016.008-.035.017-.034.016-.017.008-.016.008-.002.001-.015.007-.002.001-.015.007-.002.001-.016.008-.016.008h-.002l-.015.008h-.002l-.016.008h-.001l-.016.008h-.001l-.015.008-.003.001-.015.008h-.001l-.016.008h-.001l-.017.008-.017.008-.017.008-.017.008-.017.008-.016.008-.003.001-.015.007-.001.001-.016.008h-.001l-.016.008h-.001l-.016.008h-.002l-.015.008h-.002l-.015.008h-.002l-.016.008h-.001l-.015.007-.003.002-.015.007h-.002l-.015.008h-.002l-.033.016-.017.008-.017.008h-.001l-.016.008h-.001l-.016.008-.003.001-.014.007-.003.001-.014.007h-.003l-.015.008H71l-.016.008h-.002l-.015.008h-.002l-.015.008h-.003l-.014.008h-.003l-.014.007-.003.002-.015.006-.002.002-.015.006-.002.002-.016.007-.017.007-.002.001-.015.007-.002.001-.015.007-.002.001-.015.007-.002.001-.015.007-.003.001-.015.007h-.002l-.015.008h-.003l-.014.007-.003.002-.014.006-.003.002-.014.006-.004.002-.013.006-.004.001-.014.007-.003.001-.014.006-.004.002-.013.006-.003.002-.015.006-.003.002-.014.006-.003.001-.015.007-.002.001-.015.007h-.002l-.015.008-.003.001-.014.006-.003.002-.014.006-.004.002-.014.006-.003.001-.014.007-.003.001-.015.007h-.002l-.015.007-.003.002-.014.006-.004.002-.013.006c-.001 0-.003 0-.004.002l-.013.005-.005.002-.012.006-.005.002-.013.006-.004.002-.013.006-.004.001-.014.006-.003.002-.014.006-.004.002-.013.006c-.002 0-.003 0-.005.002l-.012.005-.005.002-.013.006-.004.002-.013.006-.005.002-.012.005-.005.002-.013.006-.005.002-.013.006-.003.001-.014.006-.004.002-.013.006-.005.002-.012.006-.005.002-.013.005-.004.002-.013.006-.006.003c-.003 0-.008.003-.01.004l-.007.003-.012.005-.005.003-.012.005-.005.002-.013.006-.004.001-.014.006-.003.002-.014.006-.004.002-.013.005-.005.002-.012.006-.006.002-.011.005-.006.003-.012.005-.005.002-.013.006c-.001 0-.003 0-.004.002-.003 0-.01.004-.013.005l-.006.003c-.003 0-.008.003-.01.004l-.007.003-.011.005-.007.003-.01.004-.007.003-.011.005-.007.003-.01.005-.006.002-.013.005-.004.002-.013.006c-.002 0-.003 0-.004.002l-.014.005-.004.002-.013.006-.005.002-.012.005-.006.003-.012.005-.005.002-.012.005-.006.003-.011.005-.006.002-.012.005-.006.003-.012.005-.005.002-.012.005-.006.003-.011.004-.006.003-.012.005-.006.003c-.003 0-.008.003-.011.004l-.007.003-.01.004-.008.004-.01.004-.006.003-.012.005-.005.002-.013.005-.004.002-.014.006-.003.001-.014.006-.004.002-.013.005-.005.003-.013.005-.004.002-.013.005-.006.002-.012.006c-.001 0-.003 0-.004.002l-.013.005-.006.002-.012.005-.005.002-.012.006-.006.002-.012.005-.006.002-.011.005-.006.003-.012.005-.006.002-.01.005-.008.003-.01.004-.007.003-.011.004-.007.003-.011.005-.005.002-.013.005-.005.003-.012.005-.005.002-.013.005-.006.002-.01.005-.008.003c-.003 0-.007.003-.01.004l-.008.003-.01.004-.007.003-.01.005-.008.003c-.003 0-.007.003-.01.004l-.007.003-.01.004-.008.003-.01.004-.007.003-.01.005c-.004 0-.006.002-.009.003l-.01.004-.007.003-.01.004-.008.003-.01.004-.007.003-.01.005-.007.002-.011.005-.006.002-.012.005-.006.003-.012.004-.006.003-.011.004-.007.003-.01.004-.008.004c-.003 0-.007.002-.01.004-.003 0-.005.002-.008.003l-.01.004-.007.003-.01.004-.008.003-.01.004-.007.003-.01.004-.009.004-.009.003-.008.004-.01.003c-.002.002-.006.003-.009.004l-.008.004-.01.003-.008.004-.01.004-.007.003-.009.003-.01.004-.007.003-.01.004-.007.003-.011.004-.007.003-.01.004-.008.003-.01.004-.008.004-.01.003-.008.004-.01.003c-.002.002-.006.003-.009.004l-.008.003-.008.004-.01.004-.008.003-.01.004-.007.003-.01.004-.008.003-.01.004-.008.003-.01.004-.008.003-.01.004-.008.003-.009.004c-.003 0-.007.002-.01.004l-.007.003-.01.003-.008.004-.009.003-.01.004-.006.003-.011.004-.008.003-.01.004-.007.003-.01.004-.008.003-.01.004-.009.003-.008.004-.01.003-.008.004-.009.003-.01.004-.008.003-.01.004-.007.003-.01.004-.009.003-.008.003-.01.004-.008.003-.01.004-.008.003-.01.004-.007.003-.01.004-.008.003-.01.004-.008.003-.01.004-.008.003-.008.003-.01.004-.008.003-.01.004-.008.003-.01.004-.008.003-.01.003c-.002.002-.006.003-.009.004l-.008.003-.01.004-.007.003-.01.004-.008.003-.01.004-.008.003-.01.003-.008.004-.01.003-.008.003-.01.004-.007.003-.011.004-.007.003-.011.004-.007.003-.012.004-.006.003-.01.004-.008.002-.01.004-.008.003-.008.004-.01.003-.009.004-.009.003-.009.003-.008.004-.01.003-.008.003-.01.004-.008.003-.01.004-.008.003-.01.004-.008.003-.01.003-.008.003-.009.004-.008.003-.01.004c-.003 0-.005.002-.008.003l-.01.003-.008.003-.012.005-.005.002-.013.005-.005.002-.014.005-.004.001-.013.005-.005.002-.013.005-.005.002-.011.004-.007.003-.012.004-.006.002-.011.005-.007.002-.012.004-.006.002-.011.005-.006.002-.013.005-.005.002-.012.004-.006.002-.011.005-.008.002-.01.004-.007.003-.012.004-.006.002-.013.005-.005.002-.014.005-.003.001-.015.006h-.003l-.015.006-.003.002-.015.005-.003.001-.014.005-.004.002-.012.004-.007.002-.012.005-.005.002-.014.005-.004.001-.015.006h-.003c-.004.003-.01.005-.015.006l-.003.001-.015.006L67.1 97l-.015.006h-.003l-.014.006-.004.001-.014.005-.004.002-.016.005-.001.001-.017.006h-.001l-.017.007h-.001l-.017.006h-.001l-.016.006-.003.001-.014.005-.004.002-.015.005-.002.001-.015.005-.004.002-.014.005-.004.001-.014.005-.003.001-.016.006h-.002l-.017.007h-.001l-.018.006-.016.006-.003.001-.014.005-.004.002-.014.005-.004.001-.016.006h-.001l-.018.007-.054.019-.018.006-.017.006h-.002l-.015.006-.003.001-.015.005-.003.001-.016.006h-.002l-.017.007-.017.006h-.002l-.035.013-.017.006h-.002l-.017.006-.436.15C61.003 99.076 55.61 100 50 100c-1.653 0-3.29-.08-4.902-.237l-.019-9.753 5-.01C72.091 89.958 90 72.014 90 50c0-22.056-17.944-40-40-40h-5V.247C46.644.084 48.313 0 50 0z" class="prefix__cls-8" transform="translate(983 1106)"/>
            </g>
            <path id="prefix__Line_4" d="M542 0L0 0" class="prefix__cls-2" data-name="Line 4" transform="translate(489 1111)"/>
            <g id="prefix__Path_9" data-name="Path 9" style="stroke-dasharray:156 203;stroke-linecap:square;fill:none">
                <path d="M50 100A50 50 0 1 0 0 50a50 50 0 0 0 50 50z" class="prefix__cls-7" transform="translate(659 1196)"/>
                <path d="M50 100C22.386 100 0 77.614 0 50v-.04-.01-.01-.01-.01-.008-.013-.005-.015-.007-.013-.01-.01-.01-.01-.008-.012-.01-.01-.01-.01-.01-.01-.008-.012-.009-.011-.01l.001-.01v-.01-.01-.009-.012-.009-.01-.01-.01-.01-.01-.01-.01l.001-.01v-.01-.01-.01-.01-.01-.01-.01-.01-.011l.001-.009v-.011-.01-.01-.01-.01-.01-.01-.01l.001-.01v-.01-.01-.01-.01-.01-.01l.001-.01v-.01-.01-.01-.01-.01-.01l.001-.01v-.01-.01-.01-.01-.01l.001-.01v-.01-.01-.01-.01-.01l.001-.01v-.01-.01-.01-.01-.01l.001-.01v-.01-.01-.01-.01l.001-.01v-.01-.01-.01-.01l.001-.01v-.01-.01-.01-.01l.001-.01v-.01-.01-.01l.001-.01v-.01-.01-.01-.01l.001-.01v-.01-.01-.01l.001-.01v-.01-.01-.01l.001-.01v-.01-.01-.01l.001-.01v-.01-.01-.01l.001-.009v-.011-.007l.001-.013v-.011-.009-.014l.001-.005v-.014-.007l.002-.038v-.001l.001-.04v-.01-.01-.009l.001-.011v-.007-.014l.001-.004v-.015-.009l.001-.011v-.009-.01l.001-.01v-.011-.008l.001-.012v-.01-.01l.001-.009v-.01-.009l.001-.012v-.01-.01l.001-.01v-.01-.01l.001-.01v-.01-.01l.001-.01v-.009l.001-.01v-.01-.01l.001-.01v-.01-.01l.001-.01v-.01l.001-.011v-.008-.012l.001-.008v-.011-.01L.04 48v-.009l.001-.011v-.01-.01l.001-.009v-.01l.001-.01v-.01-.01l.001-.011v-.008l.001-.011v-.01-.01l.001-.01v-.01l.001-.01v-.01l.001-.01v-.01-.01l.001-.009v-.01l.001-.01v-.01l.001-.01v-.01l.001-.01v-.01-.01l.001-.01v-.01l.001-.009v-.011l.001-.01v-.01l.001-.01v-.009l.001-.01v-.01-.01l.001-.01v-.009l.001-.012v-.008l.001-.01v-.01l.001-.01v-.01l.001-.01v-.01l.001-.01v-.01l.001-.01v-.01l.001-.01v-.009l.001-.011v-.008l.001-.012v-.009l.001-.01v-.01l.001-.01v-.01l.001-.01v-.01l.001-.01v-.01l.001-.01v-.01l.001-.01v-.008l.002-.012v-.007-.013l.001-.008v-.01l.001-.012v-.009l.001-.01v-.01l.001-.011v-.008l.002-.015v-.005-.014l.001-.006v-.009l.001-.011v-.005l.001-.015.001-.01v-.01l.001-.012v-.007l.002-.018v-.002l.003-.06v-.004l.002-.015v-.008-.012l.001-.006.001-.014v-.005l.001-.015v-.004l.001-.016v-.006l.002-.014v-.005-.015l.001-.004.001-.015V46.8l.001-.01.001-.012v-.008l.001-.01v-.01l.001-.01.001-.01v-.008l.001-.012.001-.008v-.012l.001-.006.001-.014v-.007l.001-.012v-.008l.002-.012v-.009l.001-.01v-.009l.001-.012v-.007l.002-.013v-.007l.001-.012v-.009l.001-.01v-.009l.002-.012v-.008l.001-.012v-.008l.001-.01.001-.01v-.011l.001-.008.001-.012v-.008l.002-.012v-.008l.001-.011v-.009l.001-.011v-.008l.002-.012v-.008l.001-.012v-.008l.002-.01v-.01l.001-.011v-.008l.002-.012v-.008l.001-.012v-.007l.002-.013v-.007l.001-.013v-.007l.001-.012.001-.008v-.011l.002-.009v-.01l.001-.01v-.01l.002-.01v-.01l.001-.01v-.01l.002-.009v-.01l.001-.01.001-.01v-.009l.002-.012v-.008l.001-.011v-.008L.159 46v-.01l.001-.01v-.009l.002-.012v-.008l.001-.011.001-.008.001-.012v-.008l.002-.012v-.007l.001-.013v-.007l.002-.012v-.008l.001-.01.001-.01.001-.011v-.008l.002-.014v-.006l.002-.015v-.004l.001-.015v-.005l.002-.016v-.004l.001-.014v-.006l.002-.014v-.005l.002-.012v-.009l.002-.014v-.005l.001-.015v-.005l.002-.015v-.004l.002-.014v-.006l.007-.079v-.003l.004-.036v-.003l.001-.017v-.001l.002-.019v-.002l.002-.018.002-.019v-.005l.001-.015v-.004l.002-.015v-.007l.002-.013v-.005l.002-.014v-.005l.002-.016V45.3l.002-.016v-.005l.001-.015v-.004l.002-.015v-.005l.002-.015v-.005l.002-.014v-.007l.002-.013v-.006l.002-.013v-.008l.002-.012v-.008l.001-.011.001-.008.001-.012.001-.007.001-.013.001-.007.001-.012.001-.008.001-.011.001-.01.001-.01v-.008l.002-.012v-.007l.002-.013v-.007l.002-.012v-.008l.002-.012v-.008l.002-.011v-.009l.002-.01v-.01l.002-.01v-.01l.002-.01v-.009l.002-.01v-.009l.002-.012v-.007l.002-.012v-.008l.002-.012v-.007l.002-.012v-.008l.002-.012v-.008l.002-.01v-.01l.002-.01v-.009l.002-.011v-.008l.002-.012.001-.008.001-.012.001-.007.001-.013.001-.007.001-.012.001-.008.001-.01.001-.01.001-.01.001-.01.002-.01v-.009l.002-.01v-.009l.002-.012v-.007L.3 44.5v-.008l.002-.012.001-.007.001-.012.001-.008.001-.012.001-.008.002-.01v-.01l.002-.01v-.009l.002-.01v-.01l.002-.011.001-.008.002-.012v-.007l.002-.014v-.005l.002-.013v-.007l.002-.012.001-.008.001-.01.001-.01.002-.012v-.007l.002-.012v-.007l.002-.013v-.007l.003-.014v-.005l.002-.016v-.004l.002-.016v-.003l.017-.137v-.001l.002-.018v-.006l.003-.014v-.005l.002-.014v-.007l.002-.013v-.004l.003-.015V43.9l.002-.014v-.005l.002-.015.001-.005.002-.014v-.005l.002-.014v-.006l.003-.014v-.005l.002-.014v-.007l.002-.013.001-.005.002-.015v-.005l.002-.014v-.005l.003-.014v-.006l.002-.014v-.006l.003-.013v-.007l.002-.013v-.007l.002-.011.002-.01v-.01l.002-.008.001-.011.001-.009.002-.011v-.008l.002-.011.001-.008.002-.012v-.007l.002-.012.001-.008.002-.012v-.007l.002-.012.001-.008.002-.012v-.007l.003-.012v-.007l.002-.013v-.006l.003-.014v-.006l.002-.013.001-.006.002-.013v-.007l.002-.012.001-.008.002-.011.001-.009.001-.011.001-.008.002-.012.001-.007.002-.013v-.006l.002-.013.001-.007.002-.012v-.007l.003-.013V43.2l.002-.012.001-.007.002-.012.001-.008.002-.011v-.008l.002-.012.001-.007.002-.014v-.005l.003-.013v-.007l.002-.013.001-.006.002-.013.001-.007c0-.005 0-.007.002-.012v-.007l.002-.012.001-.008.002-.012.001-.007.002-.013v-.006l.003-.016v-.003l.003-.015v-.005l.002-.014v-.005l.003-.014v-.006l.003-.014v-.004l.002-.014.001-.006.002-.014.001-.005.002-.015v-.005l.006-.036v-.002l.006-.038v-.001l.005-.034v-.005l.003-.016v-.003l.02-.136v-.001l.006-.038v-.001l.006-.038v-.002l.003-.017v-.003l.003-.016.001-.006.002-.013.001-.009.002-.01.001-.01.002-.01.001-.009.002-.01.001-.008.002-.011v-.008l.003-.01.001-.01.002-.01.001-.009c0-.004 0-.006.002-.01l.001-.01.002-.01.001-.01.002-.009.001-.01.002-.01.001-.008.002-.01v-.008l.003-.013v-.006l.003-.012.001-.01.002-.01.001-.009.002-.01.001-.008.002-.01.001-.01.002-.01.001-.01.002-.01.001-.008.002-.01.001-.009.002-.011.002-.009.001-.01.002-.009.001-.01.002-.01.001-.01.002-.008.002-.01.001-.01.002-.01.001-.01.002-.009.001-.01.002-.01.001-.008.002-.011.001-.008.002-.011.002-.008.001-.011.002-.009.002-.01.001-.01.002-.01.001-.009.002-.009.001-.01.002-.009.002-.01.001-.01.002-.009.002-.01v-.01l.003-.009.001-.01.002-.01.001-.008.002-.01.002-.01.001-.01.002-.009.001-.01.002-.01.002-.01.001-.008.002-.011.001-.008.003-.012v-.007l.003-.011.001-.009.002-.01.001-.009.002-.011.002-.008c0-.005 0-.006.002-.011v-.008l.003-.01.001-.01.002-.01.001-.009.002-.01.002-.008.002-.013.001-.007.002-.011.001-.008.002-.01.002-.01.002-.011.001-.007.002-.014.001-.005.003-.012v-.007l.004-.016v-.003l.02-.115.001-.005.003-.014.001-.009.002-.01.001-.006.006-.033v-.004l.004-.015.001-.008.002-.011.002-.008.002-.011.001-.008.002-.011.002-.01.001-.01.002-.008.002-.01.001-.007.003-.013v-.005l.003-.014.001-.006.002-.013.002-.007.002-.012.001-.007.002-.012.002-.008.002-.011.002-.009.001-.01.002-.01.002-.009.002-.009c0-.004 0-.006.002-.01l.001-.008.002-.011.002-.009.002-.01.001-.01.002-.01.002-.008.002-.01.001-.009.002-.01.002-.009.002-.01c0-.004 0-.006.002-.009l.002-.011v-.007c.002-.003.003-.01.003-.013l.002-.006.002-.012.001-.008.002-.011.002-.008.002-.011c0-.003 0-.005.002-.008l.002-.011.001-.01.002-.009.002-.01.002-.008.002-.01.001-.01.002-.009.002-.01.002-.008.002-.012.001-.008.003-.01.001-.009.002-.01.002-.008.002-.012.002-.008.002-.01.001-.009.002-.01.002-.01.002-.01c0-.003 0-.004.002-.007l.002-.013.001-.006.003-.012.001-.008.002-.01.002-.01.002-.01.002-.008.002-.01.001-.01.002-.009.002-.01.002-.008.002-.01.002-.01.002-.009.002-.01.001-.009.003-.01.001-.009.002-.01.002-.009.002-.011.002-.008.002-.011.002-.008c0-.005 0-.007.002-.011l.001-.008.003-.012.001-.007.003-.014v-.004l.004-.014v-.005l.003-.013.002-.006.002-.013c0-.003 0-.004.002-.007l.002-.014.001-.004.003-.014.001-.005.003-.015.001-.004.002-.012.002-.008.002-.012.002-.006.002-.013.002-.007.003-.015v-.003l.003-.012.002-.008.006-.031.001-.006.007-.033.002-.01.007-.033.001-.004.003-.015v-.002l.004-.017.001-.006.003-.013v-.003l.004-.016.001-.006.003-.013.002-.008.002-.01c0-.003 0-.005.002-.008l.002-.012.001-.004.003-.015.001-.006.003-.013.002-.006.002-.012c0-.003 0-.004.002-.007l.002-.013.001-.005.003-.013.001-.007c.002-.004.002-.008.003-.013l.002-.006.002-.012.002-.007.002-.012.002-.006.002-.013.002-.007.002-.012.002-.007.002-.011.002-.008.003-.012.001-.007.003-.011.001-.008.003-.012.001-.007.003-.01.002-.01.002-.01.002-.008.002-.01.002-.009.002-.011.002-.007.002-.012.002-.007.003-.012.001-.007.003-.011.001-.008.003-.012.001-.006.003-.012c0-.003 0-.004.002-.007l.002-.013.002-.006.002-.012.002-.007.003-.012.001-.007.003-.012.001-.007.003-.012c0-.003 0-.004.002-.007l.002-.01.002-.01.002-.01.002-.008.002-.01.002-.009.003-.011.001-.007.003-.012.002-.007.002-.012.002-.007.002-.011.002-.008.003-.012.001-.006.003-.012.002-.008.002-.012.002-.006.003-.012.001-.007.003-.013.001-.005.003-.013.002-.007.003-.012.001-.006.003-.012.001-.008.003-.01.002-.009.002-.01.002-.008.002-.01.003-.01.002-.009.002-.01.002-.009.002-.009.002-.01.003-.009.002-.01.002-.008.002-.01.002-.009.003-.012.002-.006.002-.013.002-.006.003-.015.001-.004.003-.013.002-.006.003-.012.001-.007.003-.011c0-.004 0-.004.002-.007 0-.005.001-.009.003-.014V38.5l.004-.014.001-.005.004-.014v-.005l.005-.016v-.002l.004-.016v-.003l.004-.016.001-.003.032-.132v-.001l.004-.018.005-.018v-.002l.004-.017.001-.004.004-.015v-.004l.004-.014.001-.006.004-.013.001-.006.003-.013.002-.006c0-.005.002-.008.003-.012l.001-.007.003-.012.002-.008.003-.01.001-.007.003-.012.002-.006.003-.013.001-.006.004-.013.001-.006.003-.013.002-.005c0-.005.002-.009.003-.013l.001-.006.004-.013v-.005l.004-.014.002-.006c0-.005.002-.008.003-.013l.001-.005.003-.013.002-.007.003-.012.002-.006.003-.012.001-.008.003-.011.002-.007.003-.012.002-.007.003-.011.001-.007.003-.012.002-.008.003-.01c0-.004 0-.005.002-.008l.003-.011.001-.007.003-.012.002-.007.003-.012.002-.007.003-.012.001-.006.004-.012.001-.007.003-.013.002-.005.003-.013.002-.006.003-.013.001-.005.003-.013.002-.007.003-.011.002-.007.003-.012.002-.007.003-.012.001-.006.003-.012.002-.007.003-.012.002-.007.003-.01.002-.01.003-.01c0-.003 0-.004.002-.007l.003-.011.002-.008.002-.011.002-.007.003-.012.002-.007.003-.012.002-.006.003-.012.002-.007.003-.012.001-.006.004-.013.001-.007.003-.011.002-.007.003-.012.002-.007.003-.013.002-.005.003-.012.002-.007.003-.013.002-.005.003-.014.002-.005.003-.014.001-.004.004-.013.001-.006.004-.014.001-.004.004-.014.001-.005.004-.016.001-.002.004-.014.001-.005.06-.223.001-.005.004-.014v-.001l.005-.017v-.003l.01-.034.001-.005.004-.014v-.003l.005-.016v-.003l.005-.016.005-.017.002-.007.003-.012.002-.005.003-.013.002-.006.004-.013v-.005l.004-.013.002-.008.004-.011.001-.006.004-.012.001-.006.004-.013.001-.006.004-.012.002-.007.003-.012.002-.006.003-.012.002-.006.003-.013.002-.006.003-.012.002-.007.004-.012.001-.005.004-.014.001-.005.004-.014.001-.004.004-.013.002-.007.003-.012.002-.006.004-.012.001-.007.004-.012.002-.006.003-.012.002-.007.003-.012.002-.006.003-.012.002-.007.004-.011c0-.003 0-.005.002-.008l.003-.01.002-.009.003-.01.002-.008.003-.01.002-.008.003-.01.003-.009.003-.01.002-.008.003-.011.002-.006c0-.004.003-.01.004-.013l.001-.006.004-.012c0-.003 0-.004.002-.007l.003-.01.002-.009.003-.01.002-.008.003-.01.003-.008.003-.011.002-.008.003-.01.002-.008.004-.011.001-.007.004-.011.002-.008.003-.011.002-.007.003-.01.003-.009.003-.01.002-.008.003-.011.002-.007.004-.013.002-.005c0-.005.002-.008.003-.012l.002-.007.004-.012.001-.006.004-.013.002-.005.004-.014.001-.005.003-.011.003-.008.003-.01.002-.008.003-.01.002-.008.004-.012c0-.003 0-.004.002-.007l.003-.01.002-.008.003-.01.003-.009.003-.01.002-.008.003-.01.003-.008.002-.008.003-.01.002-.008.004-.011c0-.005.002-.008.003-.012l.002-.006.005-.017v-.001l.05-.165.001-.005.005-.014v-.002l.005-.017.001-.002.005-.015.002-.008.003-.01.003-.009.003-.01.002-.007.003-.012.002-.004.004-.014.001-.004.005-.014.001-.004.004-.015.001-.003.005-.015v-.003l.006-.015v-.004l.005-.014.002-.006.004-.013.001-.004.004-.014.002-.005.004-.013.002-.006.003-.012.003-.007.003-.011.002-.007.004-.012.002-.007.003-.01.003-.009.003-.01.003-.009.003-.009.002-.008.003-.01.003-.009.003-.009.003-.009.003-.01.002-.008.004-.01.002-.007.003-.012.003-.007.003-.01.002-.008.004-.01.002-.009.003-.01.003-.007.003-.012.002-.006.004-.012.002-.006.004-.012.002-.007.004-.012c0-.003 0-.002.002-.005l.004-.013.001-.006.004-.012.002-.006.004-.011.002-.008.004-.01c0-.004 0-.005.002-.008l.003-.01.003-.009.003-.01.002-.007.004-.011.002-.008.004-.011.002-.006.004-.013.002-.006.004-.011.002-.007.003-.011.003-.007.003-.012.002-.006.004-.012.002-.006.004-.012.002-.007.004-.01.002-.008.004-.011.002-.007.004-.012.002-.006.004-.012.002-.006.003-.011.003-.008.003-.01.002-.008.005-.012.001-.006.005-.013.001-.005.005-.013.001-.005.005-.016v-.002l.006-.015v-.003l.006-.015v-.003l.005-.014.002-.004.096-.29.001-.004.011-.033.001-.003.005-.015.001-.003.005-.015.002-.005.004-.013.002-.005.004-.013.003-.007.004-.011.002-.008.003-.01.003-.008.004-.01.002-.007.004-.011.002-.007.004-.011.002-.007.004-.011.002-.006.004-.013.002-.005.004-.012.003-.007.004-.011.002-.008.004-.01.002-.008.004-.01.002-.008.004-.01.003-.008.003-.01.003-.007.003-.011.003-.007.004-.012.002-.006c0-.003.003-.008.004-.011l.002-.008.004-.01.002-.007.004-.011.003-.007.004-.012.002-.006.004-.012.002-.006.004-.012.002-.006.004-.012.002-.005.005-.014.001-.004.005-.013.002-.006.004-.012.002-.006.004-.012.003-.006.004-.012c0-.003 0-.004.002-.007l.004-.01.002-.008.004-.01.002-.008.004-.01.003-.008c0-.003.003-.007.004-.01l.002-.007.004-.01.002-.009.004-.01.003-.008.003-.009.003-.009.004-.01.002-.007.004-.01.003-.008.003-.01.003-.008.004-.011.002-.007.005-.012.002-.005.004-.013.002-.006.004-.011.002-.007.004-.01.003-.008.004-.011.002-.007.004-.011.003-.006.004-.013.002-.005.005-.014.001-.004.005-.014.002-.004.005-.015v-.003c.003-.004.005-.01.006-.015l.001-.003.006-.014v-.004l.007-.016v-.001l.091-.251.002-.005.005-.013.002-.006.004-.012.001-.003.006-.015.002-.004.005-.014.001-.005.005-.013.002-.005.005-.013c0-.003 0-.002.002-.005l.004-.012.003-.007.004-.011.002-.007.004-.01.003-.01.004-.008.003-.009.003-.01.004-.008.003-.01.003-.007.004-.01.002-.007.004-.011.003-.007.004-.01.003-.008.004-.01.002-.007.004-.011.003-.008.004-.01.002-.006.005-.013.002-.005.005-.013.001-.004.005-.013.002-.005.005-.013.002-.006.004-.011.003-.008.004-.01c0-.003.001-.004.003-.007 0-.003.002-.008.004-.01l.002-.008.004-.01.003-.007.004-.011.003-.007.004-.012.002-.005c.001-.003.003-.01.005-.012 0-.003 0-.004.002-.007l.004-.01.003-.007c0-.003.003-.008.004-.011 0-.003.002-.005.003-.008 0-.003.002-.007.004-.01l.002-.007.004-.01.003-.009.004-.01.003-.007c0-.003.003-.007.004-.01 0-.003.001-.005.003-.008 0-.003.003-.008.004-.01l.002-.006c.001-.003.003-.01.005-.012 0-.003 0-.004.002-.007l.004-.01.003-.007.004-.012.003-.006.004-.012.002-.005.005-.012.002-.006.005-.013.002-.005.005-.012.002-.006.005-.013.001-.004.005-.013.002-.005.005-.012.002-.006.005-.012.002-.006.005-.012.002-.005.004-.012.003-.007.005-.012.001-.004.006-.014.001-.004.006-.016v-.001l.007-.015.001-.003.006-.016v-.002c.003-.004.005-.01.007-.015v-.003l.007-.016v-.001l.006-.013.002-.006.005-.013.002-.004.005-.014.002-.004.012-.03.002-.006.005-.013.001-.004.005-.012.002-.006.005-.013.002-.004.004-.01.004-.009.001-.004.005-.013.05-.123.001-.006c.01-.022.018-.043.026-.065l.001-.003.014-.032v-.003l.007-.015.001-.004.006-.013c0-.003 0-.003.002-.005l.005-.014.007-.017v-.002c.006-.012.01-.021.014-.033l.001-.004.006-.014.001-.002.006-.015.002-.004.005-.014.002-.004.005-.013.003-.006.005-.012c0-.001 0-.003.002-.005l.005-.012.002-.005.005-.013.002-.005.005-.012.002-.007.005-.011.002-.006.005-.011.003-.007.004-.011.003-.006.004-.011.003-.007.005-.011.002-.006.005-.012.002-.005.005-.013.002-.005.005-.012.003-.006.005-.012.002-.005c0-.003.003-.01.005-.012l.002-.005.005-.013.002-.005.005-.012.003-.006.005-.012.001-.004.006-.014.002-.004.005-.014.002-.003.005-.014.002-.004.006-.014.001-.003.006-.014.002-.004.005-.013.002-.005.005-.012.002-.006.006-.013.001-.003.006-.015.002-.003.006-.015v-.002l.007-.014c0-.001 0-.003.002-.004l.005-.014.002-.004.005-.013.002-.004.006-.014.001-.004.005-.012.003-.006.005-.012.002-.005.005-.012.003-.006.005-.012.002-.005.004-.011.003-.007.005-.011.003-.006.004-.012.003-.006.005-.011.002-.006.005-.01.003-.008.005-.011.002-.006.006-.014.001-.003.007-.015v-.002l.006-.013.002-.005.005-.012.003-.006.005-.012.002-.005.006-.014.001-.003.005-.012.003-.006.006-.015.001-.002.022-.051v-.001l.03-.07.002-.002.029-.068v-.002l.022-.05v-.001l.008-.016.002-.006.005-.012.001-.002.007-.015.001-.004.006-.014.003-.004.005-.012.003-.007.004-.011.003-.005.005-.012.003-.006.004-.011.004-.007.004-.01.003-.007.005-.012.002-.004.006-.013c0-.001 0-.003.002-.005l.005-.012.002-.005.005-.012.003-.007.005-.01.003-.006.005-.012.002-.006.005-.011.003-.006.005-.011.003-.007.005-.011.002-.004.006-.014.001-.004.006-.013.002-.004.006-.013.002-.005.006-.013.001-.003.006-.014.002-.004.006-.013.002-.005.005-.012.003-.005.006-.013.001-.004.006-.013.002-.005.006-.013.002-.004.005-.012.003-.006c0-.003.004-.01.005-.012l.002-.004.006-.013c0-.003 0-.003.002-.005l.005-.012.003-.006.005-.01.003-.007.005-.012.002-.005.006-.012.002-.005.005-.012.003-.006.005-.01.003-.008.005-.01.002-.006.005-.01.003-.008.005-.01.003-.007.004-.01.004-.008.005-.01.002-.006.006-.012.002-.005.005-.011.003-.007.005-.01.003-.007.005-.011.003-.006.005-.011.003-.006.005-.012.002-.005.005-.011.003-.007.006-.012.002-.004.005-.013.003-.005.005-.01.003-.007.005-.01c.001-.004.001-.005.003-.007l.005-.012.002-.005.006-.013.002-.005.007-.013.001-.003.006-.013.002-.005.015-.033c0-.001 0 0 0 0l.008-.017v-.001l.008-.015v-.002l.08-.172.002-.005.006-.012c.001-.002 0-.002.002-.003l.006-.014.003-.006.005-.012c.001-.001 0 0 0 0 .003-.006.006-.01.008-.017l.002-.004.006-.013.002-.003.006-.014.002-.004.007-.013v-.002l.007-.015.002-.004.007-.013.001-.004.006-.013.003-.005.006-.013.001-.003.007-.014.001-.003.007-.014.001-.003.007-.014.002-.004.006-.013.001-.003.007-.014.002-.004.006-.013.002-.004.006-.013.002-.004.006-.014.002-.002.006-.014.002-.004.007-.014.001-.003.006-.013.003-.005.006-.012.002-.005.006-.012.002-.005.006-.012.002-.006.006-.01.002-.007.006-.011.003-.006.005-.011.003-.006.005-.011.003-.006.005-.01.004-.008.004-.01.004-.007.004-.01.004-.007.004-.01.004-.007.005-.009c0-.003.002-.005.003-.008l.005-.01.003-.007.005-.01.004-.006c0-.003.003-.008.005-.01l.003-.007.005-.01.003-.007.005-.01.003-.007.005-.01.003-.007.005-.01.004-.007.004-.01.004-.007.005-.01.003-.007.005-.01.003-.007c.002-.004.003-.007.006-.01l.002-.007.006-.01.003-.007.005-.011.003-.005.006-.013.002-.004.006-.013.002-.004.006-.012.003-.005.006-.013.002-.004.006-.013.002-.004.006-.013.003-.004.005-.012.003-.005.006-.012.002-.005.006-.012.002-.005.007-.013.002-.004.006-.012.002-.005.007-.013.001-.003.007-.014.002-.003.007-.014.001-.003.007-.014c0-.002 0-.002.002-.003l.006-.014.002-.003.007-.014.001-.003.008-.015v-.002c.004-.005.006-.01.009-.016l.068-.136.008-.017.026-.05v-.003l.008-.014.002-.004.006-.013.002-.003.007-.015.008-.016.002-.003.007-.014.002-.003.006-.014.003-.004.006-.012.002-.005.006-.012.003-.005.006-.012.003-.005.005-.011.003-.007.006-.01.003-.006.005-.011.003-.006.006-.01.003-.007.005-.01.003-.007.006-.01.003-.006.005-.011.004-.007.005-.01.003-.006.006-.01.003-.007.005-.01.003-.007.006-.01.003-.007.005-.01.004-.006.005-.01.003-.007.005-.01.004-.007.005-.01.004-.007.005-.01.003-.007.005-.01.004-.006.005-.01.003-.006.006-.011.003-.006.005-.011.003-.006.006-.01.003-.007.006-.01.003-.006.005-.011.003-.006.006-.011.003-.006.006-.01.003-.006.006-.012.002-.005.006-.011.003-.006.006-.011.003-.005.006-.012.002-.005.007-.012.002-.004.006-.013.003-.005.006-.011.002-.005.007-.012.002-.005.007-.013s0-.002.002-.003l.006-.012c0-.002.002-.004.003-.005l.006-.012.002-.005.007-.012.002-.005.007-.013.002-.003.006-.012c0-.002.002-.004.003-.005.002-.004.004-.01.007-.013l.001-.003.007-.013.002-.004.007-.014.002-.002.006-.013.003-.005.006-.012.002-.004.007-.013.002-.004.017-.031v-.002c.007-.01.012-.022.018-.033l.018-.033.107-.2v-.002l.009-.015v-.002l.009-.014.001-.004.008-.013v-.002l.008-.014.003-.005.007-.012.001-.003.007-.013.003-.005.006-.012.002-.004.007-.012.004-.007.005-.01.004-.006.005-.01.004-.007.005-.01.004-.007.004-.008.006-.01.004-.007.004-.009.005-.008.004-.007.005-.01.004-.007.004-.009.005-.008.005-.009.003-.007.006-.01.003-.006.006-.01.003-.006.006-.01.004-.007.005-.01.003-.006.006-.01.003-.007.006-.01.003-.006.006-.01.003-.007.006-.01.003-.005.006-.012.003-.005.007-.012.002-.005.006-.01.004-.007.005-.01.004-.006.005-.01.004-.007.005-.01.004-.006.005-.01.004-.007.006-.01.003-.006.006-.01.003-.006.006-.01.003-.007.006-.01.004-.007.005-.009.004-.007.005-.01.004-.006.005-.01.004-.007.005-.009.004-.007.006-.01.003-.006.006-.01.003-.007.006-.01.004-.006.005-.009.004-.008.005-.009.004-.007.005-.01.004-.007.005-.009.004-.007.005-.008.005-.009.005-.009.004-.006.005-.01.004-.007.006-.01.003-.006.005-.009.004-.008.006-.01.003-.006.006-.01.004-.006c.002-.004.003-.007.006-.01l.003-.007.005-.009.004-.007.006-.011.003-.005.008-.014.001-.002.008-.013.002-.004.006-.011.003-.005.007-.013.002-.003.009-.016.008-.014.002-.003.007-.012.002-.005.009-.014v-.002l.026-.044.005-.009.035-.06.004-.008.005-.01.002-.003.008-.013.009-.016.004-.008.005-.008.006-.011.003-.005.005-.009.005-.008.004-.008.005-.008.005-.008.004-.008.005-.008.005-.009.003-.005.006-.01.004-.006.006-.011.004-.007.005-.009.005-.008.004-.008.004-.007.006-.01.003-.005.007-.011.002-.005.007-.011.003-.006.007-.011.002-.004.007-.012c0-.002.002-.003.003-.005l.006-.011.004-.006.005-.01.005-.007.005-.01.004-.006.005-.01.004-.006.006-.01.003-.006.006-.01.004-.007.006-.01.003-.005.006-.01.004-.007.006-.01.004-.006.005-.01.004-.007.006-.009.004-.006.005-.01.004-.007.006-.01.004-.005.005-.01.004-.007.006-.01.003-.005.007-.011.003-.006.006-.01.004-.006.005-.01.005-.007.005-.008.004-.008.006-.01.003-.006.006-.01.004-.005.006-.01.004-.007.005-.01.004-.006.006-.01.004-.006.006-.01.003-.006.006-.01.004-.007.006-.01.003-.005.006-.01.004-.007.006-.01.003-.005.007-.011c0-.002.002-.004.003-.005l.008-.013.001-.003.008-.012.002-.005.007-.011.003-.005.006-.01.004-.007.006-.01.003-.005.007-.011c0-.002.002-.004.003-.005l.007-.012.002-.004.007-.01.003-.007.007-.01c0-.002.002-.004.003-.005l.006-.01.004-.007.006-.01.003-.006.006-.008.004-.008.005-.008.005-.008.006-.01.004-.006.005-.009.004-.007.006-.009.004-.007.017-.028.002-.004.006-.01.004-.006.003-.005.014-.023.008-.014.029-.046.014-.024.005-.008.005-.008.006-.01.004-.006.005-.01.005-.006.006-.01.003-.006c.003-.003.004-.005.006-.01l.004-.006.005-.007.005-.009.003-.005.007-.012.001-.001.009-.014.003-.005.006-.01.005-.009.005-.007.005-.009.005-.008.004-.007.006-.008.004-.008.006-.009.004-.006.006-.01.003-.006.007-.01.003-.005.006-.01.004-.007.006-.01.004-.006.006-.01.004-.006.006-.01.004-.006.006-.009.004-.007.006-.01.004-.005.006-.01.003-.006.007-.01.003-.006.006-.01.004-.006.006-.01.004-.006.006-.01.004-.006.006-.01.004-.006.006-.01.004-.006.006-.01.004-.006.006-.009.004-.007.006-.009.004-.007.006-.008.004-.008.005-.008.005-.008.005-.008.005-.008.006-.008.004-.007.006-.01.004-.006.006-.01.003-.005.007-.01.003-.006.007-.011.003-.005.007-.01.004-.006.006-.01.004-.006.005-.009.005-.007.005-.009.005-.007.005-.009.005-.007.006-.01.004-.005.006-.01.004-.006.006-.01.004-.006.006-.01.004-.006.006-.008.004-.008.005-.008.005-.008.006-.008.004-.007.006-.009.004-.007.006-.01c.001 0 .004-.004.004-.006l.006-.01.004-.005.007-.01.004-.006.005-.009.005-.007.005-.008.005-.008.004-.006.006-.01.004-.006.006-.01.004-.006.006-.01.006-.009.004-.006.007-.011.003-.004.008-.013.002-.003.009-.013.001-.003.008-.012.003-.004.007-.011.003-.004.007-.012.003-.004.061-.095.003-.005.007-.01.004-.006.006-.01.004-.005.007-.01c0-.002 0-.003.002-.004l.008-.012.002-.004.008-.012.003-.004.007-.012.004-.005.007-.01.004-.007.006-.009.004-.007.006-.009.005-.008.005-.007.005-.008.005-.008.005-.007.006-.009.004-.006.006-.01.005-.007.005-.008.005-.007.005-.008.006-.009.004-.007.006-.008.005-.007.006-.01.004-.006.005-.008.005-.008.005-.007.006-.008.004-.007.006-.01.005-.006.006-.01.004-.005.006-.01.004-.006.006-.01c.001 0 .004-.004.004-.006l.006-.009.005-.007.006-.008.004-.007.006-.01.004-.005.007-.01.003-.005.007-.01.004-.006.007-.01.003-.006.007-.01.004-.006.006-.009.004-.006.006-.009.005-.008.005-.007.005-.008.006-.009.004-.006.007-.01.004-.005.006-.01.005-.007.005-.008.005-.007.005-.008.005-.008.006-.008.005-.007.005-.008.006-.008.004-.008.006-.007.005-.008.005-.008.005-.008.005-.007.006-.008.005-.008.005-.007.006-.009.004-.006.006-.01.004-.005.007-.01.003-.005.008-.011.002-.004.008-.011.003-.005.007-.01.004-.006.006-.01.005-.006.006-.01.004-.005.006-.01.005-.006.006-.01.004-.005.006-.01.004-.005.007-.01.004-.005.006-.01.005-.007.006-.009.005-.007.005-.008.005-.007.006-.009.004-.005.006-.01.005-.007.006-.008.004-.006.007-.01.002-.004.019-.027.001-.002.01-.013v-.002l.01-.013.003-.006.018-.025.018-.026.004-.007.03-.043.006-.008.005-.009.009-.011c0-.002 0-.002.002-.003l.007-.011.003-.005.009-.012c0-.001 0-.002.002-.003l.007-.01.004-.006.018-.027.003-.003.007-.01.003-.005.006-.009.005-.007.006-.008.005-.007.006-.009.005-.007.005-.008.005-.007.005-.008.006-.008.006-.007.004-.007.006-.009.006-.007.004-.007.006-.009.004-.005.007-.01.004-.005.007-.01.004-.007.006-.009.005-.006.006-.009.005-.006.006-.01.005-.007.005-.006.006-.01.005-.006.006-.008.005-.008.005-.007.006-.009.005-.006.005-.008.006-.008.005-.008.006-.007.005-.007.005-.009.006-.007.006-.008.004-.006.006-.01.005-.006.006-.008.005-.007.005-.008.006-.008.005-.008.005-.007.006-.008.005-.007.006-.008.005-.007.006-.009.005-.007.006-.008.004-.006.007-.01.004-.005.006-.01.005-.006.006-.008.005-.008.006-.008.005-.006.006-.009.005-.007.005-.008.006-.007.005-.008.006-.008.005-.007.005-.007.006-.009.005-.006.006-.009.005-.007.005-.007.007-.01.004-.006.006-.007.006-.008c0-.002.004-.006.005-.007l.005-.008.005-.007.006-.009.005-.006.007-.01.003-.004.007-.01.004-.006.007-.01.005-.006.006-.008.006-.008.005-.007.005-.007.006-.008.005-.007.006-.008.005-.008.005-.007.007-.009.005-.007.004-.006.007-.009.005-.007.005-.008.008-.01.003-.005.008-.01.003-.005.007-.01.004-.005.007-.01.004-.005.007-.009.004-.006.005-.007.006-.009.03-.04.003-.005.005-.006.006-.009.02-.026.002-.004.005-.006.006-.009.003-.004.009-.011.002-.004.008-.01.005-.007.007-.01.002-.003.009-.012.001-.001.01-.014.002-.003.009-.011.004-.006.007-.01.004-.005.007-.01.005-.006.006-.008.006-.008.005-.007.007-.01.004-.005.006-.008.005-.007.006-.008.005-.007.006-.008.005-.007.007-.009.004-.006.006-.008.005-.007.006-.008.006-.007.005-.008.005-.007.007-.008.005-.007.005-.007.006-.008.005-.007.006-.008.006-.007.005-.008.007-.008c0-.002.003-.005.004-.006l.006-.009.005-.006.007-.01.004-.005.007-.01.004-.005.008-.01.003-.005.007-.009.005-.006.007-.009.004-.006.007-.009.004-.006.007-.009.004-.006.007-.008.005-.007.006-.009.005-.005.006-.01.005-.005.007-.01.004-.005.006-.008.006-.008.006-.007.005-.008.006-.007.005-.007.006-.009.005-.006.006-.008.005-.007.007-.009.004-.005.007-.01.004-.005.008-.01.004-.005.006-.009.005-.006.007-.01.004-.005.007-.009.004-.005.008-.01.004-.005.006-.01c.001 0 .005-.004.005-.006l.007-.008.004-.006c.003-.003.005-.005.007-.01l.004-.004.008-.01.003-.005.008-.01.005-.006.006-.008.005-.007.006-.008.005-.006.007-.01.003-.004.008-.01.005-.006.007-.009.003-.004.008-.01.002-.004.01-.012v-.001l.01-.013.005-.006.007-.009.003-.004.008-.01.003-.004.02-.026.005-.007.006-.008.004-.005.007-.01.005-.006.007-.008.02-.027.003-.003.015-.02.017-.021c0-.001 0-.002.002-.003l.022-.028v-.001l.02-.026.003-.004.01-.013.002-.001.007-.01.004-.005.008-.01.003-.005.007-.009.005-.006.006-.008.006-.006.006-.009.005-.006.009-.011.002-.003.008-.01.004-.005.008-.01c0-.002.002-.003.003-.005l.008-.01.004-.005.008-.01.003-.004.008-.01.004-.005.008-.01.003-.004.008-.01.004-.005.008-.01.003-.004.008-.01c0-.002.003-.004.004-.005l.007-.01.004-.005.007-.01.005-.005.007-.009.004-.005.007-.01.005-.005.007-.008.005-.007.006-.008.005-.007.007-.008.005-.006.006-.008.006-.007.005-.007.006-.008.006-.007.006-.007.006-.008.005-.006.006-.009.006-.006.006-.008.005-.007.007-.008.005-.006.006-.009.005-.006.007-.008.006-.007.005-.007.006-.007.006-.008.006-.007.005-.007.006-.007.006-.008.006-.007.006-.007.005-.008.006-.007.006-.008.006-.007.006-.007.005-.007.007-.008.005-.007.006-.007.006-.007.006-.008.005-.007.006-.007.006-.007.006-.007.006-.008.005-.006.007-.009.005-.006.007-.008c0-.002.003-.005.004-.006l.007-.009.006-.006.006-.008.005-.007.006-.008.006-.007.006-.007.006-.008.005-.006.008-.01.004-.004.008-.01.004-.005.008-.01.003-.004.008-.01.004-.005.008-.01.004-.005.008-.009.004-.005.008-.01.004-.004.007-.01.004-.005.007-.009.005-.006.006-.007.006-.007.006-.007.006-.008.004-.005.008-.01.005-.006c.002-.002.005-.005.006-.008l.006-.006.006-.008.005-.006.007-.008.007-.009.005-.006.006-.007.04-.05.012-.014.01-.012.003-.003c.002-.004.007-.009.01-.012l.001-.002.01-.012.002-.003.01-.012.002-.002.01-.013.002-.001c.002-.004.006-.009.01-.012l.001-.003.01-.011.002-.003.011-.013v-.001l.01-.011.003-.004.008-.01.004-.004.008-.01.004-.005.008-.01.004-.004.007-.008.005-.007.006-.007.006-.007.006-.007.006-.007.006-.008.006-.007.006-.007.005-.007.007-.008.005-.006.007-.009.005-.005.008-.01.004-.004.007-.01.005-.005.007-.009.005-.005.007-.01.004-.004.009-.01.003-.004.009-.01.003-.005.009-.01.003-.004.008-.01.004-.004.008-.01.004-.004.008-.01.004-.005.008-.009.005-.006.006-.007.006-.007.007-.008.004-.006.007-.008.006-.006.006-.009.005-.005.007-.009.005-.006.008-.008.004-.006.007-.008.005-.006.008-.009.004-.005.007-.009.005-.005.008-.01.004-.004.008-.01.004-.005.008-.008.004-.006.007-.008.006-.007.007-.008.005-.006.006-.008.006-.006.006-.008.007-.007.005-.006.007-.008.005-.007.007-.007.005-.007.007-.007.006-.008.006-.007.006-.006c0-.002.004-.006.005-.007l.007-.008.005-.006.007-.008.005-.006.007-.008.006-.007.006-.007.005-.006.008-.01.003-.003.009-.01.004-.005.008-.01.004-.004.008-.01.004-.004.008-.01.002-.002.01-.012.004-.004.008-.01.003-.003.01-.01c0-.002.002-.004.003-.005l.02-.024.003-.002.022-.026.001-.002.12-.138.01-.012.003-.002.007-.009.005-.006.01-.01c0-.001 0-.002.002-.003l.008-.01.005-.005.006-.007.006-.007.007-.008.005-.006.009-.01.003-.003.008-.01.004-.005.008-.009.004-.004.008-.009.005-.006.01-.01c0-.001 0-.002.002-.003l.009-.01c0-.002.002-.003.003-.004l.008-.01.005-.005.006-.007.006-.007.007-.008.005-.005.008-.009.005-.006.006-.007.006-.007.006-.007.007-.007.006-.007.005-.006.008-.009.005-.006.007-.007c0-.002.004-.005.005-.006l.007-.008.005-.006.008-.009.004-.005.008-.009.005-.005.008-.009.004-.005.008-.008.005-.006.007-.009.005-.004.008-.01.004-.005.008-.008.005-.006.007-.008.006-.006.006-.008.006-.006.006-.007.006-.007.007-.007.006-.007.005-.006.008-.009.005-.005.007-.008.006-.007.006-.007.006-.006.007-.008.005-.006.007-.008.006-.006.006-.007.007-.007.006-.007.006-.007.006-.007.006-.007.007-.007.006-.007.005-.006.008-.008c0-.002.004-.005.005-.006l.007-.008.005-.006.007-.008.006-.006.007-.007c0-.002.004-.005.005-.007l.007-.007.006-.007.007-.007.006-.007.006-.007.007-.007.006-.007.004-.005.009-.01.004-.004.008-.009.004-.005.008-.008.005-.006.008-.008.004-.005.009-.01.002-.003.01-.01.002-.003.01-.01.003-.004.01-.011.013-.014.012-.013.002-.002.01-.012.004-.004.009-.01.001-.001.012-.012v-.001l.012-.013.004-.005.008-.008.006-.007.007-.007.002-.003.083-.09.003-.003.01-.012.002-.002.035-.038.003-.003.009-.01.004-.003.008-.01.004-.004.008-.009.005-.005.007-.007.006-.007.007-.008.005-.005.008-.01.005-.004.008-.01.004-.003.008-.009.005-.005.008-.009.004-.005.01-.01.003-.003.009-.01.004-.004.007-.008.006-.006.007-.008.005-.005.008-.01.005-.004.009-.01.003-.003.009-.009.004-.005.008-.009.005-.005.008-.008.005-.005.007-.008.006-.006.006-.007.007-.007.006-.007.006-.007.007-.007.005-.006.008-.008.005-.005.007-.008.006-.006.008-.008.005-.005.007-.009.005-.005.008-.008.005-.006.007-.007.006-.007.008-.007.004-.005.009-.01.004-.004.009-.01.003-.003.009-.009.005-.005.008-.009.004-.005.008-.008.005-.005.008-.009.005-.005.008-.008.005-.006.008-.007.005-.006.007-.008.005-.005.009-.009.004-.004.008-.009.005-.005.008-.009.005-.004.008-.009.004-.005.009-.009.004-.004.008-.009.005-.005.008-.009.005-.004.008-.01.004-.003.01-.01.002-.003.01-.01.004-.005.009-.008c0-.002.003-.004.004-.005l.008-.009.005-.004.008-.01.005-.004.008-.008.006-.007.007-.007.005-.005.008-.008.004-.005.009-.01.003-.003.01-.009.005-.006.007-.008.005-.005.008-.008.005-.005.008-.009.006-.005.007-.007.006-.007.007-.007.003-.003.01-.01c.001-.002 0-.002.002-.003l.024-.025.05-.05.001-.003.05-.052.002-.001.012-.013.01-.01.004-.004.022-.022.004-.005.01-.01.002-.002.01-.01.004-.004.012-.012.01-.011.004-.004.01-.01.002-.003.009-.008.005-.005.008-.008c0-.002.004-.004.005-.005l.007-.008.006-.006.007-.008.006-.005.008-.009.005-.004.009-.01.003-.003.01-.01.004-.004.008-.008.005-.005.008-.009.005-.004.009-.01.003-.003.01-.01.004-.004.01-.01.002-.002.01-.01.004-.004.01-.01.002-.002.01-.01.004-.004.01-.01.003-.004.009-.008c0-.002.003-.004.004-.005l.009-.009.004-.004.009-.009.005-.005.008-.008.004-.004.01-.01.004-.004.009-.01.003-.002.01-.01.004-.004.009-.01.003-.003.01-.01.004-.003.01-.01.002-.003.01-.01.004-.004.01-.009.003-.003.01-.01.003-.003.01-.01.002-.003.01-.01.004-.004.01-.01.003-.002.01-.01.003-.004.01-.01.004-.003.009-.01.005-.004.008-.009.004-.004.01-.009.004-.004.009-.009.003-.003.01-.01.003-.004.01-.01c.001 0 .002 0 .003-.002l.01-.01.004-.004.01-.01.002-.002.01-.01.004-.004.01-.01.003-.003.01-.01.003-.002.01-.011.002-.001.012-.012v-.001l.026-.025.013-.013.002-.002.011-.011.003-.002.01-.011.002-.002.196-.192h.001l.026-.025v-.001l.013-.012v-.001l.04-.038.012-.012.002-.002.01-.01c.002 0 .003-.002.004-.003l.01-.01.003-.003.011-.01.002-.003.013-.011v-.001l.013-.012v-.001l.013-.012h.001l.011-.012.003-.002.01-.01.003-.003.01-.01.004-.003.01-.01.003-.003.01-.01.003-.003.01-.01.004-.002.01-.01.003-.003.01-.01.003-.003.01-.01.004-.003.01-.01.003-.003.01-.01.004-.003.01-.01.003-.002.01-.01.003-.003.011-.01.003-.003.01-.01.003-.003.011-.01.003-.003.01-.01.004-.003.01-.009.003-.004.01-.008c.001-.003.001-.003.004-.005l.01-.009.003-.003.01-.01.004-.003.009-.01.004-.003.01-.009.003-.004.01-.01c.002 0 .002-.001.003-.002l.01-.01c.002 0 .003-.002.004-.003l.01-.01.003-.003.01-.009.004-.004.01-.01c.001 0 .002 0 .003-.002l.01-.01c.002 0 .003-.002.004-.003l.01-.01c.002 0 .002-.001.003-.002l.01-.01.004-.003.01-.01.002-.002.012-.01c0-.002.002-.003.003-.004l.01-.01.004-.003.009-.008.005-.005.01-.009.002-.003.01-.01c.002 0 .003-.001.004-.003l.01-.01c.002 0 .002 0 .003-.002l.01-.01c.002 0 .003-.002.004-.003l.01-.01.002-.002.012-.01.003-.003.01-.01.003-.003.01-.01.005-.003.01-.01.001-.001.012-.011.002-.002.012-.011.04-.038.014-.012.003-.003.01-.01c.002 0 .003-.002.004-.003l.212-.195c0-.002.002-.002.003-.003l.012-.012h.001l.012-.011.002-.002.012-.011.001-.002.012-.01.002-.002.026-.023.002-.002.01-.01.003-.003.01-.01c.002 0 .003-.001.004-.003l.012-.01.002-.002.01-.01.004-.002c.004-.005.006-.007.011-.01.001-.002 0-.002.002-.003l.011-.01.003-.002.026-.024h.001l.012-.012.002-.002.01-.01c.002 0 .003-.002.004-.003l.01-.009c.002 0 .003-.002.004-.003l.01-.01.004-.002.01-.01.003-.003.01-.01.004-.002.011-.01.002-.002.012-.01.003-.003.01-.01.004-.003.01-.009.004-.003.01-.01.003-.002.01-.01c.002 0 .003-.002.004-.003l.01-.01.003-.002.011-.01.003-.003.011-.01.003-.001c.004-.005.006-.007.011-.01l.003-.003.01-.01c.002 0 .003-.002.004-.003l.01-.009.005-.004.01-.009.002-.003.011-.009.003-.003.011-.01.003-.002.01-.01c.002 0 .003-.002.004-.003l.01-.01.004-.002.01-.01.004-.002.01-.01.004-.003.01-.009.004-.004.01-.009.003-.002.01-.01.004-.003.011-.01.002-.001.012-.01c0-.002.001-.002.002-.003l.012-.01.001-.002.013-.01.001-.002.012-.01.003-.003.01-.01c.002 0 .004-.002.005-.003l.01-.01.003-.002.011-.01.002-.002.012-.01.001-.001.013-.011.002-.002.054-.047v-.002l.278-.242.054-.047.003-.002.011-.01.003-.002.012-.01.002-.002.012-.01.002-.002.011-.01.003-.002.013-.011v-.001l.014-.011v-.001l.014-.012.012-.01.003-.003.012-.01.002-.002.012-.01.002-.002.012-.01.002-.002.012-.01.003-.002.011-.01.002-.002.012-.01.003-.002.011-.01.003-.003.01-.008.005-.004.01-.009.003-.003.011-.009.003-.003c.005-.004.007-.005.011-.01l.004-.002.01-.008.004-.004.01-.009.004-.003.01-.009.004-.003.01-.01.004-.002.01-.009.005-.004.01-.008.004-.003.01-.009.004-.003.01-.01.004-.002.01-.009.004-.003.01-.01.004-.002.01-.01.004-.002.011-.01.004-.002.01-.008.005-.005.009-.008.005-.004.009-.008.005-.004.01-.008.004-.003.01-.009.004-.004.01-.008.004-.003.01-.009.004-.003.01-.01c.002 0 .003 0 .004-.002l.01-.009c.002 0 .004-.002.005-.003l.01-.009.003-.002.011-.01.003-.002.012-.01.014-.012.002-.002.013-.01.014-.012.028-.023.002-.003.34-.28.029-.024.014-.012.013-.01.002-.002.013-.01.001-.002.013-.01.002-.001.014-.012.013-.01.002-.002.013-.01v-.002c.006-.003.01-.006.014-.01l.001-.001.014-.011.013-.011.002-.002.013-.01.002-.001.012-.01.002-.002.013-.01.001-.002c.004-.003.009-.006.012-.01l.003-.002.012-.01.003-.001.01-.01c.002 0 .003-.002.005-.003l.01-.008.004-.003.01-.009c.002 0 .003-.002.004-.003l.011-.009c.002 0 .002-.001.003-.002l.012-.01.003-.002c.005-.004.007-.005.011-.01l.003-.001.011-.01.005-.003.01-.008.003-.003.011-.009c.003-.002.002 0 .004-.003l.01-.008.004-.003.011-.009.004-.003.01-.009c.002 0 .003-.002.004-.003l.011-.008.004-.003.011-.01.003-.001.011-.01c.002 0 .003-.002.004-.003l.01-.008.005-.003.01-.009c.002 0 .003-.002.004-.003l.011-.008.003-.003.012-.009.003-.003.011-.009.003-.002.012-.01.003-.002.011-.009.003-.002.012-.01.003-.002.011-.009c.002 0 .002-.001.003-.002l.012-.01c.001 0 .002 0 .003-.002l.012-.01h.002l.012-.01.003-.003.012-.01.002-.001.012-.01.002-.001.013-.01.001-.001.014-.011.014-.011.001-.001c.14-.111.28-.22.422-.33l.014-.01.002-.002.012-.01.002-.001.013-.01.002-.002.012-.009.003-.002.012-.01.003-.001.012-.01.002-.002.013-.01h.002l.012-.01.003-.002.012-.01.002-.002.012-.008.004-.003.011-.01.003-.001.012-.01s.002 0 .003-.002l.012-.009.003-.002.01-.008c.002-.001.003-.003.005-.003l.01-.01c.002 0 .003 0 .004-.002l.012-.008.003-.003.012-.01h.002l.012-.01.004-.002.011-.01c.001 0 .002 0 .003-.002l.012-.008.003-.003.012-.009.003-.002.011-.009.004-.003.011-.008.004-.003.01-.008.004-.003.012-.009.003-.002.011-.009.004-.002.012-.01h.001l.014-.01.002-.002.013-.01.001-.001.013-.01.002-.002.014-.01.014-.01.002-.002.013-.01h.001l.013-.01.003-.002.013-.01.015-.011v-.001l.014-.01.002-.001.013-.01.002-.002.028-.02v-.002l.03-.021V9.94l.06-.044c.128-.096.257-.191.387-.286l.028-.02.002-.002.029-.021h.001l.028-.021.002-.002.013-.01h.002l.012-.01.004-.002.012-.009.003-.002.011-.008.004-.003.012-.009.002-.001.013-.01c.001 0 .002 0 .003-.002l.012-.008.003-.002.011-.009c.002 0 .003-.002.004-.003l.012-.008.003-.002.012-.009.003-.002.012-.009.003-.002.011-.008.005-.003.012-.01h.002l.013-.01.002-.001.013-.01.002-.001.012-.009.004-.003.012-.008.002-.002.013-.009.003-.002.012-.008.003-.003.011-.008.005-.003.01-.008.004-.002.012-.01.003-.001.012-.009.003-.002.012-.008.004-.003.011-.009c.002 0 .002 0 .003-.002L21 9.265l.003-.003.012-.008.003-.002.011-.009c.002 0 .004-.002.005-.003l.011-.008c.001 0 .002 0 .003-.002l.013-.009.002-.001.012-.01.003-.001.012-.009c.002 0 .003-.002.004-.003l.012-.008.002-.002.013-.009.003-.002.012-.008.003-.003.012-.008.004-.003.012-.008.002-.001.013-.01.015-.01.002-.002.013-.01h.002l.014-.01.015-.01v-.001l.015-.01.002-.002.013-.009.002-.002.013-.009.046-.032h.001l.302-.21.002-.002.06-.041.031-.022.015-.01.014-.01.003-.001.014-.01.015-.01.03-.021.002-.001.014-.01.015-.01h.001l.014-.01.002-.001.013-.01.003-.001.012-.009c.002 0 .001 0 .003-.002l.013-.009h.002l.013-.01.002-.001.013-.009.003-.002.013-.009.002-.001.013-.009.003-.002.013-.009.002-.001.013-.009.003-.002.013-.009h.001l.015-.01v-.001l.015-.01.015-.01.002-.001.013-.01h.002l.014-.01.002-.001.013-.009.002-.002.013-.008.003-.002.013-.009.002-.001.013-.01h.002l.014-.01h.001l.014-.01.003-.001.013-.01h.001l.014-.01h.002l.014-.01.001-.001.014-.009.003-.002.013-.009.015-.01h.001c.01-.008.02-.014.03-.02l.001-.001.015-.01.015-.01h.001c.01-.008.02-.014.03-.02l.002-.002.06-.04.002-.001.014-.01.015-.01.031-.02c.001 0 0 0 0 0l.372-.243.002-.001.06-.04h.002l.014-.01h.002l.013-.009.003-.002.013-.008.002-.002.012-.007L23 7.91l.012-.008.003-.002.013-.008.002-.002.015-.01c.005-.003.01-.005.014-.009l.003-.001.013-.009.002-.001.014-.009.002-.001.013-.009.003-.001.012-.008.004-.003.012-.007.004-.003.012-.007.003-.003.013-.008.003-.001.012-.008.004-.003.012-.007.004-.003.01-.007.006-.003.01-.007.005-.003.011-.007.006-.003.01-.007.005-.003.011-.007.004-.003.013-.007.002-.002.013-.008.004-.003.012-.007.003-.002.012-.008.005-.003.01-.007.006-.003.01-.006.006-.004.01-.006.005-.004.011-.007.005-.003.011-.007.004-.002.012-.008.004-.002.012-.008.003-.002.012-.007.005-.003.011-.007.005-.003.01-.007.006-.003.01-.007c.002 0 .004-.002.005-.003l.012-.007.005-.003.01-.007.005-.002.012-.008.003-.002.013-.008.002-.001.013-.009.003-.002.013-.007.003-.002.013-.008.003-.002.013-.008.002-.002.014-.008h.001l.015-.01c.001 0-.001 0 0 0l.316-.195.014-.008.003-.002.014-.009h.001l.015-.01h.001l.015-.01h.001l.031-.019.016-.01.015-.008.002-.002.013-.007.003-.003.013-.007.003-.002.013-.008c.002 0 .002 0 .003-.002l.014-.008.002-.001.013-.008.003-.002.014-.008.002-.001.013-.008.003-.002.013-.008.003-.002.012-.007.005-.003.011-.007.004-.002.012-.007.005-.003.011-.007c.002 0 .003-.002.004-.003l.012-.007.004-.002.013-.007.003-.003.012-.007.005-.003.01-.006.006-.003.01-.006.006-.004.01-.006.006-.004.01-.006.006-.003.01-.006.006-.004.01-.006.006-.003.011-.007.005-.003.01-.006.007-.004.01-.005.006-.004.01-.006.006-.004.01-.006.006-.003.01-.006.006-.004c.004-.002.007-.003.01-.006.002 0 .004-.002.005-.003l.012-.006.004-.003.012-.007.004-.002.012-.007.005-.003.01-.007.006-.003.01-.006.007-.004.01-.006c.002 0 .003-.002.005-.003l.011-.006.005-.003.011-.007c.002 0 .004-.002.005-.003l.011-.006.005-.003.012-.007.003-.002.012-.007.006-.003.01-.007.006-.003.01-.006.006-.003.011-.007.004-.002.012-.007.005-.003.012-.007.002-.001.014-.008.003-.002.029-.017.003-.001.013-.008.001-.001.015-.008.005-.003.027-.016.003-.002.03-.017.177-.102c.001 0-.001 0 0 0l.012-.007.005-.003.015-.009c.002 0 0 0 0 0l.013-.007.005-.003.01-.006.006-.003.01-.006.006-.003.012-.007.004-.002.011-.007.006-.003.01-.006.005-.003c.004-.002.007-.003.01-.006l.007-.004.01-.005.006-.003.011-.007c.002 0 .004-.002.005-.003l.011-.006.006-.003.01-.006.006-.004.011-.006.005-.002.012-.007.005-.003.011-.006.005-.003.01-.006.007-.004.009-.005.007-.004.01-.005.006-.004.01-.005.006-.004.01-.005.007-.005.01-.005.006-.003.01-.006.006-.004.01-.005.007-.004.009-.005.008-.004.009-.005.006-.004.01-.006.007-.003.01-.006.006-.003.01-.006.006-.004.011-.006.004-.002.012-.007.005-.003.012-.006.004-.003.011-.006.007-.003.01-.006.005-.003.012-.006.004-.003.012-.006.005-.003.011-.006.006-.003.01-.007.005-.002.012-.007.005-.002.011-.006.006-.003.01-.006.007-.004.01-.006.005-.002.012-.007.004-.002.012-.007.004-.002.012-.007.005-.002.012-.007.003-.002.014-.007.003-.002.013-.007.004-.002.012-.007.005-.003.011-.006.004-.002.013-.007.003-.002.014-.007.002-.001.014-.008.002-.002.031-.016.016-.01h.003l.013-.008.004-.002.013-.007.002-.001c.081-.045.161-.088.244-.132l.048-.026.002-.001.014-.008.002-.001.015-.008h.002l.014-.009h.002l.013-.008.004-.002.01-.005.007-.004.012-.006.004-.002.012-.007.004-.002.012-.006.005-.003.01-.006.007-.003.01-.005.007-.004.009-.005.007-.004.01-.005.007-.004.008-.004.009-.005.008-.004.008-.004.009-.005.007-.004.01-.005.007-.004.01-.005.007-.003.01-.006c.002 0 .004-.002.005-.003l.012-.006c.002 0 .004-.002.005-.003l.011-.006.006-.003.01-.005.007-.004.01-.004.007-.004.01-.005.006-.004.01-.005.007-.004.009-.004.008-.005.01-.004.006-.004.01-.005.006-.003.01-.006.007-.004.01-.004.008-.005.008-.004.008-.004.01-.005.006-.003.01-.006.007-.003.01-.005.006-.004.01-.005.006-.003.012-.006.004-.003.013-.006.004-.002.011-.006.007-.004.01-.005.006-.003.01-.005.007-.004.01-.005.007-.003.01-.006.007-.003.01-.005.006-.004.01-.005.007-.003.01-.006.007-.003.009-.005.008-.004.01-.005.006-.003.01-.005.006-.003.011-.006.005-.002.012-.006.005-.003.012-.006.004-.003.012-.006.004-.001.014-.008h.001l.014-.008.006-.002.012-.006.003-.002.013-.007.004-.002.013-.007.003-.001.013-.007.006-.003.011-.005.005-.003.012-.006.005-.003.012-.006.003-.001.013-.007.007-.003.01-.005.005-.003.011-.006.006-.003.028-.014h.001l.063-.032.003-.002.032-.016h.001l.016-.009h.001l.01-.005.008-.004.007-.003.009-.005.01-.005.007-.003.01-.006c.003 0 .004-.001.006-.003l.009-.004.009-.004.006-.004.01-.005.008-.004.01-.004.008-.004.008-.004.01-.005.007-.004.01-.005.006-.003.01-.005.007-.003.01-.006.007-.003.01-.005.007-.003.01-.005.007-.004.009-.004.008-.004.009-.005.008-.003.009-.005.008-.004.009-.004.007-.004.01-.004.007-.004.01-.005.007-.004.009-.004.009-.004.007-.004.01-.004.007-.004.009-.005.009-.004.007-.004.01-.004.008-.004.008-.005.008-.003.01-.005.007-.004.01-.004.007-.004.01-.004.007-.004.009-.005.008-.004.009-.004.008-.004.01-.004.006-.004.01-.004.008-.004.009-.005.008-.004.008-.004.009-.004.009-.004.007-.004.01-.004.008-.005c.003 0 .005-.002.008-.004.003 0 .006-.002.008-.004.003 0 .006-.002.01-.004l.008-.004.008-.004.008-.004.009-.004.009-.004.008-.004.008-.004.01-.005.007-.003.01-.005.006-.003.01-.005.007-.003.01-.005.007-.003.01-.006.007-.003.01-.005.007-.003.01-.005.008-.004c.003 0 .006-.002.009-.004l.009-.004.007-.004.01-.004.008-.004.008-.004.008-.004.01-.004.008-.004.008-.004.009-.004.007-.004.01-.005.007-.003.01-.005c.003 0 .005-.002.008-.003l.009-.005.008-.003.009-.005.008-.004c.003 0 .006-.002.009-.004l.008-.004.009-.004.008-.004.009-.004.009-.004.008-.004.01-.005.007-.003.011-.005.006-.003.014-.007h.002l.103-.05h.003l.031-.015.008-.004.01-.004.01-.005.006-.003.01-.005.007-.003.012-.006.005-.002.01-.005.007-.003.01-.005.007-.003.01-.004.008-.004.007-.003.01-.005.007-.003.01-.005.007-.003.01-.005.007-.003.01-.005.008-.003.01-.005.007-.003.01-.005.007-.003.01-.005.007-.003.01-.004.009-.005.008-.003.008-.004.01-.004.007-.004.01-.004.007-.004.01-.004.008-.004.008-.004.008-.003.01-.005.008-.004.008-.003.01-.005.008-.003.008-.004.009-.004.008-.004.01-.004.007-.004.01-.004.006-.003.011-.005.007-.003.01-.005.007-.003.01-.005.008-.003.01-.004.007-.004.01-.004.008-.004.008-.004.009-.004.009-.004.008-.003.009-.004.008-.004.009-.004.009-.004.007-.004.01-.004.008-.004.008-.003.01-.005.007-.003.01-.004.008-.004.01-.004.006-.003.011-.005.007-.003.01-.005.006-.003.012-.005.006-.003.011-.005.006-.002.011-.005.007-.003.012-.005.004-.002.012-.006.006-.003.012-.005.005-.002.012-.005.006-.003.011-.005.005-.002.012-.006.006-.002.012-.006.005-.002.013-.006.004-.001.015-.007h.002l.014-.007.004-.002.015-.007h.002l.016-.008.034-.014.002-.001.032-.015h.003l.016-.008c.001 0 0 0 0 0l.014-.006.005-.002.016-.007c.001 0 0 0 0 0l.015-.007.003-.001.03-.013.005-.003c.003 0 .005-.001.008-.003l.01-.004.012-.005.005-.003.104-.045.004-.002.03-.013h.003l.015-.008h.001l.016-.007.007-.003.01-.004.007-.003.01-.005.008-.003.01-.004.008-.004.01-.004.008-.004.009-.003.008-.004c.003 0 .006-.002.01-.004l.006-.003.011-.004.007-.003.01-.004.008-.004.01-.004.006-.003.011-.005.006-.002.012-.005.006-.003.01-.004.008-.004.01-.004.007-.003.01-.004.008-.003.01-.005c.003 0 .005-.002.008-.003l.009-.004.008-.003.01-.004.007-.004c.003 0 .007-.002.01-.004.003 0 .005-.002.008-.003l.01-.004.008-.004.008-.003.01-.004.007-.004c.003 0 .007-.002.01-.004.003 0 .005-.002.008-.003l.009-.004c.003 0 .006-.002.01-.004l.007-.003.009-.004c.003 0 .006-.002.01-.004l.008-.003.008-.004c.003 0 .006-.002.01-.004l.007-.003.01-.004.007-.003.01-.004.008-.004c.003 0 .007-.002.01-.004.003 0 .004-.001.007-.003.003 0 .008-.003.01-.004l.008-.003.01-.004.007-.003.01-.004.008-.004c.003 0 .007-.003.01-.004l.007-.003.01-.004.007-.003.012-.005.006-.002.01-.005c.003 0 .005-.002.008-.003l.01-.004.006-.003c.003-.001.01-.003.012-.005l.006-.002.012-.005.005-.002.012-.005.006-.003.013-.005.004-.002.013-.005.004-.002.015-.006h.003l.012-.006.006-.003.013-.005.004-.002.013-.005.005-.002.014-.005.003-.002.013-.005.005-.002.013-.005.005-.002.012-.006.005-.002.014-.005.003-.002.013-.005c.003 0 .003 0 .005-.002l.013-.005.005-.002.013-.006.004-.001.014-.006.004-.001.014-.006.003-.002.335-.135h.002l.016-.006.004-.002.013-.005.005-.002.013-.006.004-.001.014-.005.005-.002.012-.005.006-.003.012-.004.005-.002.013-.005.006-.003.01-.004.008-.003.01-.004.009-.003.009-.004.007-.003.011-.004.007-.003.01-.004.007-.003.011-.004.006-.002.013-.005.004-.002.013-.005.005-.002.013-.005.005-.002.012-.005.007-.002.011-.005.005-.002.013-.005.005-.002.013-.005.004-.001.013-.005.006-.003.013-.005.003-.001.014-.005.004-.002.014-.005.004-.002.013-.005.006-.002.012-.005.005-.002c.003 0 .01-.004.013-.005.003 0 .002 0 .005-.002l.013-.005.004-.001.014-.006.004-.001.015-.006h.001l.016-.007h.003l.015-.006.002-.001.015-.006.004-.002.014-.005.003-.001.014-.006.004-.001.014-.005.004-.002.013-.005.006-.002.013-.005.003-.001.014-.006.005-.001.013-.005.004-.002.012-.005.007-.002.012-.005.005-.002.013-.005.005-.001.014-.006.003-.001.014-.005.004-.002.016-.006h.001l.016-.006.002-.001.016-.006h.002l.014-.006.005-.002.014-.005.003-.001.014-.006.004-.001.016-.006h.001l.017-.007h.001l.036-.014.034-.012.002-.001.286-.106.005-.002.013-.005h.002l.016-.006h.002l.016-.007.018-.006h.001l.035-.013h.001l.017-.007h.001l.016-.006.004-.001.015-.006.017-.006.003-.001.016-.006h.001l.016-.006.003-.001.016-.006.017-.006h.002l.016-.007h.003l.015-.006.003-.001.015-.006h.002l.016-.006h.002l.017-.007c.001 0 0 0 0 0l.017-.006h.002l.034-.013h.002l.017-.006.017-.006.002-.001.017-.006.017-.006h.002l.017-.007.017-.006h.002l.016-.006.002-.001.016-.006h.003l.015-.006.003-.001.014-.005.004-.002.015-.005h.003l.015-.006.003-.001.015-.005.003-.001.015-.006h.003l.016-.006h.001l.017-.007h.001l.017-.006h.001l.017-.006h.001l.017-.007h.001l.017-.006h.001l.018-.006.054-.02.018-.005c.29-.1.58-.198.873-.293.001 0-.001 0 0 0l.017-.006h.002l.072-.024.055-.017.017-.006h.002l.017-.006.018-.006.019-.006.018-.005.018-.006.018-.006h.001l.035-.012h.002l.017-.006c.002 0 0 0 0 0l.128-.04h.001c.244-.077.49-.152.735-.225l.148-.044.148-.043C40.453.692 45.146 0 50 0c1.315 0 2.617.05 3.906.15l.21 9.752-4.999.107C27.547 10.474 10 28.414 10 50c0 22.056 17.944 40 40 40h5v9.753c-1.644.163-3.313.247-5 .247z" class="prefix__cls-8" transform="translate(659 1196)"/>
            </g>
            <path id="prefix__Line_5" d="M323 0L0 0" class="prefix__cls-2" data-name="Line 5" transform="translate(710 1201)"/>
            <path id="prefix__Line_6" d="M602 0L0 0" class="prefix__cls-2" data-name="Line 6" transform="translate(709 1291)"/>
        </g>
        <g id="prefix__Group_30" data-name="Group 30">
            <g id="prefix__Group_24" data-name="Group 24">
                <g id="prefix__Ellipse_2" class="prefix__cls-4" data-name="Ellipse 2" transform="translate(596 1101)">
                    <circle cx="10" cy="10" r="10" class="prefix__cls-7"/>
                    <circle cx="10" cy="10" r="8" class="prefix__cls-9"/>
                </g>
                <text id="prefix__Etkinlik_olutur" class="prefix__cls-5" data-name="Etkinlik olutur" transform="translate(549 1144)">
                    <tspan x="0" y="0">Etkinlik olutur</tspan>
                </text>
            </g>
            <g id="prefix__Group_25" data-name="Group 25">
                <g id="prefix__Ellipse_3" class="prefix__cls-4" data-name="Ellipse 3" transform="translate(918 1101)">
                    <circle cx="10" cy="10" r="10" class="prefix__cls-7"/>
                    <circle cx="10" cy="10" r="8" class="prefix__cls-9"/>
                </g>
                <text id="prefix__Yaplacaklar_belirle" class="prefix__cls-5" data-name="Yaplacaklar belirle" transform="translate(928 1144)">
                    <tspan x="-73.096" y="0">Yaplacaklar belirle</tspan>
                </text>
            </g>
            <g id="prefix__Group_26" data-name="Group 26">
                <g id="prefix__Ellipse_4" class="prefix__cls-4" data-name="Ellipse 4" transform="translate(1068 1144)">
                    <circle cx="10" cy="10" r="10" class="prefix__cls-7"/>
                    <circle cx="10" cy="10" r="8" class="prefix__cls-9"/>
                </g>
                <text id="prefix__Teklif_iste" data-name="Teklif iste" transform="translate(1133 1160)" style="opacity:.9;fill:#32d5c9;font-size:16px;font-family:Ubuntu-Medium,Ubuntu;font-weight:500">
                    <tspan x="-36.52" y="0">Teklif iste</tspan>
                </text>
            </g>
            <g id="prefix__Group_27" data-name="Group 27">
                <g id="prefix__Ellipse_5" class="prefix__cls-4" data-name="Ellipse 5" transform="translate(872 1191)">
                    <circle cx="10" cy="10" r="10" class="prefix__cls-7"/>
                    <circle cx="10" cy="10" r="8" class="prefix__cls-9"/>
                </g>
                <text id="prefix__Teklif_ver" class="prefix__cls-5" data-name="Teklif ver" transform="translate(882 1234)">
                    <tspan x="-34.72" y="0">Teklif ver</tspan>
                </text>
            </g>
            <g id="prefix__Group_28" data-name="Group 28">
                <g id="prefix__Ellipse_6" class="prefix__cls-4" data-name="Ellipse 6" transform="translate(654 1236)">
                    <circle cx="10" cy="10" r="10" class="prefix__cls-7"/>
                    <circle cx="10" cy="10" r="8" class="prefix__cls-9"/>
                </g>
                <text id="prefix__Anlama_sala" class="prefix__cls-5" data-name="Anlama sala" transform="translate(646 1252)">
                    <tspan x="-105.552" y="0">Anlama sala</tspan>
                </text>
            </g>
            <g id="prefix__Group_29" data-name="Group 29">
                <g id="prefix__Ellipse_7" class="prefix__cls-4" data-name="Ellipse 7" transform="translate(1035 1281)">
                    <circle cx="10" cy="10" r="10" class="prefix__cls-7"/>
                    <circle cx="10" cy="10" r="8" class="prefix__cls-9"/>
                </g>
                <text id="prefix__Etkinliini_tamamla" class="prefix__cls-5" data-name="Etkinliini tamamla" transform="translate(1117 1324)">
                    <tspan x="-143.68" y="0">Etkinliini tamamla</tspan>
                </text>
            </g>
        </g>
    </g>
</svg>
